<svg width="91" height="101" fill="none" xmlns="http://www.w3.org/2000/svg"><g filter="url(#a)"><rect x="8" y="6" width="75" height="85" rx="5" fill="#212529"/><g clip-path="url(#b)"><path d="M64.746 32.718 47.28 15.254a2.576 2.576 0 0 0-3.643 0l-3.626 3.627 4.6 4.6a3.058 3.058 0 0 1 3.874 3.9l4.434 4.434a3.064 3.064 0 0 1 3.167 5.062 3.065 3.065 0 0 1-5.003-3.334L46.95 29.41v10.88a3.065 3.065 0 1 1-2.52-.089V29.218a3.064 3.064 0 0 1-1.664-4.02l-4.535-4.535-11.975 11.974a2.577 2.577 0 0 0 0 3.644l17.464 17.464a2.576 2.576 0 0 0 3.643 0l17.384-17.383a2.578 2.578 0 0 0 0-3.644" fill="#DE4C36"/></g><path d="M40.808 74.62c-.76 0-1.416-.124-1.968-.372a2.957 2.957 0 0 1-1.272-1.104c-.296-.488-.46-1.08-.492-1.776a47.073 47.073 0 0 1 0-2.208c.032-.68.2-1.256.504-1.728a2.895 2.895 0 0 1 1.284-1.08c.552-.248 1.2-.372 1.944-.372.6 0 1.132.076 1.596.228.464.144.852.34 1.164.588.32.248.56.52.72.816.168.296.256.588.264.876a.196.196 0 0 1-.072.18.244.244 0 0 1-.18.072h-1.752a.466.466 0 0 1-.204-.036.456.456 0 0 1-.108-.132 1.608 1.608 0 0 0-.252-.372 1.249 1.249 0 0 0-.444-.348c-.184-.096-.428-.144-.732-.144-.456 0-.816.12-1.08.36-.256.24-.396.624-.42 1.152a30.284 30.284 0 0 0 0 2.088c.024.56.172.964.444 1.212s.632.372 1.08.372c.304 0 .572-.052.804-.156.24-.104.428-.264.564-.48.136-.224.204-.508.204-.852v-.228h-1.128a.335.335 0 0 1-.228-.084.335.335 0 0 1-.084-.228v-.888c0-.088.028-.16.084-.216a.311.311 0 0 1 .228-.096H44.3c.088 0 .16.032.216.096a.292.292 0 0 1 .084.216v1.368c0 .688-.156 1.276-.468 1.764-.312.488-.756.864-1.332 1.128-.568.256-1.232.384-1.992.384Zm5.337-.12a.292.292 0 0 1-.216-.084.292.292 0 0 1-.084-.216v-5.64c0-.088.028-.16.084-.216a.292.292 0 0 1 .216-.084h1.416c.08 0 .148.028.204.084a.274.274 0 0 1 .096.216v5.64c0 .088-.032.16-.096.216a.278.278 0 0 1-.204.084h-1.416Zm-.012-7.14a.292.292 0 0 1-.216-.084.292.292 0 0 1-.084-.216v-1.068c0-.088.028-.16.084-.216a.274.274 0 0 1 .216-.096h1.428c.088 0 .16.032.216.096a.274.274 0 0 1 .096.216v1.068c0 .088-.032.16-.096.216a.292.292 0 0 1-.216.084h-1.428Zm6.326 7.14c-.512 0-.956-.08-1.332-.24a1.849 1.849 0 0 1-.852-.768c-.2-.352-.3-.804-.3-1.356v-2.304h-.936a.335.335 0 0 1-.228-.084.292.292 0 0 1-.084-.216v-.972c0-.088.028-.16.084-.216a.335.335 0 0 1 .228-.084h.936v-1.98c0-.088.028-.16.084-.216a.32.32 0 0 1 .216-.084h1.392c.088 0 .16.028.216.084a.292.292 0 0 1 .084.216v1.98h1.5c.088 0 .16.028.216.084a.292.292 0 0 1 .084.216v.972c0 .088-.028.16-.084.216a.292.292 0 0 1-.216.084h-1.5v2.136c0 .272.052.488.156.648.104.16.28.24.528.24h.924c.088 0 .16.028.216.084a.292.292 0 0 1 .084.216V74.2c0 .088-.028.16-.084.216a.292.292 0 0 1-.216.084h-1.116Z" fill="#fff"/></g><defs><clipPath id="b"><path fill="#fff" transform="translate(25.5 14.5)" d="M0 0h40v40H0z"/></clipPath><filter id="a" x="0" y="0" width="91" height="101" filterUnits="userSpaceOnUse" color-interpolation-filters="sRGB"><feFlood flood-opacity="0" result="BackgroundImageFix"/><feColorMatrix in="SourceAlpha" values="0 0 0 0 0 0 0 0 0 0 0 0 0 0 0 0 0 0 127 0" result="hardAlpha"/><feOffset dy="2"/><feGaussianBlur stdDeviation="4"/><feColorMatrix values="0 0 0 0 0 0 0 0 0 0 0 0 0 0 0 0 0 0 0.75 0"/><feBlend in2="BackgroundImageFix" result="effect1_dropShadow_504_593"/><feBlend in="SourceGraphic" in2="effect1_dropShadow_504_593" result="shape"/></filter></defs></svg>