<svg width="91" height="101" fill="none" xmlns="http://www.w3.org/2000/svg"><g filter="url(#a)"><rect x="8" y="6" width="75" height="85" rx="5" fill="#212529"/><g clip-path="url(#b)"><path d="m45.511 56.947 7.36-22.652h-14.72l7.36 22.652Z" fill="#E24329"/><path d="m45.512 56.947-7.36-22.652H27.837l17.675 22.652Z" fill="#FC6D26"/><path d="m27.837 34.295-2.236 6.884a1.523 1.523 0 0 0 .553 1.703l19.358 14.065-17.675-22.652Z" fill="#FCA326"/><path d="M27.837 34.295h10.315l-4.433-13.643c-.228-.702-1.221-.702-1.45 0l-4.432 13.643Z" fill="#E24329"/><path d="m45.512 56.947 7.36-22.652h10.315L45.512 56.947Z" fill="#FC6D26"/><path d="m63.187 34.295 2.236 6.884a1.524 1.524 0 0 1-.553 1.703L45.511 56.947l17.675-22.652Z" fill="#FCA326"/><path d="M63.186 34.295H52.872l4.432-13.643c.228-.702 1.222-.702 1.45 0l4.432 13.643Z" fill="#E24329"/></g><path d="M31.937 73.06c-.76 0-1.416-.124-1.968-.372a2.957 2.957 0 0 1-1.272-1.104c-.296-.488-.46-1.08-.492-1.776a47.073 47.073 0 0 1 0-2.208c.032-.68.2-1.256.504-1.728a2.895 2.895 0 0 1 1.284-1.08c.552-.248 1.2-.372 1.944-.372.6 0 1.132.076 1.596.228.464.144.852.34 1.164.588.32.248.56.52.72.816.168.296.256.588.264.876a.196.196 0 0 1-.072.18.244.244 0 0 1-.18.072h-1.752a.466.466 0 0 1-.204-.036.456.456 0 0 1-.108-.132 1.608 1.608 0 0 0-.252-.372 1.249 1.249 0 0 0-.444-.348c-.184-.096-.428-.144-.732-.144-.456 0-.816.12-1.08.36-.256.24-.396.624-.42 1.152a30.284 30.284 0 0 0 0 2.088c.024.56.172.964.444 1.212s.632.372 1.08.372c.304 0 .572-.052.804-.156.24-.104.428-.264.564-.48.136-.224.204-.508.204-.852v-.228h-1.128a.335.335 0 0 1-.228-.084.335.335 0 0 1-.084-.228v-.888c0-.088.028-.16.084-.216a.311.311 0 0 1 .228-.096h3.024c.088 0 .16.032.216.096a.292.292 0 0 1 .084.216v1.368c0 .688-.156 1.276-.468 1.764-.312.488-.756.864-1.332 1.128-.568.256-1.232.384-1.992.384Zm5.337-.12a.292.292 0 0 1-.216-.084.292.292 0 0 1-.084-.216V67c0-.088.028-.16.084-.216a.292.292 0 0 1 .216-.084h1.416c.08 0 .148.028.204.084a.274.274 0 0 1 .096.216v5.64c0 .088-.032.16-.096.216a.278.278 0 0 1-.204.084h-1.416Zm-.012-7.14a.292.292 0 0 1-.216-.084.292.292 0 0 1-.084-.216v-1.068c0-.088.028-.16.084-.216a.274.274 0 0 1 .216-.096h1.428c.088 0 .16.032.216.096a.274.274 0 0 1 .096.216V65.5c0 .088-.032.16-.096.216a.292.292 0 0 1-.216.084h-1.428Zm6.325 7.14c-.512 0-.956-.08-1.332-.24a1.849 1.849 0 0 1-.852-.768c-.2-.352-.3-.804-.3-1.356v-2.304h-.936a.335.335 0 0 1-.227-.084.292.292 0 0 1-.084-.216V67c0-.088.027-.16.084-.216a.335.335 0 0 1 .227-.084h.936v-1.98c0-.088.029-.16.084-.216a.32.32 0 0 1 .217-.084h1.391c.088 0 .16.028.216.084a.292.292 0 0 1 .084.216v1.98h1.5c.089 0 .16.028.217.084a.292.292 0 0 1 .084.216v.972c0 .088-.029.16-.084.216a.292.292 0 0 1-.216.084h-1.5v2.136c0 .272.052.488.156.648.103.16.28.24.527.24h.924c.088 0 .16.028.216.084a.292.292 0 0 1 .085.216v1.044c0 .088-.029.16-.084.216a.292.292 0 0 1-.217.084h-1.116Zm2.71 0a.292.292 0 0 1-.216-.084.292.292 0 0 1-.084-.216v-7.92c0-.088.028-.16.084-.216a.292.292 0 0 1 .216-.084h1.416c.088 0 .16.028.216.084a.292.292 0 0 1 .084.216v7.92c0 .088-.028.16-.084.216a.292.292 0 0 1-.216.084h-1.416Zm5.006.12c-.432 0-.82-.08-1.164-.24a2.145 2.145 0 0 1-.804-.672c-.2-.28-.3-.596-.3-.948 0-.568.232-1.016.696-1.344.464-.336 1.08-.564 1.848-.684l1.5-.228v-.168c0-.288-.06-.508-.18-.66-.12-.152-.34-.228-.66-.228-.224 0-.408.044-.552.132a.942.942 0 0 0-.324.36.345.345 0 0 1-.3.156h-1.344c-.088 0-.156-.024-.204-.072a.243.243 0 0 1-.06-.192c0-.144.052-.308.156-.492.112-.192.28-.38.504-.564.224-.184.512-.336.864-.456s.776-.18 1.272-.18c.52 0 .964.06 1.332.18.368.12.664.288.888.504.232.216.404.472.516.768.112.288.168.608.168.96v3.648c0 .088-.032.16-.096.216a.278.278 0 0 1-.204.084h-1.392a.292.292 0 0 1-.216-.084.292.292 0 0 1-.084-.216v-.42a1.742 1.742 0 0 1-.42.42 2.055 2.055 0 0 1-.624.3c-.232.08-.504.12-.816.12Zm.564-1.368c.232 0 .44-.048.624-.144.192-.104.34-.26.444-.468.112-.216.168-.484.168-.804v-.168l-1.02.18c-.376.064-.652.164-.828.3-.168.128-.252.28-.252.456 0 .136.04.252.12.348.08.096.184.172.312.228.128.048.272.072.432.072Zm8.458 1.368c-.448 0-.824-.076-1.128-.228a2.296 2.296 0 0 1-.732-.576v.384c0 .088-.032.16-.096.216a.278.278 0 0 1-.204.084h-1.356a.292.292 0 0 1-.216-.084.292.292 0 0 1-.084-.216v-7.92c0-.088.028-.16.084-.216a.292.292 0 0 1 .216-.084h1.464c.088 0 .16.028.216.084a.292.292 0 0 1 .084.216v2.568c.192-.208.432-.376.72-.504a2.45 2.45 0 0 1 1.032-.204c.4 0 .752.068 1.056.204.312.128.576.316.792.564.216.248.384.544.504.888s.188.732.204 1.164a8.035 8.035 0 0 1 0 .84 3.91 3.91 0 0 1-.216 1.2c-.12.344-.288.64-.504.888-.216.24-.476.424-.78.552-.304.12-.656.18-1.056.18Zm-.648-1.608c.272 0 .484-.056.636-.168a.905.905 0 0 0 .324-.456c.072-.192.116-.404.132-.636a5.772 5.772 0 0 0 0-.744 2.243 2.243 0 0 0-.132-.636.905.905 0 0 0-.324-.456c-.152-.112-.364-.168-.636-.168-.248 0-.452.056-.612.168a.968.968 0 0 0-.36.42 1.4 1.4 0 0 0-.132.552 8.451 8.451 0 0 0 0 .9c.008.216.048.416.12.6s.188.336.348.456c.16.112.372.168.636.168Z" fill="#fff"/></g><defs><clipPath id="b"><path fill="#fff" transform="translate(25.5 20.06)" d="M0 0h40v36.88H0z"/></clipPath><filter id="a" x="0" y="0" width="91" height="101" filterUnits="userSpaceOnUse" color-interpolation-filters="sRGB"><feFlood flood-opacity="0" result="BackgroundImageFix"/><feColorMatrix in="SourceAlpha" values="0 0 0 0 0 0 0 0 0 0 0 0 0 0 0 0 0 0 127 0" result="hardAlpha"/><feOffset dy="2"/><feGaussianBlur stdDeviation="4"/><feColorMatrix values="0 0 0 0 0 0 0 0 0 0 0 0 0 0 0 0 0 0 0.75 0"/><feBlend in2="BackgroundImageFix" result="effect1_dropShadow_505_1158"/><feBlend in="SourceGraphic" in2="effect1_dropShadow_505_1158" result="shape"/></filter></defs></svg>