<svg width="1126" height="503" viewBox="0 0 1126 503" fill="none" xmlns="http://www.w3.org/2000/svg">
<mask id="mask0_1349_28" style="mask-type:alpha" maskUnits="userSpaceOnUse" x="0" y="0" width="1126" height="503">
<rect width="1126" height="503" fill="#CDCDCD"/>
</mask>
<g mask="url(#mask0_1349_28)">
<path fill-rule="evenodd" clip-rule="evenodd" d="M1337 -49.5C1337 -76.8381 1314.84 -99 1287.5 -99H-161.5C-188.838 -99 -211 -76.8381 -211 -49.5V-49.5C-211 -22.1619 -188.838 0 -161.5 0H13C40.6142 0 63 22.3858 63 50V100C63 182.843 130.157 250 213 250H363C390.614 250 413 272.386 413 300V310C413 392.843 480.157 460 563 460C645.843 460 713 392.843 713 310V300C713 272.386 735.386 250 763 250H913C995.843 250 1063 182.843 1063 100V50C1063 22.3858 1085.39 0 1113 0H1287.5C1314.84 0 1337 -22.1619 1337 -49.5V-49.5Z" fill="black"/>
</g>
</svg>
