<?xml version="1.0" standalone="no"?>
<!DOCTYPE svg PUBLIC "-//W3C//DTD SVG 20010904//EN"
 "http://www.w3.org/TR/2001/REC-SVG-20010904/DTD/svg10.dtd">
<svg version="1.0" xmlns="http://www.w3.org/2000/svg"
 width="1280.000000pt" height="1203.000000pt" viewBox="0 0 1280.000000 1203.000000"
 preserveAspectRatio="xMidYMid meet">
<metadata>
Created by potrace 1.15, written by Peter Selinger 2001-2017
</metadata>
<g transform="translate(0.000000,1203.000000) scale(0.100000,-0.100000)"
fill="#000000" stroke="none">
<path d="M7255 10990 c-191 -14 -428 -41 -515 -59 -25 -5 -74 -15 -110 -21
-219 -41 -565 -147 -890 -275 -415 -163 -444 -173 -635 -236 -145 -48 -326
-88 -637 -143 -305 -53 -484 -141 -738 -362 -28 -25 -151 -128 -225 -189 -26
-22 -58 -46 -69 -54 -12 -8 -23 -17 -26 -21 -3 -3 -25 -21 -50 -40 -25 -19
-47 -37 -50 -40 -3 -3 -21 -17 -40 -30 -19 -13 -37 -27 -40 -30 -3 -3 -21 -17
-40 -30 -19 -13 -49 -35 -66 -49 -17 -14 -42 -34 -55 -43 -13 -9 -54 -38 -91
-65 -37 -26 -104 -73 -149 -103 -44 -30 -86 -60 -92 -65 -7 -6 -68 -48 -137
-94 -277 -187 -432 -321 -514 -445 -53 -79 -101 -196 -116 -281 -16 -89 -9
-346 15 -545 30 -251 8 -457 -69 -645 -38 -93 -143 -289 -218 -407 -104 -164
-115 -181 -137 -210 -12 -14 -21 -30 -21 -36 0 -5 -9 -17 -20 -27 -11 -10 -20
-22 -20 -28 0 -5 -20 -38 -45 -74 -25 -35 -45 -66 -45 -68 0 -3 -15 -28 -33
-57 -45 -70 -130 -248 -155 -323 -52 -156 -69 -311 -53 -477 13 -127 19 -170
71 -448 29 -156 47 -273 70 -455 34 -257 50 -346 82 -438 55 -163 154 -296
288 -387 32 -22 143 -83 246 -136 160 -82 346 -191 364 -213 3 -3 27 -24 54
-45 82 -66 225 -220 369 -396 170 -209 532 -546 907 -846 170 -136 225 -180
251 -199 24 -17 138 -106 258 -200 21 -16 74 -57 117 -90 44 -33 88 -68 98
-77 20 -18 40 -32 161 -110 357 -230 594 -291 1190 -303 143 -3 276 -7 295
-10 31 -4 484 -19 585 -20 56 0 333 15 375 20 19 3 145 19 280 35 135 17 261
32 280 35 19 3 96 12 170 20 594 68 1041 133 1146 166 17 5 40 11 50 13 37 7
140 39 234 71 81 28 156 59 340 142 50 22 140 76 255 152 89 59 244 198 300
271 84 108 185 281 254 435 27 61 61 134 75 162 14 29 26 58 26 65 0 6 6 19
13 27 8 9 22 38 31 64 22 58 235 483 293 582 22 39 62 108 88 155 124 218 293
486 368 585 36 46 158 186 202 230 94 96 168 191 237 305 28 48 78 221 94 328
14 90 15 162 10 452 -3 190 -9 374 -11 410 -27 344 -45 509 -85 740 -52 308
-85 445 -167 690 -132 400 -318 698 -553 885 -85 67 -157 115 -315 210 -494
296 -724 547 -833 910 -37 126 -45 168 -77 390 -33 231 -49 309 -86 420 -68
202 -196 380 -380 527 -51 41 -86 65 -205 140 -167 106 -509 227 -719 254 -27
3 -52 7 -55 9 -3 2 -34 6 -70 10 -36 4 -67 8 -70 10 -3 2 -48 7 -100 10 -52 4
-98 9 -103 12 -13 8 -509 10 -612 3z"/>
</g>
</svg>
