<svg width="91" height="101" fill="none" xmlns="http://www.w3.org/2000/svg"><g filter="url(#a)"><rect x="8" y="6" width="75" height="85" rx="5" fill="#212529"/><g clip-path="url(#b)" fill="#fff"><path d="M45.423 15.044c-11.002 0-19.923 8.92-19.923 19.923 0 8.802 5.708 16.27 13.624 18.904.996.185 1.362-.432 1.362-.958 0-.475-.019-2.045-.027-3.71-5.543 1.206-6.713-2.35-6.713-2.35-.906-2.303-2.212-2.915-2.212-2.915-1.807-1.237.137-1.211.137-1.211 2 .14 3.054 2.053 3.054 2.053 1.777 3.046 4.66 2.165 5.797 1.656.179-1.288.695-2.166 1.265-2.664-4.425-.504-9.077-2.212-9.077-9.846 0-2.175.778-3.952 2.053-5.347-.207-.502-.889-2.529.193-5.273 0 0 1.673-.535 5.48 2.043a19.084 19.084 0 0 1 4.987-.67c1.693.007 3.398.228 4.99.67 3.803-2.578 5.474-2.043 5.474-2.043 1.084 2.744.402 4.77.195 5.273 1.277 1.395 2.05 3.172 2.05 5.347 0 7.652-4.66 9.337-9.096 9.83.714.618 1.35 1.83 1.35 3.69 0 2.665-.022 4.81-.022 5.467 0 .53.358 1.151 1.368.956 7.912-2.638 13.613-10.103 13.613-18.902 0-11.003-8.92-19.923-19.922-19.923Z"/><path d="M32.962 43.424c-.044.1-.2.129-.342.061-.144-.065-.225-.2-.178-.3.042-.101.198-.13.343-.061.145.065.227.2.177.3Zm.98.875c-.095.088-.281.047-.407-.092-.13-.14-.155-.325-.058-.415.098-.087.278-.046.408.093.13.14.156.325.057.414Zm.672 1.118c-.122.085-.322.006-.445-.172-.122-.176-.122-.389.003-.474.123-.085.32-.009.445.167.122.18.122.393-.003.48Zm1.137 1.296c-.11.12-.342.088-.512-.076-.174-.16-.223-.389-.113-.51.11-.12.344-.086.516.077.173.16.226.39.11.51Zm1.47.438c-.048.156-.273.226-.498.16-.225-.068-.373-.25-.328-.408.047-.157.272-.231.5-.16.225.067.372.249.326.408Zm1.672.185c.006.165-.186.3-.423.304-.238.005-.43-.128-.433-.29 0-.166.187-.3.425-.305.237-.004.43.128.43.291Zm1.643-.063c.028.16-.136.325-.372.369-.23.042-.445-.057-.474-.216-.03-.164.139-.329.37-.371.235-.041.446.055.476.218"/></g><path d="M29.308 74.076c-.76 0-1.416-.124-1.968-.372a2.957 2.957 0 0 1-1.272-1.104c-.296-.488-.46-1.08-.492-1.776a47.073 47.073 0 0 1 0-2.208c.032-.68.2-1.256.504-1.728a2.895 2.895 0 0 1 1.284-1.08c.552-.248 1.2-.372 1.944-.372.6 0 1.132.076 1.596.228.464.144.852.34 1.164.588.32.248.56.52.72.816.168.296.256.588.264.876a.196.196 0 0 1-.072.18.244.244 0 0 1-.18.072h-1.752a.466.466 0 0 1-.204-.036.456.456 0 0 1-.108-.132 1.608 1.608 0 0 0-.252-.372 1.249 1.249 0 0 0-.444-.348c-.184-.096-.428-.144-.732-.144-.456 0-.816.12-1.08.36-.256.24-.396.624-.42 1.152a30.284 30.284 0 0 0 0 2.088c.024.56.172.964.444 1.212s.632.372 1.08.372c.304 0 .572-.052.804-.156.24-.104.428-.264.564-.48.136-.224.204-.508.204-.852v-.228h-1.128a.335.335 0 0 1-.228-.084.335.335 0 0 1-.084-.228v-.888c0-.088.028-.16.084-.216a.311.311 0 0 1 .228-.096H32.8c.088 0 .16.032.216.096a.292.292 0 0 1 .084.216V70.8c0 .688-.156 1.276-.468 1.764-.312.488-.756.864-1.332 1.128-.568.256-1.232.384-1.992.384Zm5.337-.12a.292.292 0 0 1-.216-.084.292.292 0 0 1-.084-.216v-5.64c0-.088.028-.16.084-.216a.292.292 0 0 1 .216-.084h1.416c.08 0 .148.028.204.084a.274.274 0 0 1 .096.216v5.64c0 .088-.032.16-.096.216a.278.278 0 0 1-.204.084h-1.416Zm-.012-7.14a.292.292 0 0 1-.216-.084.292.292 0 0 1-.084-.216v-1.068c0-.088.028-.16.084-.216a.274.274 0 0 1 .216-.096h1.428c.088 0 .16.032.216.096a.274.274 0 0 1 .096.216v1.068c0 .088-.032.16-.096.216a.292.292 0 0 1-.216.084h-1.428Zm6.326 7.14c-.512 0-.956-.08-1.332-.24a1.849 1.849 0 0 1-.852-.768c-.2-.352-.3-.804-.3-1.356v-2.304h-.936a.335.335 0 0 1-.228-.084.292.292 0 0 1-.084-.216v-.972c0-.088.028-.16.084-.216a.335.335 0 0 1 .228-.084h.936v-1.98c0-.088.028-.16.084-.216a.32.32 0 0 1 .216-.084h1.392c.088 0 .16.028.216.084a.292.292 0 0 1 .084.216v1.98h1.5c.088 0 .16.028.216.084a.292.292 0 0 1 .084.216v.972c0 .088-.028.16-.084.216a.292.292 0 0 1-.216.084h-1.5v2.136c0 .272.052.488.156.648.104.16.28.24.528.24h.924c.088 0 .16.028.216.084a.292.292 0 0 1 .084.216v1.044c0 .088-.028.16-.084.216a.292.292 0 0 1-.216.084h-1.116Zm2.71 0a.292.292 0 0 1-.217-.084.292.292 0 0 1-.084-.216v-7.92c0-.088.028-.16.084-.216a.292.292 0 0 1 .216-.084h1.536c.088 0 .16.028.216.084a.292.292 0 0 1 .084.216v2.676a2.33 2.33 0 0 1 .792-.588c.32-.152.688-.228 1.104-.228.464 0 .876.104 1.236.312.368.208.656.516.864.924.208.4.312.892.312 1.476v3.348c0 .088-.028.16-.084.216a.292.292 0 0 1-.216.084h-1.548a.32.32 0 0 1-.216-.084.292.292 0 0 1-.084-.216V70.38c0-.376-.092-.664-.276-.864-.176-.208-.44-.312-.792-.312-.328 0-.592.104-.792.312-.2.2-.3.488-.3.864v3.276c0 .088-.028.16-.084.216a.292.292 0 0 1-.216.084h-1.536Zm9.796.12c-.456 0-.864-.104-1.224-.312a2.138 2.138 0 0 1-.828-.912c-.2-.408-.3-.904-.3-1.488v-3.348c0-.088.028-.16.084-.216a.292.292 0 0 1 .216-.084h1.5c.088 0 .16.028.216.084a.292.292 0 0 1 .084.216v3.276c0 .784.352 1.176 1.056 1.176.328 0 .588-.1.78-.3.2-.208.3-.5.3-.876v-3.276c0-.088.028-.16.084-.216a.292.292 0 0 1 .216-.084h1.5c.088 0 .16.028.216.084a.292.292 0 0 1 .084.216v5.64c0 .088-.028.16-.084.216a.292.292 0 0 1-.216.084h-1.392a.32.32 0 0 1-.216-.084.292.292 0 0 1-.084-.216V73.2c-.208.288-.48.508-.816.66-.328.144-.72.216-1.176.216Zm9.211 0c-.448 0-.824-.076-1.128-.228a2.296 2.296 0 0 1-.732-.576v.384c0 .088-.032.16-.096.216a.278.278 0 0 1-.204.084H59.16a.292.292 0 0 1-.216-.084.292.292 0 0 1-.084-.216v-7.92c0-.088.028-.16.084-.216a.292.292 0 0 1 .216-.084h1.464c.088 0 .16.028.216.084a.292.292 0 0 1 .084.216v2.568c.192-.208.432-.376.72-.504a2.45 2.45 0 0 1 1.032-.204c.4 0 .752.068 1.056.204.312.128.576.316.792.564.216.248.384.544.504.888s.188.732.204 1.164a8.035 8.035 0 0 1 0 .84 3.91 3.91 0 0 1-.216 1.2c-.12.344-.288.64-.504.888-.216.24-.476.424-.78.552-.304.12-.656.18-1.056.18Zm-.648-1.608c.272 0 .484-.056.636-.168a.905.905 0 0 0 .324-.456c.072-.192.116-.404.132-.636a5.772 5.772 0 0 0 0-.744 2.243 2.243 0 0 0-.132-.636.905.905 0 0 0-.324-.456c-.152-.112-.364-.168-.636-.168-.248 0-.452.056-.612.168a.968.968 0 0 0-.36.42 1.4 1.4 0 0 0-.132.552 8.451 8.451 0 0 0 0 .9c.008.216.048.416.12.6s.188.336.348.456c.16.112.372.168.636.168Z" fill="#fff"/></g><defs><clipPath id="b"><path fill="#fff" transform="translate(25.5 15.044)" d="M0 0h40v38.912H0z"/></clipPath><filter id="a" x="0" y="0" width="91" height="101" filterUnits="userSpaceOnUse" color-interpolation-filters="sRGB"><feFlood flood-opacity="0" result="BackgroundImageFix"/><feColorMatrix in="SourceAlpha" values="0 0 0 0 0 0 0 0 0 0 0 0 0 0 0 0 0 0 127 0" result="hardAlpha"/><feOffset dy="2"/><feGaussianBlur stdDeviation="4"/><feColorMatrix values="0 0 0 0 0 0 0 0 0 0 0 0 0 0 0 0 0 0 0.75 0"/><feBlend in2="BackgroundImageFix" result="effect1_dropShadow_505_100"/><feBlend in="SourceGraphic" in2="effect1_dropShadow_505_100" result="shape"/></filter></defs></svg>