<svg width="91" height="101" fill="none" xmlns="http://www.w3.org/2000/svg"><g filter="url(#a)"><rect x="8" y="6" width="75" height="85" rx="5" fill="#212529"/><g clip-path="url(#b)"><path d="M30.415 30.027s-.758-.546.151-1.274l2.118-1.891s.606-.637 1.247-.082l19.543 14.778v7.087s-.01 1.112-1.439.99l-21.62-19.608Z" fill="#2489CA"/><path d="m35.267 34.5-5.037 4.574s-.518.385 0 1.072l2.339 2.124s.555.596 1.376-.082l5.34-4.044-4.017-3.644Z" fill="#1070B3"/><path d="m44.296 34.632 9.238-7.045-.06-7.049S53.08 19 51.764 19.8L39.47 30.976l4.826 3.657Z" fill="#0877B9"/><path d="M52.035 49.644c.537.548 1.187.369 1.187.369l7.2-3.544c.921-.627.792-1.406.792-1.406V23.905c0-.93-.954-1.252-.954-1.252l-6.24-3.004c-1.363-.841-2.256.152-2.256.152s1.149-.826 1.71.737v27.977c0 .193-.04.382-.123.552-.164.33-.52.64-1.376.51l.06.067Z" fill="#3C99D4"/></g><path d="M25.74 70.192a.466.466 0 0 1-.324-.108.584.584 0 0 1-.168-.252l-2.448-7.68a.295.295 0 0 1-.024-.108.23.23 0 0 1 .072-.168.264.264 0 0 1 .192-.084h1.488c.128 0 .228.036.3.108.072.072.116.14.132.204l1.692 5.544 1.704-5.544a.674.674 0 0 1 .132-.204.405.405 0 0 1 .3-.108h1.488c.072 0 .132.028.18.084a.216.216 0 0 1 .084.168.295.295 0 0 1-.024.108l-2.448 7.68a.584.584 0 0 1-.168.252c-.072.072-.18.108-.324.108H25.74Zm8.771.12c-.8 0-1.464-.112-1.992-.336-.528-.232-.928-.532-1.2-.9a2.084 2.084 0 0 1-.432-1.176.23.23 0 0 1 .072-.168.264.264 0 0 1 .192-.084h1.512c.112 0 .196.02.252.06a.62.62 0 0 1 .168.156c.064.12.152.236.264.348.12.112.272.204.456.276.192.064.428.096.708.096.464 0 .812-.072 1.044-.216.24-.144.36-.34.36-.588a.548.548 0 0 0-.192-.432c-.128-.12-.336-.224-.624-.312a9.384 9.384 0 0 0-1.128-.288 7.324 7.324 0 0 1-1.56-.492c-.424-.208-.748-.476-.972-.804-.224-.336-.336-.752-.336-1.248 0-.488.136-.924.408-1.308.28-.384.668-.684 1.164-.9.496-.216 1.084-.324 1.764-.324.552 0 1.036.072 1.452.216.424.144.78.336 1.068.576.288.24.504.496.648.768.152.264.232.524.24.78a.272.272 0 0 1-.072.18.244.244 0 0 1-.18.072h-1.584a.504.504 0 0 1-.228-.048.442.442 0 0 1-.168-.156c-.048-.176-.176-.328-.384-.456-.2-.136-.464-.204-.792-.204-.352 0-.628.064-.828.192-.192.12-.288.308-.288.564 0 .16.052.3.156.42.112.12.292.224.54.312.256.088.604.18 1.044.276.728.136 1.316.308 1.764.516.448.2.776.464.984.792.208.32.312.724.312 1.212 0 .544-.156 1.016-.468 1.416-.304.392-.728.692-1.272.9-.544.208-1.168.312-1.872.312Zm7.55 0c-.593 0-1.117-.108-1.573-.324a2.646 2.646 0 0 1-1.092-.936c-.264-.416-.408-.912-.432-1.488a7.93 7.93 0 0 1-.012-.48c0-.2.004-.364.012-.492.024-.584.168-1.08.432-1.488a2.537 2.537 0 0 1 1.08-.948c.464-.216.992-.324 1.584-.324.552 0 1.024.08 1.416.24.392.152.712.344.96.576.248.232.432.472.552.72.128.24.196.452.204.636a.259.259 0 0 1-.084.216.32.32 0 0 1-.216.084h-1.524a.31.31 0 0 1-.204-.06.553.553 0 0 1-.132-.18c-.096-.248-.22-.424-.372-.528-.144-.104-.332-.156-.564-.156-.32 0-.568.104-.744.312-.168.208-.26.528-.276.96-.008.32-.008.604 0 .852.016.44.108.76.276.96.176.2.424.3.744.3.248 0 .444-.052.588-.156.144-.104.26-.28.348-.528.04-.08.084-.14.132-.18a.31.31 0 0 1 .204-.06h1.524c.08 0 .152.032.216.096a.228.228 0 0 1 .084.204 1.613 1.613 0 0 1-.12.48 2.543 2.543 0 0 1-.336.564c-.152.2-.352.388-.6.564-.24.168-.532.304-.876.408a4.159 4.159 0 0 1-1.2.156Zm7.161 0c-.672 0-1.24-.108-1.703-.324a2.434 2.434 0 0 1-1.056-.924c-.24-.408-.377-.892-.409-1.452-.008-.16-.012-.34-.012-.54 0-.208.005-.388.012-.54.032-.568.176-1.052.432-1.452.257-.4.613-.708 1.069-.924.464-.216 1.02-.324 1.667-.324.657 0 1.212.108 1.669.324.464.216.824.524 1.08.924.256.4.4.884.432 1.452.008.152.011.332.011.54 0 .2-.004.38-.011.54-.032.56-.172 1.044-.42 1.452-.24.4-.592.708-1.056.924-.456.216-1.024.324-1.705.324Zm0-1.464c.36 0 .62-.108.78-.324.168-.216.264-.54.288-.972.008-.12.013-.28.013-.48 0-.2-.005-.36-.012-.48-.024-.424-.12-.744-.288-.96-.16-.224-.42-.336-.78-.336-.352 0-.612.112-.78.336-.168.216-.26.536-.276.96a7.57 7.57 0 0 0-.013.48c0 .2.004.36.012.48.017.432.109.756.277.972.168.216.428.324.78.324Zm6.7 1.464c-.383 0-.731-.06-1.043-.18a2.283 2.283 0 0 1-.792-.552 2.678 2.678 0 0 1-.504-.888 4.176 4.176 0 0 1-.204-1.2 8.035 8.035 0 0 1 0-.84c.016-.432.084-.82.204-1.164.12-.344.288-.64.504-.888.216-.248.48-.436.792-.564.312-.136.66-.204 1.044-.204.4 0 .744.068 1.032.204.288.128.532.296.732.504v-2.568c0-.088.028-.16.084-.216a.292.292 0 0 1 .216-.084h1.464c.08 0 .148.028.204.084a.274.274 0 0 1 .096.216v7.92c0 .088-.032.16-.096.216a.278.278 0 0 1-.204.084h-1.356a.292.292 0 0 1-.216-.084.292.292 0 0 1-.084-.216v-.384c-.192.232-.44.424-.744.576-.304.152-.68.228-1.128.228Zm.649-1.608c.272 0 .484-.056.636-.168.16-.12.276-.272.348-.456.08-.184.124-.384.132-.6a9.15 9.15 0 0 0 0-.9 1.4 1.4 0 0 0-.132-.552.968.968 0 0 0-.36-.42c-.16-.112-.368-.168-.624-.168-.264 0-.476.056-.636.168a.905.905 0 0 0-.324.456 2.565 2.565 0 0 0-.12.636 3.853 3.853 0 0 0 0 .744c.016.232.056.444.12.636a.905.905 0 0 0 .324.456c.16.112.372.168.636.168Zm7.474 1.608c-.944 0-1.696-.256-2.256-.768-.56-.512-.852-1.272-.876-2.28v-.42c.024-.632.164-1.172.42-1.62a2.58 2.58 0 0 1 1.08-1.032c.464-.24 1.004-.36 1.62-.36.704 0 1.284.14 1.74.42.464.28.812.66 1.044 1.14.232.48.348 1.028.348 1.644v.288c0 .088-.032.16-.096.216a.278.278 0 0 1-.204.084h-3.84V67.708c.008.232.048.444.12.636a.977.977 0 0 0 .336.456.905.905 0 0 0 .552.168c.16 0 .292-.024.396-.072.112-.056.204-.116.276-.18a2.84 2.84 0 0 0 .168-.18.564.564 0 0 1 .168-.144.501.501 0 0 1 .216-.036h1.488a.26.26 0 0 1 .192.072c.056.04.08.1.072.18-.008.136-.076.3-.204.492a2.527 2.527 0 0 1-.564.576c-.24.184-.544.336-.912.456s-.796.18-1.284.18Zm-1.02-3.876h2.028v-.024c0-.256-.04-.48-.12-.672a.881.881 0 0 0-.348-.444.954.954 0 0 0-.552-.156c-.216 0-.4.052-.552.156a1.01 1.01 0 0 0-.336.444c-.08.192-.12.416-.12.672v.024Z" fill="#fff"/></g><defs><clipPath id="b"><path fill="#fff" transform="translate(29.5 18.808)" d="M0 0h32v31.385H0z"/></clipPath><filter id="a" x="0" y="0" width="91" height="101" filterUnits="userSpaceOnUse" color-interpolation-filters="sRGB"><feFlood flood-opacity="0" result="BackgroundImageFix"/><feColorMatrix in="SourceAlpha" values="0 0 0 0 0 0 0 0 0 0 0 0 0 0 0 0 0 0 127 0" result="hardAlpha"/><feOffset dy="2"/><feGaussianBlur stdDeviation="4"/><feColorMatrix values="0 0 0 0 0 0 0 0 0 0 0 0 0 0 0 0 0 0 0.75 0"/><feBlend in2="BackgroundImageFix" result="effect1_dropShadow_505_68"/><feBlend in="SourceGraphic" in2="effect1_dropShadow_505_68" result="shape"/></filter></defs></svg>