<svg width="91" height="101" fill="none" xmlns="http://www.w3.org/2000/svg"><g filter="url(#a)"><rect x="8" y="6" width="75" height="85" rx="5" fill="#212529"/><path d="M45.469 41.82a3.345 3.345 0 1 0 0-6.69 3.345 3.345 0 0 0 0 6.69Z" fill="#00D8FF"/><path d="M45.469 31.675c4.49 0 8.662.645 11.807 1.727 3.789 1.304 6.12 3.282 6.12 5.073 0 1.865-2.47 3.967-6.54 5.314-3.076 1.02-7.125 1.552-11.387 1.552-4.37 0-8.508-.5-11.62-1.563-3.936-1.345-6.307-3.473-6.307-5.303 0-1.777 2.225-3.739 5.96-5.041 3.158-1.1 7.432-1.759 11.967-1.759Z" stroke="#00D8FF" stroke-width="1.298" stroke-miterlimit="10"/><path d="M39.55 35.095c2.243-3.89 4.886-7.181 7.395-9.365 3.023-2.63 5.9-3.66 7.451-2.767 1.617.932 2.203 4.121 1.338 8.32-.654 3.176-2.215 6.948-4.345 10.642-2.184 3.786-4.684 7.12-7.159 9.285-3.132 2.738-6.16 3.728-7.745 2.814-1.54-.888-2.127-3.795-1.39-7.682.623-3.288 2.189-7.32 4.455-11.247Z" stroke="#00D8FF" stroke-width="1.298" stroke-miterlimit="10"/><path d="M39.555 41.932c-2.25-3.886-3.782-7.82-4.42-11.084-.77-3.933-.226-6.94 1.324-7.837 1.614-.935 4.67.15 7.875 2.996 2.425 2.152 4.913 5.389 7.049 9.078 2.19 3.783 3.83 7.614 4.469 10.839.808 4.081.153 7.2-1.43 8.116-1.538.89-4.35-.052-7.35-2.633-2.534-2.181-5.246-5.55-7.517-9.475Z" stroke="#00D8FF" stroke-width="1.298" stroke-miterlimit="10"/><path d="M29.091 74.5a.292.292 0 0 1-.216-.084.292.292 0 0 1-.084-.216v-7.8c0-.088.028-.16.084-.216a.292.292 0 0 1 .216-.084h3.264c1.032 0 1.844.24 2.436.72.6.472.9 1.144.9 2.016 0 .568-.14 1.048-.42 1.44a2.554 2.554 0 0 1-1.08.888l1.656 2.952a.299.299 0 0 1 .036.132.252.252 0 0 1-.084.18.244.244 0 0 1-.18.072h-1.584c-.152 0-.264-.036-.336-.108a1.02 1.02 0 0 1-.156-.216l-1.368-2.64H30.94V74.2c0 .088-.028.16-.084.216a.292.292 0 0 1-.216.084h-1.548Zm1.848-4.656h1.392c.376 0 .656-.092.84-.276.192-.184.288-.436.288-.756 0-.312-.092-.564-.276-.756-.176-.192-.46-.288-.852-.288H30.94v2.076Zm8.815 4.776c-.944 0-1.696-.256-2.256-.768-.56-.512-.852-1.272-.876-2.28v-.42c.024-.632.164-1.172.42-1.62a2.58 2.58 0 0 1 1.08-1.032c.464-.24 1.004-.36 1.62-.36.704 0 1.284.14 1.74.42.464.28.812.66 1.044 1.14.232.48.348 1.028.348 1.644v.288c0 .088-.032.16-.096.216a.278.278 0 0 1-.204.084h-3.84V72.016c.008.232.048.444.12.636a.977.977 0 0 0 .336.456.905.905 0 0 0 .552.168c.16 0 .292-.024.396-.072.112-.056.204-.116.276-.18a2.84 2.84 0 0 0 .168-.18.564.564 0 0 1 .168-.144.501.501 0 0 1 .216-.036h1.488a.26.26 0 0 1 .192.072c.056.04.08.1.072.18-.008.136-.076.3-.204.492a2.527 2.527 0 0 1-.564.576c-.24.184-.544.336-.912.456s-.796.18-1.284.18Zm-1.02-3.876h2.028v-.024c0-.256-.04-.48-.12-.672a.881.881 0 0 0-.348-.444.954.954 0 0 0-.552-.156c-.216 0-.4.052-.552.156a1.01 1.01 0 0 0-.336.444c-.08.192-.12.416-.12.672v.024Zm7.137 3.876c-.432 0-.82-.08-1.164-.24a2.145 2.145 0 0 1-.804-.672c-.2-.28-.3-.596-.3-.948 0-.568.232-1.016.696-1.344.464-.336 1.08-.564 1.848-.684l1.5-.228v-.168c0-.288-.06-.508-.18-.66-.12-.152-.34-.228-.66-.228-.224 0-.408.044-.552.132a.942.942 0 0 0-.324.36.345.345 0 0 1-.3.156h-1.344c-.088 0-.156-.024-.204-.072a.243.243 0 0 1-.06-.192c0-.144.052-.308.156-.492.112-.192.28-.38.504-.564.224-.184.512-.336.864-.456s.776-.18 1.272-.18c.52 0 .964.06 1.332.18.368.12.664.288.888.504.232.216.404.472.516.768.112.288.168.608.168.96V74.2c0 .088-.032.16-.096.216a.278.278 0 0 1-.204.084h-1.392a.292.292 0 0 1-.216-.084.292.292 0 0 1-.084-.216v-.42a1.742 1.742 0 0 1-.42.42 2.055 2.055 0 0 1-.624.3c-.232.08-.504.12-.816.12Zm.564-1.368c.232 0 .44-.048.624-.144.192-.104.34-.26.444-.468.112-.216.168-.484.168-.804v-.168l-1.02.18c-.376.064-.652.164-.828.3-.168.128-.252.28-.252.456 0 .136.04.252.12.348.08.096.184.172.312.228.128.048.272.072.432.072Zm7.51 1.368c-.592 0-1.116-.108-1.572-.324a2.646 2.646 0 0 1-1.092-.936c-.264-.416-.408-.912-.432-1.488a7.93 7.93 0 0 1-.012-.48c0-.2.004-.364.012-.492.024-.584.168-1.08.432-1.488a2.537 2.537 0 0 1 1.08-.948c.464-.216.992-.324 1.584-.324.552 0 1.024.08 1.416.24.392.152.712.344.96.576.248.232.432.472.552.72.128.24.196.452.204.636a.259.259 0 0 1-.084.216.32.32 0 0 1-.216.084h-1.524a.31.31 0 0 1-.204-.06.553.553 0 0 1-.132-.18c-.096-.248-.22-.424-.372-.528-.144-.104-.332-.156-.564-.156-.32 0-.568.104-.744.312-.168.208-.26.528-.276.96-.008.32-.008.604 0 .852.016.44.108.76.276.96.176.2.424.3.744.3.248 0 .444-.052.588-.156.144-.104.26-.28.348-.528.04-.08.084-.14.132-.18a.31.31 0 0 1 .204-.06h1.524c.08 0 .152.032.216.096a.228.228 0 0 1 .084.204 1.613 1.613 0 0 1-.12.48 2.543 2.543 0 0 1-.336.564c-.152.2-.352.388-.6.564-.24.168-.532.304-.876.408a4.159 4.159 0 0 1-1.2.156Zm7.402-.12c-.512 0-.956-.08-1.332-.24a1.849 1.849 0 0 1-.852-.768c-.2-.352-.3-.804-.3-1.356v-2.304h-.936a.335.335 0 0 1-.228-.084.292.292 0 0 1-.084-.216v-.972c0-.088.028-.16.084-.216a.335.335 0 0 1 .228-.084h.936v-1.98c0-.088.028-.16.084-.216a.32.32 0 0 1 .216-.084h1.392c.088 0 .16.028.216.084a.292.292 0 0 1 .084.216v1.98h1.5c.088 0 .16.028.216.084a.292.292 0 0 1 .084.216v.972c0 .088-.028.16-.084.216a.292.292 0 0 1-.216.084h-1.5v2.136c0 .272.052.488.156.648.104.16.28.24.528.24h.924c.088 0 .16.028.216.084a.292.292 0 0 1 .084.216V74.2c0 .088-.028.16-.084.216a.292.292 0 0 1-.216.084h-1.116Z" fill="#fff"/></g><defs><filter id="a" x="0" y="0" width="91" height="101" filterUnits="userSpaceOnUse" color-interpolation-filters="sRGB"><feFlood flood-opacity="0" result="BackgroundImageFix"/><feColorMatrix in="SourceAlpha" values="0 0 0 0 0 0 0 0 0 0 0 0 0 0 0 0 0 0 127 0" result="hardAlpha"/><feOffset dy="2"/><feGaussianBlur stdDeviation="4"/><feColorMatrix values="0 0 0 0 0 0 0 0 0 0 0 0 0 0 0 0 0 0 0.75 0"/><feBlend in2="BackgroundImageFix" result="effect1_dropShadow_505_486"/><feBlend in="SourceGraphic" in2="effect1_dropShadow_505_486" result="shape"/></filter></defs></svg>