<svg width="91" height="101" fill="none" xmlns="http://www.w3.org/2000/svg"><g filter="url(#a)"><rect x="8" y="6" width="75" height="85" rx="5" fill="#212529"/><g clip-path="url(#b)"><path d="M59.922 39.734a8.24 8.24 0 0 0-3.625.844c-.375-.742-.75-1.39-.813-1.875-.07-.562-.156-.906-.07-1.578s.476-1.625.476-1.703c-.008-.07-.086-.414-.89-.422-.805-.008-1.5.156-1.578.367-.078.211-.235.696-.336 1.196-.14.734-1.61 3.335-2.446 4.703-.273-.532-.507-1-.554-1.375-.07-.563-.157-.907-.07-1.578.085-.672.476-1.626.476-1.704-.008-.07-.086-.414-.89-.422-.805-.007-1.5.157-1.579.368-.078.21-.164.71-.336 1.195-.164.484-2.117 4.828-2.625 5.96-.258.58-.484 1.04-.648 1.352-.164.313-.008.024-.024.055l-.218.414v.008c-.11.195-.227.383-.282.383-.039 0-.117-.524.016-1.242.289-1.508.992-3.86.984-3.946 0-.039.133-.453-.453-.664-.57-.21-.773.141-.82.141-.047 0-.086.125-.086.125s.633-2.648-1.211-2.648c-1.156 0-2.75 1.258-3.54 2.406-.5.273-1.562.851-2.687 1.469-.43.234-.875.484-1.296.71l-.086-.093c-2.235-2.383-6.367-4.07-6.196-7.274.063-1.164.47-4.234 7.938-7.953 6.117-3.047 11.016-2.21 11.867-.351 1.211 2.656-2.617 7.593-8.976 8.304-2.422.274-3.696-.664-4.016-1.015-.336-.368-.383-.383-.508-.313-.203.11-.078.438 0 .633.188.492.969 1.367 2.297 1.805 1.164.382 4.008.593 7.445-.735 3.852-1.492 6.86-5.633 5.977-9.093-.898-3.524-6.742-4.68-12.266-2.72-3.289 1.173-6.851 3-9.414 5.4-3.047 2.843-3.531 5.327-3.328 6.359.711 3.68 5.781 6.078 7.813 7.851-.102.055-.196.11-.282.156-1.015.5-4.883 2.524-5.851 4.664-1.094 2.422.172 4.164 1.015 4.399 2.61.726 5.282-.578 6.727-2.727 1.437-2.148 1.265-4.937.601-6.21l-.023-.047.797-.47a47.86 47.86 0 0 1 1.469-.828c-.25.68-.43 1.485-.524 2.657-.11 1.375.453 3.156 1.195 3.86.329.304.72.312.961.312.86 0 1.25-.711 1.68-1.563.531-1.039 1-2.242 1-2.242s-.586 3.258 1.016 3.258c.586 0 1.172-.758 1.437-1.149v.008s.016-.023.047-.078c.033-.048.064-.098.094-.148v-.016a61.9 61.9 0 0 0 1.539-2.875c1.008-1.984 1.977-4.469 1.977-4.469s.093.61.382 1.61c.172.593.547 1.242.836 1.875-.234.328-.375.515-.375.515l.008.008c-.187.25-.398.516-.617.781-.797.954-1.75 2.04-1.875 2.352-.149.367-.117.64.172.86.21.156.586.187.984.156a4.383 4.383 0 0 0 1.469-.336c.39-.14.836-.352 1.265-.664.782-.578 1.258-1.399 1.211-2.492-.023-.602-.218-1.196-.46-1.758.07-.102.14-.203.21-.313 1.235-1.805 2.188-3.789 2.188-3.789s.094.61.383 1.61c.148.507.445 1.062.71 1.609-1.156.945-1.882 2.039-2.132 2.758-.461 1.328-.102 1.93.578 2.07.305.063.742-.078 1.07-.219.407-.133.899-.36 1.352-.695.781-.578 1.531-1.383 1.492-2.469-.023-.5-.156-.992-.336-1.46.984-.407 2.258-.641 3.875-.446 3.477.406 4.164 2.578 4.032 3.484-.133.907-.86 1.407-1.102 1.563-.242.148-.32.203-.297.312.031.165.14.157.352.126.289-.047 1.828-.743 1.89-2.415.094-2.148-1.945-4.492-5.562-4.469Zm-26.813 9.04c-1.148 1.257-2.766 1.734-3.453 1.328-.742-.43-.453-2.282.96-3.618.86-.812 1.977-1.562 2.712-2.023.164-.102.414-.25.71-.43.048-.03.079-.047.079-.047.055-.03.117-.07.18-.109.523 1.906.023 3.578-1.188 4.898Zm8.399-5.712c-.399.977-1.243 3.485-1.75 3.344-.438-.117-.704-2.015-.086-3.89.312-.946.976-2.07 1.367-2.508.633-.703 1.32-.938 1.492-.649.203.375-.773 3.094-1.023 3.703Zm6.93 3.313c-.173.086-.329.148-.4.102-.054-.032.071-.149.071-.149s.867-.93 1.211-1.36c.195-.25.43-.538.68-.866v.093c0 1.125-1.078 1.875-1.563 2.18Zm5.343-1.219c-.125-.093-.11-.383.312-1.289.165-.36.54-.96 1.188-1.531.078.234.125.46.117.672-.008 1.406-1.008 1.93-1.617 2.148Z" fill="#CF649A"/></g><path d="M35.328 70.62c-.8 0-1.465-.112-1.992-.336-.529-.232-.928-.532-1.2-.9a2.084 2.084 0 0 1-.433-1.176.23.23 0 0 1 .073-.168.264.264 0 0 1 .192-.084h1.512c.112 0 .196.02.252.06a.62.62 0 0 1 .168.156c.064.12.151.236.264.348.12.112.271.204.456.276.192.064.428.096.708.096.463 0 .811-.072 1.043-.216.24-.144.36-.34.36-.588a.548.548 0 0 0-.192-.432c-.128-.12-.336-.224-.623-.312a9.384 9.384 0 0 0-1.128-.288 7.324 7.324 0 0 1-1.56-.492c-.425-.208-.748-.476-.973-.804-.224-.336-.336-.752-.336-1.248 0-.488.137-.924.409-1.308.28-.384.667-.684 1.163-.9.496-.216 1.084-.324 1.764-.324.552 0 1.036.072 1.453.216.424.144.78.336 1.068.576.287.24.503.496.647.768.152.264.233.524.24.78a.272.272 0 0 1-.071.18.244.244 0 0 1-.18.072h-1.584a.504.504 0 0 1-.229-.048.442.442 0 0 1-.167-.156c-.049-.176-.177-.328-.385-.456-.2-.136-.463-.204-.791-.204-.352 0-.629.064-.828.192-.192.12-.288.308-.288.564 0 .16.051.3.155.42.112.12.292.224.54.312.257.088.605.18 1.044.276.729.136 1.317.308 1.765.516.448.2.776.464.983.792.209.32.313.724.313 1.212 0 .544-.157 1.016-.468 1.416-.305.392-.729.692-1.273.9-.543.208-1.167.312-1.871.312Zm6.553 0c-.432 0-.82-.08-1.164-.24a2.145 2.145 0 0 1-.804-.672c-.2-.28-.3-.596-.3-.948 0-.568.232-1.016.696-1.344.464-.336 1.08-.564 1.848-.684l1.5-.228v-.168c0-.288-.06-.508-.18-.66-.12-.152-.34-.228-.66-.228-.224 0-.408.044-.552.132a.942.942 0 0 0-.324.36.345.345 0 0 1-.3.156h-1.344c-.088 0-.156-.024-.204-.072a.243.243 0 0 1-.06-.192c0-.144.052-.308.156-.492.112-.192.28-.38.504-.564.224-.184.512-.336.864-.456s.776-.18 1.272-.18c.52 0 .964.06 1.332.18.368.12.664.288.888.504.232.216.404.472.516.768.112.288.168.608.168.96V70.2c0 .088-.032.16-.096.216a.278.278 0 0 1-.204.084H44.04a.292.292 0 0 1-.216-.084.292.292 0 0 1-.084-.216v-.42a1.742 1.742 0 0 1-.42.42 2.055 2.055 0 0 1-.624.3c-.232.08-.504.12-.816.12Zm.564-1.368c.232 0 .44-.048.624-.144.192-.104.34-.26.444-.468.112-.216.168-.484.168-.804v-.168l-1.02.18c-.376.064-.652.164-.828.3-.168.128-.252.28-.252.456 0 .136.04.252.12.348.08.096.184.172.312.228.128.048.272.072.432.072Zm7.21 1.368c-.52 0-.964-.056-1.332-.168a3.28 3.28 0 0 1-.888-.432 2.028 2.028 0 0 1-.504-.516c-.112-.184-.172-.34-.18-.468a.242.242 0 0 1 .084-.216.287.287 0 0 1 .204-.096h1.368c.024 0 .044.004.06.012s.04.024.072.048c.104.056.208.128.312.216.104.08.224.152.36.216.136.064.3.096.492.096.224 0 .412-.044.564-.132a.43.43 0 0 0 .228-.396.449.449 0 0 0-.108-.312c-.072-.088-.22-.172-.444-.252-.216-.08-.544-.16-.984-.24a5.128 5.128 0 0 1-1.092-.372 1.884 1.884 0 0 1-.72-.612c-.168-.256-.252-.564-.252-.924 0-.32.104-.628.312-.924.208-.296.512-.536.912-.72.4-.192.892-.288 1.476-.288.464 0 .864.056 1.2.168.344.104.632.24.864.408.24.168.42.34.54.516.12.176.184.336.192.48a.275.275 0 0 1-.072.216.264.264 0 0 1-.192.084h-1.248a.395.395 0 0 1-.096-.012.785.785 0 0 1-.084-.048 1.503 1.503 0 0 1-.288-.192 1.733 1.733 0 0 0-.336-.216 1.069 1.069 0 0 0-.48-.096c-.216 0-.384.048-.504.144a.48.48 0 0 0-.084.66c.072.088.212.168.42.24.216.072.548.152.996.24.552.088.992.232 1.32.432.328.192.56.42.696.684.136.256.204.528.204.816 0 .384-.116.724-.348 1.02-.224.296-.56.528-1.008.696-.448.16-.992.24-1.632.24Zm6.633 0c-.52 0-.964-.056-1.332-.168a3.28 3.28 0 0 1-.888-.432 2.028 2.028 0 0 1-.504-.516c-.112-.184-.172-.34-.18-.468a.242.242 0 0 1 .084-.216.287.287 0 0 1 .204-.096h1.368c.024 0 .044.004.06.012s.04.024.072.048c.104.056.208.128.312.216.104.08.224.152.36.216.136.064.3.096.492.096.224 0 .412-.044.564-.132a.43.43 0 0 0 .228-.396.449.449 0 0 0-.108-.312c-.072-.088-.22-.172-.444-.252-.216-.08-.544-.16-.984-.24a5.128 5.128 0 0 1-1.092-.372 1.884 1.884 0 0 1-.72-.612c-.168-.256-.252-.564-.252-.924 0-.32.104-.628.312-.924.208-.296.512-.536.912-.72.4-.192.892-.288 1.476-.288.464 0 .864.056 1.2.168.344.104.632.24.864.408.24.168.42.34.54.516.12.176.184.336.192.48a.275.275 0 0 1-.072.216.264.264 0 0 1-.192.084h-1.248a.395.395 0 0 1-.096-.012.785.785 0 0 1-.084-.048 1.503 1.503 0 0 1-.288-.192 1.733 1.733 0 0 0-.336-.216 1.069 1.069 0 0 0-.48-.096c-.216 0-.384.048-.504.144a.48.48 0 0 0-.084.66c.072.088.212.168.42.24.216.072.548.152.996.24.552.088.992.232 1.32.432.328.192.56.42.696.684.136.256.204.528.204.816 0 .384-.116.724-.348 1.02-.224.296-.56.528-1.008.696-.448.16-.992.24-1.632.24Z" fill="#fff"/></g><defs><clipPath id="b"><path fill="#fff" transform="translate(25.5 22.5)" d="M0 0h40v30H0z"/></clipPath><filter id="a" x="0" y="0" width="91" height="101" filterUnits="userSpaceOnUse" color-interpolation-filters="sRGB"><feFlood flood-opacity="0" result="BackgroundImageFix"/><feColorMatrix in="SourceAlpha" values="0 0 0 0 0 0 0 0 0 0 0 0 0 0 0 0 0 0 127 0" result="hardAlpha"/><feOffset dy="2"/><feGaussianBlur stdDeviation="4"/><feColorMatrix values="0 0 0 0 0 0 0 0 0 0 0 0 0 0 0 0 0 0 0.75 0"/><feBlend in2="BackgroundImageFix" result="effect1_dropShadow_505_1137"/><feBlend in="SourceGraphic" in2="effect1_dropShadow_505_1137" result="shape"/></filter></defs></svg>