<svg width="91" height="101" viewBox="0 0 91 101" fill="none" xmlns="http://www.w3.org/2000/svg">
<g filter="url(#filter0_d_16_280)">
<path d="M78 6H13C10.2386 6 8 8.23858 8 11V86C8 88.7614 10.2386 91 13 91H78C80.7614 91 83 88.7614 83 86V11C83 8.23858 80.7614 6 78 6Z" fill="#212529"/>
<g clip-path="url(#clip0_16_280)">
<path d="M44.2094 24H49.4123V47.9673C46.7473 48.474 44.7854 48.6733 42.6626 48.6733C36.3079 48.6667 33 45.8133 33 40.3333C33 35.0534 36.5088 31.6266 41.9461 31.6266C42.7898 31.6266 43.4326 31.6934 44.2094 31.8933V24ZM44.3917 36.2125C43.7823 36.0125 43.2802 35.9458 42.6373 35.9458C40.0058 35.9458 38.4857 37.5591 38.4857 40.3864C38.4857 43.1392 39.9389 44.6591 42.6039 44.6591C43.1797 44.6591 43.6484 44.6265 44.3917 44.5265V36.2125Z" fill="#2BA977"/>
<path d="M57.9209 32.2701V44.2702C57.9209 48.4028 57.6129 50.3902 56.7089 52.1036C55.8651 53.7508 54.7536 54.7896 52.4568 55.9368L47.6289 53.6502C49.9257 52.5775 51.0372 51.6295 51.7471 50.1829C52.4902 48.7036 52.7246 46.9902 52.7246 42.4835V32.2702L57.9209 32.2701ZM52.2003 24H57.4032V29.3134H52.2003V24Z" fill="#2BA977"/>
</g>
</g>
<path d="M30.893 63.089C31.707 63.089 32.4183 63.2503 33.027 63.573C33.6357 63.8957 34.105 64.3503 34.435 64.937C34.7723 65.5163 34.941 66.1873 34.941 66.95C34.941 67.7053 34.7723 68.3763 34.435 68.963C34.105 69.5497 33.632 70.0043 33.016 70.327C32.4073 70.6497 31.6997 70.811 30.893 70.811H28V63.089H30.893ZM30.772 69.183C31.4833 69.183 32.037 68.9887 32.433 68.6C32.829 68.2113 33.027 67.6613 33.027 66.95C33.027 66.2387 32.829 65.685 32.433 65.289C32.037 64.893 31.4833 64.695 30.772 64.695H29.881V69.183H30.772Z" fill="white"/>
<path d="M36.9272 64.035C36.5972 64.035 36.3259 63.9397 36.1132 63.749C35.9079 63.551 35.8052 63.309 35.8052 63.023C35.8052 62.7297 35.9079 62.4877 36.1132 62.297C36.3259 62.099 36.5972 62 36.9272 62C37.2499 62 37.5139 62.099 37.7192 62.297C37.9319 62.4877 38.0382 62.7297 38.0382 63.023C38.0382 63.309 37.9319 63.551 37.7192 63.749C37.5139 63.9397 37.2499 64.035 36.9272 64.035ZM37.8732 71.603C37.8732 72.3583 37.6825 72.901 37.3012 73.231C36.9199 73.5683 36.3882 73.737 35.7062 73.737H34.9692V72.142H35.4202C35.6255 72.142 35.7722 72.1017 35.8602 72.021C35.9482 71.9403 35.9922 71.8083 35.9922 71.625V64.673H37.8732V71.603Z" fill="white"/>
<path d="M38.8516 67.731C38.8516 67.1003 38.9689 66.5467 39.2036 66.07C39.4456 65.5933 39.7719 65.2267 40.1826 64.97C40.5933 64.7133 41.0516 64.585 41.5576 64.585C41.9903 64.585 42.3679 64.673 42.6906 64.849C43.0206 65.025 43.2736 65.256 43.4496 65.542V64.673H45.3306V70.811H43.4496V69.942C43.2663 70.228 43.0096 70.459 42.6796 70.635C42.3569 70.811 41.9793 70.899 41.5466 70.899C41.0479 70.899 40.5933 70.7707 40.1826 70.514C39.7719 70.25 39.4456 69.8797 39.2036 69.403C38.9689 68.919 38.8516 68.3617 38.8516 67.731ZM43.4496 67.742C43.4496 67.2727 43.3176 66.9023 43.0536 66.631C42.7969 66.3597 42.4816 66.224 42.1076 66.224C41.7336 66.224 41.4146 66.3597 41.1506 66.631C40.8939 66.895 40.7656 67.2617 40.7656 67.731C40.7656 68.2003 40.8939 68.5743 41.1506 68.853C41.4146 69.1243 41.7336 69.26 42.1076 69.26C42.4816 69.26 42.7969 69.1243 43.0536 68.853C43.3176 68.5817 43.4496 68.2113 43.4496 67.742Z" fill="white"/>
<path d="M50.4314 64.607C51.1501 64.607 51.7221 64.8417 52.1474 65.311C52.5801 65.773 52.7964 66.411 52.7964 67.225V70.811H50.9264V67.478C50.9264 67.0673 50.8201 66.7483 50.6074 66.521C50.3947 66.2937 50.1087 66.18 49.7494 66.18C49.3901 66.18 49.1041 66.2937 48.8914 66.521C48.6787 66.7483 48.5724 67.0673 48.5724 67.478V70.811H46.6914V64.673H48.5724V65.487C48.7631 65.2157 49.0197 65.003 49.3424 64.849C49.6651 64.6877 50.0281 64.607 50.4314 64.607Z" fill="white"/>
<path d="M56.4355 64.585C56.8682 64.585 57.2458 64.673 57.5685 64.849C57.8985 65.025 58.1515 65.256 58.3275 65.542V64.673H60.2085V70.8C60.2085 71.3647 60.0948 71.8743 59.8675 72.329C59.6475 72.791 59.3065 73.1577 58.8445 73.429C58.3899 73.7003 57.8215 73.836 57.1395 73.836C56.2302 73.836 55.4932 73.6197 54.9285 73.187C54.3638 72.7617 54.0412 72.1823 53.9605 71.449H55.8195C55.8782 71.6837 56.0175 71.867 56.2375 71.999C56.4575 72.1383 56.7289 72.208 57.0515 72.208C57.4402 72.208 57.7482 72.0943 57.9755 71.867C58.2102 71.647 58.3275 71.2913 58.3275 70.8V69.931C58.1442 70.217 57.8912 70.4517 57.5685 70.635C57.2458 70.811 56.8682 70.899 56.4355 70.899C55.9295 70.899 55.4712 70.7707 55.0605 70.514C54.6498 70.25 54.3235 69.8797 54.0815 69.403C53.8468 68.919 53.7295 68.3617 53.7295 67.731C53.7295 67.1003 53.8468 66.5467 54.0815 66.07C54.3235 65.5933 54.6498 65.2267 55.0605 64.97C55.4712 64.7133 55.9295 64.585 56.4355 64.585ZM58.3275 67.742C58.3275 67.2727 58.1955 66.9023 57.9315 66.631C57.6749 66.3597 57.3595 66.224 56.9855 66.224C56.6115 66.224 56.2925 66.3597 56.0285 66.631C55.7719 66.895 55.6435 67.2617 55.6435 67.731C55.6435 68.2003 55.7719 68.5743 56.0285 68.853C56.2925 69.1243 56.6115 69.26 56.9855 69.26C57.3595 69.26 57.6749 69.1243 57.9315 68.853C58.1955 68.5817 58.3275 68.2113 58.3275 67.742Z" fill="white"/>
<path d="M64.3633 70.899C63.762 70.899 63.2193 70.7707 62.7353 70.514C62.2587 70.2573 61.881 69.8907 61.6023 69.414C61.331 68.9373 61.1953 68.38 61.1953 67.742C61.1953 67.1113 61.3347 66.5577 61.6133 66.081C61.892 65.597 62.2733 65.2267 62.7573 64.97C63.2413 64.7133 63.784 64.585 64.3853 64.585C64.9867 64.585 65.5293 64.7133 66.0133 64.97C66.4973 65.2267 66.8787 65.597 67.1573 66.081C67.436 66.5577 67.5753 67.1113 67.5753 67.742C67.5753 68.3727 67.4323 68.93 67.1463 69.414C66.8677 69.8907 66.4827 70.2573 65.9913 70.514C65.5073 70.7707 64.9647 70.899 64.3633 70.899ZM64.3633 69.271C64.7227 69.271 65.027 69.139 65.2763 68.875C65.533 68.611 65.6613 68.2333 65.6613 67.742C65.6613 67.2507 65.5367 66.873 65.2873 66.609C65.0453 66.345 64.7447 66.213 64.3853 66.213C64.0187 66.213 63.7143 66.345 63.4723 66.609C63.2303 66.8657 63.1093 67.2433 63.1093 67.742C63.1093 68.2333 63.2267 68.611 63.4613 68.875C63.7033 69.139 64.004 69.271 64.3633 69.271Z" fill="white"/>
<defs>
<filter id="filter0_d_16_280" x="0" y="0" width="91" height="101" filterUnits="userSpaceOnUse" color-interpolation-filters="sRGB">
<feFlood flood-opacity="0" result="BackgroundImageFix"/>
<feColorMatrix in="SourceAlpha" type="matrix" values="0 0 0 0 0 0 0 0 0 0 0 0 0 0 0 0 0 0 127 0" result="hardAlpha"/>
<feOffset dy="2"/>
<feGaussianBlur stdDeviation="4"/>
<feColorMatrix type="matrix" values="0 0 0 0 0 0 0 0 0 0 0 0 0 0 0 0 0 0 0.75 0"/>
<feBlend mode="normal" in2="BackgroundImageFix" result="effect1_dropShadow_16_280"/>
<feBlend mode="normal" in="SourceGraphic" in2="effect1_dropShadow_16_280" result="shape"/>
</filter>
<clipPath id="clip0_16_280">
<rect width="25" height="32" fill="white" transform="translate(33 24)"/>
</clipPath>
</defs>
</svg>
