
<svg width="91" height="101" fill="none" xmlns="http://www.w3.org/2000/svg"><g filter="url(#a)"><rect x="8" y="6" width="75" height="85" rx="5" fill="#212529"/><g clip-path="url(#b)"><path d="M64.741 42.45c-.232-.704-.841-1.195-1.63-1.313-.37-.055-.796-.032-1.3.072-.877.181-1.528.25-2.003.264 1.793-3.028 3.252-6.48 4.091-9.73 1.357-5.256.632-7.65-.216-8.733-2.243-2.867-5.516-4.407-9.464-4.454-2.106-.025-3.956.39-4.92.69a18.307 18.307 0 0 0-2.877-.264c-1.9-.03-3.578.384-5.011 1.235a22.848 22.848 0 0 0-3.54-.889c-3.46-.568-6.25-.125-8.29 1.316-2.47 1.745-3.615 4.777-3.403 9.012.067 1.344.819 5.434 2.003 9.314.68 2.23 1.406 4.081 2.157 5.504 1.065 2.017 2.204 3.205 3.483 3.631.716.24 2.019.407 3.388-.734.174.21.405.419.713.613.39.246.868.447 1.345.566 1.718.43 3.327.323 4.7-.28l.02.68c.01.326.019.647.03.947.082 2.026.22 3.601.628 4.703.023.061.053.153.085.251.204.624.544 1.669 1.411 2.487.898.847 1.983 1.107 2.978 1.107.499 0 .974-.066 1.392-.155 1.488-.319 3.177-.805 4.4-2.545 1.155-1.645 1.717-4.123 1.819-8.028l.037-.316.024-.207.272.024.07.005c1.516.069 3.368-.252 4.506-.78.9-.418 3.78-1.94 3.102-3.993" fill="#000"/><path d="M62.15 42.85c-4.505.929-4.815-.597-4.815-.597 4.757-7.058 6.746-16.019 5.03-18.212-4.682-5.982-12.787-3.152-12.922-3.08l-.043.009a16.069 16.069 0 0 0-3.006-.313c-2.039-.034-3.585.534-4.759 1.424 0 0-14.458-5.956-13.785 7.49.143 2.861 4.1 21.646 8.82 15.972a87.13 87.13 0 0 1 3.392-3.829c.828.55 1.819.83 2.858.73l.08-.068c-.025.257-.013.51.033.807-1.216 1.359-.859 1.597-3.29 2.098-2.459.507-1.014 1.409-.07 1.645 1.143.286 3.789.691 5.576-1.812l-.07.286c.476.382.81 2.482.754 4.386-.056 1.904-.093 3.212.282 4.233.375 1.02.75 3.318 3.945 2.634 2.67-.573 4.054-2.055 4.246-4.529.136-1.758.446-1.498.465-3.07l.248-.744c.286-2.384.046-3.153 1.69-2.795l.4.035c1.21.055 2.796-.195 3.726-.627 2.002-.93 3.19-2.481 1.215-2.074" fill="#336791"/><path d="M42.482 30.85c-.407-.056-.774-.003-.96.138a.352.352 0 0 0-.146.234c-.023.167.094.352.166.448.204.27.502.456.797.497a.916.916 0 0 0 .127.008c.492 0 .939-.382.978-.665.05-.354-.464-.59-.962-.659Zm13.45.012c-.038-.277-.532-.356-1-.291-.468.065-.922.276-.884.554.03.216.42.585.883.585.039 0 .078-.002.118-.008.308-.043.535-.238.642-.351.164-.172.259-.364.241-.489" fill="#fff"/><path d="M63.65 42.744c-.172-.52-.725-.687-1.643-.497-2.728.563-3.705.173-4.026-.063 2.12-3.23 3.865-7.135 4.806-10.777.446-1.726.692-3.329.712-4.635.022-1.433-.222-2.487-.726-3.13-2.03-2.595-5.01-3.987-8.617-4.025-2.48-.028-4.575.607-4.982.785a12.416 12.416 0 0 0-2.803-.36c-1.861-.03-3.47.416-4.803 1.324a21.436 21.436 0 0 0-3.903-1.023c-3.162-.51-5.675-.123-7.468 1.147-2.14 1.516-3.128 4.226-2.936 8.054.064 1.288.798 5.25 1.956 9.044 1.524 4.994 3.181 7.821 4.925 8.403.204.068.44.115.699.115.636 0 1.416-.286 2.227-1.262a80.317 80.317 0 0 1 3.07-3.473 4.946 4.946 0 0 0 2.208.594l.005.06c-.133.158-.262.319-.39.481-.533.678-.644.819-2.361 1.172-.489.101-1.787.369-1.806 1.278-.02.994 1.534 1.411 1.711 1.456.617.154 1.212.23 1.78.23 1.378 0 2.592-.453 3.562-1.33-.03 3.543.118 7.034.543 8.098.349.87 1.2 2.999 3.888 2.999.395 0 .829-.046 1.307-.149 2.806-.601 4.024-1.841 4.495-4.575.253-1.462.686-4.95.89-6.822.429.134.982.195 1.58.195 1.247 0 2.686-.265 3.589-.684 1.014-.47 2.843-1.626 2.511-2.63Zm-6.682-12.647c-.01.552-.085 1.054-.166 1.577-.087.563-.176 1.146-.199 1.852-.022.688.064 1.403.147 2.095.168 1.397.34 2.835-.327 4.254-.11-.196-.21-.4-.295-.608-.083-.2-.263-.523-.512-.97-.97-1.738-3.24-5.81-2.078-7.471.346-.495 1.225-1.003 3.43-.73Zm-2.673-9.361c3.232.071 5.789 1.28 7.599 3.593 1.388 1.775-.14 9.848-4.566 16.812l-.134-.169-.056-.07c1.143-1.889.92-3.757.72-5.414-.081-.68-.159-1.322-.139-1.926.02-.639.105-1.187.187-1.718.1-.653.203-1.33.174-2.126a.882.882 0 0 0 .019-.3c-.072-.764-.945-3.052-2.723-5.122-.973-1.133-2.392-2.4-4.33-3.255a14.594 14.594 0 0 1 3.25-.305ZM36.21 45.13c-.894 1.075-1.51.87-1.714.802-1.322-.442-2.857-3.237-4.21-7.67-1.17-3.836-1.855-7.693-1.91-8.774-.17-3.42.659-5.805 2.465-7.086 2.94-2.084 7.773-.837 9.715-.204-.028.028-.057.053-.084.082-3.187 3.218-3.112 8.717-3.104 9.053 0 .13.01.313.026.566.054.925.157 2.646-.116 4.596-.253 1.811.305 3.584 1.532 4.864.126.131.258.256.396.374a82 82 0 0 0-2.996 3.398Zm3.406-4.543c-.989-1.032-1.438-2.467-1.232-3.938.287-2.06.181-3.853.124-4.816-.008-.135-.015-.253-.019-.346.465-.413 2.623-1.57 4.162-1.216.702.16 1.13.638 1.308 1.46.92 4.258.121 6.033-.52 7.459a13.76 13.76 0 0 0-.364.859l-.083.222c-.21.561-.404 1.083-.525 1.579-1.051-.003-2.074-.452-2.851-1.264Zm.161 5.741a2.465 2.465 0 0 1-.745-.32c.136-.064.376-.15.794-.236 2.02-.416 2.332-.71 3.014-1.575.156-.198.333-.423.578-.697.366-.41.533-.34.836-.214.246.101.485.409.582.748.046.16.097.463-.071.7-1.424 1.993-3.498 1.967-4.988 1.594Zm10.575 9.84c-2.472.53-3.347-.73-3.924-2.173-.372-.93-.555-5.128-.425-9.764a.557.557 0 0 0-.025-.177 2.348 2.348 0 0 0-.069-.327c-.193-.675-.663-1.239-1.227-1.473-.225-.093-.636-.263-1.13-.137.105-.434.288-.925.486-1.456l.083-.224c.094-.252.211-.513.336-.789.671-1.492 1.59-3.536.593-8.152-.374-1.73-1.623-2.574-3.516-2.378-1.134.118-2.173.576-2.69.838-.112.056-.214.111-.309.164.145-1.742.69-4.998 2.733-7.058 1.286-1.297 3-1.938 5.086-1.903 4.111.067 6.748 2.177 8.236 3.936 1.283 1.515 1.977 3.041 2.254 3.864-2.084-.212-3.501.2-4.22 1.227-1.563 2.234.855 6.57 2.018 8.655.213.382.397.712.455.852.378.918.868 1.53 1.226 1.977.11.137.216.27.297.386-.632.182-1.765.602-1.662 2.704-.083 1.054-.676 5.99-.977 7.735-.397 2.304-1.245 3.163-3.63 3.674Zm10.318-11.807c-.646.3-1.726.525-2.752.573-1.133.053-1.71-.127-1.846-.238-.063-1.31.424-1.446.94-1.591.08-.023.16-.045.236-.072.048.039.1.077.157.115.91.601 2.535.666 4.829.192l.025-.005c-.31.29-.839.678-1.59 1.026Z" fill="#fff"/></g><path d="M16.723 73.5a.244.244 0 0 1-.18-.07.244.244 0 0 1-.07-.18v-6.5c0-.073.024-.133.07-.18a.244.244 0 0 1 .18-.07h2.8c.554 0 1.034.087 1.44.26.414.167.734.42.96.76.234.34.35.77.35 1.29 0 .513-.116.937-.35 1.27-.226.333-.546.58-.96.74-.406.16-.886.24-1.44.24h-1.19v2.19a.228.228 0 0 1-.08.18.243.243 0 0 1-.18.07h-1.35Zm1.58-3.82h1.17c.287 0 .514-.073.68-.22.174-.147.26-.37.26-.67a.957.957 0 0 0-.22-.64c-.146-.173-.386-.26-.72-.26h-1.17v1.79Zm7.22 3.92c-.56 0-1.034-.09-1.42-.27a2.028 2.028 0 0 1-.88-.77c-.2-.34-.314-.743-.34-1.21a9.05 9.05 0 0 1 0-.9c.026-.473.146-.877.36-1.21.213-.333.51-.59.89-.77.386-.18.85-.27 1.39-.27.546 0 1.01.09 1.39.27.386.18.686.437.9.77.213.333.333.737.36 1.21a9.173 9.173 0 0 1 0 .9c-.027.467-.144.87-.35 1.21-.2.333-.494.59-.88.77-.38.18-.854.27-1.42.27Zm0-1.22c.3 0 .516-.09.65-.27.14-.18.22-.45.24-.81.006-.1.01-.233.01-.4s-.004-.3-.01-.4c-.02-.353-.1-.62-.24-.8-.134-.187-.35-.28-.65-.28-.294 0-.51.093-.65.28-.14.18-.217.447-.23.8-.007.1-.01.233-.01.4s.003.3.01.4c.013.36.09.63.23.81.14.18.356.27.65.27Zm5.783 1.22c-.433 0-.803-.047-1.11-.14-.3-.1-.547-.22-.74-.36a1.688 1.688 0 0 1-.42-.43c-.093-.153-.143-.283-.15-.39a.202.202 0 0 1 .07-.18.239.239 0 0 1 .17-.08h1.14c.02 0 .037.003.05.01a.46.46 0 0 1 .06.04c.087.047.173.107.26.18.087.067.187.127.3.18.113.053.25.08.41.08a.926.926 0 0 0 .47-.11.358.358 0 0 0 .19-.33.374.374 0 0 0-.09-.26c-.06-.073-.183-.143-.37-.21a5.24 5.24 0 0 0-.82-.2 4.271 4.271 0 0 1-.91-.31 1.57 1.57 0 0 1-.6-.51c-.14-.213-.21-.47-.21-.77 0-.267.087-.523.26-.77.174-.247.427-.447.76-.6.334-.16.744-.24 1.23-.24.387 0 .72.047 1 .14.287.087.527.2.72.34.2.14.35.283.45.43.1.147.154.28.16.4a.23.23 0 0 1-.06.18.22.22 0 0 1-.16.07h-1.04a.327.327 0 0 1-.08-.01.65.65 0 0 1-.07-.04 1.25 1.25 0 0 1-.24-.16 1.443 1.443 0 0 0-.28-.18.891.891 0 0 0-.4-.08c-.18 0-.32.04-.42.12a.399.399 0 0 0-.07.55c.06.073.177.14.35.2.18.06.457.127.83.2.46.073.827.193 1.1.36.273.16.467.35.58.57.114.213.17.44.17.68 0 .32-.096.603-.29.85-.187.247-.467.44-.84.58-.373.133-.826.2-1.36.2Zm6.018-.1c-.426 0-.796-.067-1.11-.2a1.541 1.541 0 0 1-.71-.64c-.166-.293-.25-.67-.25-1.13v-1.92h-.78a.279.279 0 0 1-.19-.07.244.244 0 0 1-.07-.18v-.81c0-.073.024-.133.07-.18a.279.279 0 0 1 .19-.07h.78v-1.65c0-.073.024-.133.07-.18a.266.266 0 0 1 .18-.07h1.16c.074 0 .134.023.18.07.047.047.07.107.07.18v1.65h1.25c.074 0 .134.023.18.07.047.047.07.107.07.18v.81a.244.244 0 0 1-.07.18.243.243 0 0 1-.18.07h-1.25v1.78c0 .227.044.407.13.54.087.133.234.2.44.2h.77c.074 0 .134.023.18.07.047.047.07.107.07.18v.87a.244.244 0 0 1-.07.18.243.243 0 0 1-.18.07h-.93Zm4.558 2.2c-.513 0-.94-.067-1.28-.2a2.546 2.546 0 0 1-.8-.48 1.922 1.922 0 0 1-.42-.56c-.087-.18-.133-.323-.14-.43a.202.202 0 0 1 .07-.18.279.279 0 0 1 .19-.07h1.27c.06 0 .11.013.15.04a.326.326 0 0 1 .11.16c.034.073.077.15.13.23.06.08.14.143.24.19a.97.97 0 0 0 .43.08c.2 0 .367-.033.5-.1a.593.593 0 0 0 .3-.31c.067-.14.1-.33.1-.57v-.67c-.153.167-.35.303-.59.41-.24.1-.53.15-.87.15-.34 0-.64-.05-.9-.15-.26-.1-.477-.25-.65-.45-.173-.2-.31-.443-.41-.73a3.875 3.875 0 0 1-.17-.99 6.729 6.729 0 0 1 0-.52c.02-.36.077-.683.17-.97.094-.287.227-.533.4-.74.18-.207.4-.363.66-.47.26-.113.56-.17.9-.17.36 0 .667.07.92.21.26.133.474.303.64.51v-.37c0-.067.023-.123.07-.17a.228.228 0 0 1 .18-.08h1.15c.074 0 .133.027.18.08.053.047.08.103.08.17v4.81c0 .507-.103.933-.31 1.28-.207.347-.503.61-.89.79-.386.18-.857.27-1.41.27Zm-.07-3.61a.888.888 0 0 0 .52-.14.803.803 0 0 0 .29-.36c.067-.147.103-.303.11-.47a3.64 3.64 0 0 0 .01-.31c0-.133-.003-.233-.01-.3a1.266 1.266 0 0 0-.11-.48.745.745 0 0 0-.29-.35.888.888 0 0 0-.52-.14c-.22 0-.396.047-.53.14a.813.813 0 0 0-.28.38c-.053.16-.087.337-.1.53a5.04 5.04 0 0 0 0 .45c.014.193.047.37.1.53.06.16.154.287.28.38.134.093.31.14.53.14Zm4.108 1.41a.243.243 0 0 1-.18-.07.244.244 0 0 1-.07-.18v-4.7c0-.067.023-.123.07-.17a.228.228 0 0 1 .18-.08h1.15c.073 0 .133.027.18.08.047.047.07.103.07.17v.4a1.88 1.88 0 0 1 .64-.48 2.06 2.06 0 0 1 .85-.17h.44c.067 0 .123.023.17.07.053.047.08.107.08.18v1.03a.249.249 0 0 1-.08.18.231.231 0 0 1-.17.07h-.97c-.273 0-.487.077-.64.23-.147.147-.22.357-.22.63v2.56a.228.228 0 0 1-.08.18.244.244 0 0 1-.18.07h-1.24Zm6.652.1c-.787 0-1.413-.213-1.88-.64-.467-.427-.71-1.06-.73-1.9v-.35c.02-.527.137-.977.35-1.35.22-.38.52-.667.9-.86.387-.2.837-.3 1.35-.3.587 0 1.07.117 1.45.35.387.233.677.55.87.95.193.4.29.857.29 1.37v.24a.228.228 0 0 1-.08.18.231.231 0 0 1-.17.07h-3.2v.07c.007.193.04.37.1.53a.754.754 0 0 0 .74.52c.133 0 .243-.02.33-.06.093-.047.17-.097.23-.15.06-.06.107-.11.14-.15a.47.47 0 0 1 .14-.12c.04-.02.1-.03.18-.03h1.24c.067 0 .12.02.16.06.047.033.067.083.06.15-.007.113-.063.25-.17.41-.107.16-.263.32-.47.48-.2.153-.453.28-.76.38-.307.1-.663.15-1.07.15Zm-.85-3.23h1.69v-.02c0-.213-.033-.4-.1-.56a.734.734 0 0 0-.29-.37.795.795 0 0 0-.46-.13.795.795 0 0 0-.46.13.842.842 0 0 0-.28.37c-.067.16-.1.347-.1.56v.02Zm7.108 3.23c-.667 0-1.22-.093-1.66-.28-.44-.193-.774-.443-1-.75a1.738 1.738 0 0 1-.36-.98c0-.053.02-.1.06-.14a.22.22 0 0 1 .16-.07h1.26c.093 0 .163.017.21.05.053.033.1.077.14.13.053.1.126.197.22.29.1.093.226.17.38.23.16.053.356.08.59.08.386 0 .676-.06.87-.18.2-.12.3-.283.3-.49a.456.456 0 0 0-.16-.36c-.107-.1-.28-.187-.52-.26a7.815 7.815 0 0 0-.94-.24 6.105 6.105 0 0 1-1.3-.41c-.354-.173-.624-.397-.81-.67-.187-.28-.28-.627-.28-1.04 0-.407.113-.77.34-1.09.233-.32.556-.57.97-.75.413-.18.903-.27 1.47-.27.46 0 .863.06 1.21.18.353.12.65.28.89.48.24.2.42.413.54.64.126.22.193.437.2.65 0 .053-.02.103-.06.15-.04.04-.09.06-.15.06h-1.32a.42.42 0 0 1-.19-.04.37.37 0 0 1-.14-.13c-.04-.147-.147-.273-.32-.38-.167-.113-.387-.17-.66-.17-.294 0-.524.053-.69.16-.16.1-.24.257-.24.47 0 .133.043.25.13.35.093.1.243.187.45.26.213.073.503.15.87.23.606.113 1.096.257 1.47.43.373.167.646.387.82.66.173.267.26.603.26 1.01 0 .453-.13.847-.39 1.18-.254.327-.607.577-1.06.75-.454.173-.974.26-1.56.26Zm8.47.55a.338.338 0 0 1-.25-.09 2.182 2.182 0 0 1-.13-.14l-.34-.45c-.26.087-.556.13-.89.13-.613 0-1.146-.1-1.6-.3-.446-.2-.8-.5-1.06-.9-.253-.407-.39-.913-.41-1.52a37.362 37.362 0 0 1 0-1.73c.02-.6.16-1.103.42-1.51.26-.413.617-.723 1.07-.93.454-.207.98-.31 1.58-.31.607 0 1.137.103 1.59.31.454.207.81.517 1.07.93.26.407.4.91.42 1.51a19.06 19.06 0 0 1 0 1.73c-.04.827-.28 1.467-.72 1.92l.73 1.04a.188.188 0 0 1 .03.1c.007.053-.01.1-.05.14a.19.19 0 0 1-.15.07H67.3Zm-1.61-1.99c.354 0 .64-.107.86-.32.227-.213.347-.553.36-1.02a16.957 16.957 0 0 0 0-1.64c-.006-.313-.063-.567-.17-.76-.106-.2-.25-.347-.43-.44a1.328 1.328 0 0 0-.62-.14c-.226 0-.43.047-.61.14-.18.093-.323.24-.43.44-.106.193-.163.447-.17.76a34.421 34.421 0 0 0 0 1.64c.014.467.13.807.35 1.02.227.213.514.32.86.32Zm4.52 1.34a.243.243 0 0 1-.18-.07.244.244 0 0 1-.07-.18v-6.5c0-.073.023-.133.07-.18a.243.243 0 0 1 .18-.07h1.32c.066 0 .123.023.17.07.053.047.08.107.08.18v5.24h3.02c.073 0 .133.027.18.08.053.047.08.107.08.18v1a.228.228 0 0 1-.08.18.244.244 0 0 1-.18.07h-4.59Z" fill="#fff"/></g><defs><clipPath id="b"><path fill="#fff" transform="translate(26.108 18.5)" d="M0 0h38.784v40H0z"/></clipPath><filter id="a" x="0" y="0" width="91" height="101" filterUnits="userSpaceOnUse" color-interpolation-filters="sRGB"><feFlood flood-opacity="0" result="BackgroundImageFix"/><feColorMatrix in="SourceAlpha" values="0 0 0 0 0 0 0 0 0 0 0 0 0 0 0 0 0 0 127 0" result="hardAlpha"/><feOffset dy="2"/><feGaussianBlur stdDeviation="4"/><feColorMatrix values="0 0 0 0 0 0 0 0 0 0 0 0 0 0 0 0 0 0 0.75 0"/><feBlend in2="BackgroundImageFix" result="effect1_dropShadow_505_998"/><feBlend in="SourceGraphic" in2="effect1_dropShadow_505_998" result="shape"/></filter></defs></svg>