
<svg width="91" height="101" fill="none" xmlns="http://www.w3.org/2000/svg"><g filter="url(#a)"><rect x="8" y="6" width="75" height="85" rx="5" fill="#212529"/><g clip-path="url(#b)"><path fill-rule="evenodd" clip-rule="evenodd" d="m48.91 23.08 8.205 4.743c.237-.251.509-.467.807-.64a3.562 3.562 0 0 1 4.86 1.306 3.57 3.57 0 0 1-1.304 4.866c-.296.17-.615.298-.947.377v9.489c.328.08.644.206.937.375a3.552 3.552 0 0 1 1.305 4.866 3.56 3.56 0 0 1-5.74.591l-8.156 4.713a3.562 3.562 0 0 1-3.377 4.682 3.555 3.555 0 0 1-3.556-3.56c0-.35.05-.687.144-1.007l-8.203-4.74a3.558 3.558 0 0 1-5.657-.678 3.57 3.57 0 0 1 1.304-4.867c.293-.169.609-.295.938-.375v-9.489a3.567 3.567 0 0 1-2.252-5.244 3.56 3.56 0 0 1 5.664-.67l8.207-4.743a3.573 3.573 0 0 1-.145-1.013c0-1.968 1.59-3.56 3.556-3.56a3.555 3.555 0 0 1 3.556 3.56c0 .354-.05.696-.146 1.018Zm-.855 1.461 8.225 4.754a3.56 3.56 0 0 0 2.56 4.429v9.5a3.772 3.772 0 0 0-.139.037L47.96 24.636a3.57 3.57 0 0 0 .096-.095Zm-5.012.097L32.301 43.263a3.702 3.702 0 0 0-.14-.038v-9.501a3.557 3.557 0 0 0 2.558-4.434l8.223-4.753c.033.035.067.068.101.101Zm3.45.844 10.74 18.62a3.57 3.57 0 0 0-1 1.738H34.768a3.578 3.578 0 0 0-.375-.938c-.17-.293-.38-.56-.625-.795L44.51 25.483a3.562 3.562 0 0 0 1.984 0ZM48.13 52.49l8.172-4.723a3.693 3.693 0 0 1-.066-.233H34.763a3.582 3.582 0 0 1-.036.138l8.21 4.745a3.547 3.547 0 0 1 2.563-1.089 3.543 3.543 0 0 1 2.63 1.162Z" fill="#E535AB"/></g><path d="M26.09 74.62c-.76 0-1.417-.124-1.969-.372a2.957 2.957 0 0 1-1.272-1.104c-.296-.488-.46-1.08-.492-1.776a47.073 47.073 0 0 1 0-2.208c.032-.68.2-1.256.504-1.728a2.895 2.895 0 0 1 1.284-1.08c.552-.248 1.2-.372 1.944-.372.6 0 1.132.076 1.596.228.464.144.852.34 1.164.588.32.248.56.52.72.816.168.296.256.588.264.876a.196.196 0 0 1-.072.18.244.244 0 0 1-.18.072H27.83a.466.466 0 0 1-.204-.036.456.456 0 0 1-.108-.132 1.608 1.608 0 0 0-.252-.372 1.249 1.249 0 0 0-.444-.348c-.184-.096-.428-.144-.732-.144-.456 0-.816.12-1.08.36-.256.24-.396.624-.42 1.152a30.284 30.284 0 0 0 0 2.088c.024.56.172.964.444 1.212s.632.372 1.08.372c.304 0 .572-.052.804-.156.24-.104.428-.264.564-.48.136-.224.204-.508.204-.852v-.228h-1.128a.335.335 0 0 1-.228-.084.335.335 0 0 1-.084-.228v-.888c0-.088.028-.16.084-.216a.311.311 0 0 1 .228-.096h3.024c.088 0 .16.032.216.096a.292.292 0 0 1 .084.216v1.368c0 .688-.156 1.276-.468 1.764-.312.488-.756.864-1.332 1.128-.568.256-1.232.384-1.992.384Zm5.336-.12a.292.292 0 0 1-.216-.084.292.292 0 0 1-.084-.216v-5.64c0-.08.028-.148.084-.204a.274.274 0 0 1 .216-.096h1.38c.088 0 .16.032.216.096a.278.278 0 0 1 .084.204v.48c.216-.248.472-.44.768-.576a2.47 2.47 0 0 1 1.02-.204h.528c.08 0 .148.028.204.084a.274.274 0 0 1 .096.216v1.236c0 .08-.032.152-.096.216a.278.278 0 0 1-.204.084h-1.164c-.328 0-.584.092-.768.276-.176.176-.264.428-.264.756V74.2c0 .088-.032.16-.096.216a.292.292 0 0 1-.216.084h-1.488Zm6.916.12c-.432 0-.82-.08-1.164-.24a2.145 2.145 0 0 1-.804-.672c-.2-.28-.3-.596-.3-.948 0-.568.232-1.016.696-1.344.464-.336 1.08-.564 1.848-.684l1.5-.228v-.168c0-.288-.06-.508-.18-.66-.12-.152-.34-.228-.66-.228-.224 0-.408.044-.552.132a.942.942 0 0 0-.324.36.345.345 0 0 1-.3.156h-1.344c-.088 0-.156-.024-.204-.072a.243.243 0 0 1-.06-.192c0-.144.052-.308.156-.492.112-.192.28-.38.504-.564.224-.184.512-.336.864-.456s.776-.18 1.272-.18c.52 0 .964.06 1.332.18.368.12.664.288.888.504.232.216.404.472.516.768.112.288.168.608.168.96V74.2c0 .088-.032.16-.096.216a.278.278 0 0 1-.204.084h-1.392a.292.292 0 0 1-.216-.084.292.292 0 0 1-.084-.216v-.42a1.742 1.742 0 0 1-.42.42 2.055 2.055 0 0 1-.624.3c-.232.08-.504.12-.816.12Zm.564-1.368c.232 0 .44-.048.624-.144.192-.104.34-.26.444-.468.112-.216.168-.484.168-.804v-.168l-1.02.18c-.376.064-.652.164-.828.3-.168.128-.252.28-.252.456 0 .136.04.252.12.348.08.096.184.172.312.228.128.048.272.072.432.072Zm4.942 3.528a.292.292 0 0 1-.216-.084.292.292 0 0 1-.084-.216v-7.92c0-.088.028-.16.084-.216a.292.292 0 0 1 .216-.084h1.356c.08 0 .148.028.204.084a.274.274 0 0 1 .096.216v.444c.184-.248.428-.452.732-.612.304-.168.68-.252 1.128-.252.4 0 .752.064 1.056.192.304.12.564.3.78.54.216.24.384.532.504.876.128.344.2.74.216 1.188a8.935 8.935 0 0 1 0 .888c-.016.432-.084.82-.204 1.164-.12.344-.288.636-.504.876a2.27 2.27 0 0 1-.792.564 2.704 2.704 0 0 1-1.056.192 2.45 2.45 0 0 1-1.032-.204 2.013 2.013 0 0 1-.72-.6v2.664c0 .088-.028.16-.084.216a.292.292 0 0 1-.216.084h-1.464Zm2.868-3.768c.272 0 .484-.056.636-.168a.905.905 0 0 0 .324-.456c.072-.192.116-.404.132-.636a5.772 5.772 0 0 0 0-.744 2.243 2.243 0 0 0-.132-.636.905.905 0 0 0-.324-.456c-.152-.112-.364-.168-.636-.168-.264 0-.476.06-.636.18a.954.954 0 0 0-.348.444 1.82 1.82 0 0 0-.12.6 8.451 8.451 0 0 0 0 .9c.008.2.052.388.132.564.08.168.2.308.36.42.16.104.364.156.612.156Zm4.702 1.488a.292.292 0 0 1-.216-.084.292.292 0 0 1-.084-.216v-7.92c0-.088.028-.16.084-.216a.292.292 0 0 1 .216-.084h1.536c.088 0 .16.028.216.084a.292.292 0 0 1 .084.216v2.676a2.33 2.33 0 0 1 .792-.588c.32-.152.688-.228 1.104-.228.464 0 .876.104 1.236.312.368.208.656.516.864.924.208.4.312.892.312 1.476V74.2c0 .088-.028.16-.084.216a.292.292 0 0 1-.216.084h-1.548a.32.32 0 0 1-.216-.084.292.292 0 0 1-.084-.216v-3.276c0-.376-.092-.664-.276-.864-.176-.208-.44-.312-.792-.312-.328 0-.592.104-.792.312-.2.2-.3.488-.3.864V74.2c0 .088-.028.16-.084.216a.292.292 0 0 1-.216.084h-1.536Zm11.897 2.28a.292.292 0 0 1-.216-.084.292.292 0 0 1-.084-.216v-2.664a1.886 1.886 0 0 1-.72.6 2.45 2.45 0 0 1-1.032.204 2.76 2.76 0 0 1-1.056-.192 2.27 2.27 0 0 1-.792-.564 2.543 2.543 0 0 1-.504-.876 3.972 3.972 0 0 1-.204-1.164 8.935 8.935 0 0 1 0-.888c.024-.448.096-.844.216-1.188s.288-.636.504-.876c.216-.24.476-.42.78-.54a2.76 2.76 0 0 1 1.056-.192c.448 0 .824.084 1.128.252.304.16.548.364.732.612v-.444c0-.088.028-.16.084-.216a.32.32 0 0 1 .216-.084h1.356c.088 0 .16.028.216.084a.292.292 0 0 1 .084.216v7.92c0 .088-.028.16-.084.216a.292.292 0 0 1-.216.084h-1.464Zm-1.404-3.768c.248 0 .452-.052.612-.156.16-.112.28-.252.36-.42.08-.176.124-.364.132-.564a4.242 4.242 0 0 0 0-.9 1.82 1.82 0 0 0-.12-.6.954.954 0 0 0-.348-.444c-.16-.12-.372-.18-.636-.18s-.476.056-.636.168a.977.977 0 0 0-.336.456 2.565 2.565 0 0 0-.12.636 5.772 5.772 0 0 0 0 .744c.016.232.056.444.12.636a.977.977 0 0 0 .336.456c.16.112.372.168.636.168Zm4.882 1.488a.292.292 0 0 1-.216-.084.292.292 0 0 1-.084-.216v-7.92c0-.088.028-.16.084-.216a.292.292 0 0 1 .216-.084h1.416c.088 0 .16.028.216.084a.292.292 0 0 1 .084.216v7.92c0 .088-.028.16-.084.216a.292.292 0 0 1-.216.084h-1.416Z" fill="#fff"/></g><defs><clipPath id="b"><path fill="#fff" transform="translate(27.743 18.5)" d="M0 0h35.515v40H0z"/></clipPath><filter id="a" x="0" y="0" width="91" height="101" filterUnits="userSpaceOnUse" color-interpolation-filters="sRGB"><feFlood flood-opacity="0" result="BackgroundImageFix"/><feColorMatrix in="SourceAlpha" values="0 0 0 0 0 0 0 0 0 0 0 0 0 0 0 0 0 0 127 0" result="hardAlpha"/><feOffset dy="2"/><feGaussianBlur stdDeviation="4"/><feColorMatrix values="0 0 0 0 0 0 0 0 0 0 0 0 0 0 0 0 0 0 0.75 0"/><feBlend in2="BackgroundImageFix" result="effect1_dropShadow_505_627"/><feBlend in="SourceGraphic" in2="effect1_dropShadow_505_627" result="shape"/></filter></defs></svg>