
<svg width="91" height="101" fill="none" xmlns="http://www.w3.org/2000/svg"><g filter="url(#a)"><rect x="8" y="6" width="75" height="85" rx="5" fill="#212529"/><g clip-path="url(#b)" fill-rule="evenodd" clip-rule="evenodd"><path d="m48.52 29.26-.04-10.76h-6l.04 10.76 3 4.12 3-4.12Zm-6 18.44v10.8h6V47.7l-3-4.12-3 4.12Z" fill="#fff"/><path d="m48.52 47.7 6.32 8.72 4.84-3.52-6.32-8.72-4.84-1.56v5.08Zm-6-18.44-6.36-8.72-4.84 3.52 6.32 8.72 4.88 1.56v-5.08Z" fill="#00F2E6"/><path d="M37.64 32.78 27.4 29.46l-1.84 5.68L35.8 38.5l4.84-1.6-3-4.12Zm12.72 7.28 3 4.12L63.6 47.5l1.84-5.68L55.2 38.5l-4.84 1.56Z" fill="#00B9F1"/><path d="m55.2 38.5 10.24-3.36-1.84-5.68-10.24 3.32-3 4.12 4.84 1.6Zm-19.4 0-10.24 3.32 1.84 5.68 10.24-3.32 3-4.12-4.84-1.56Z" fill="#D63AFF"/><path d="m37.64 44.18-6.32 8.72 4.84 3.52 6.36-8.72v-5.08l-4.88 1.56Zm15.72-11.4 6.32-8.72-4.84-3.52-6.32 8.72v5.08l4.84-1.56Z" fill="#FB015B"/></g><path d="M36.465 74.62a5.01 5.01 0 0 1-1.308-.168 3.55 3.55 0 0 1-1.092-.528 2.65 2.65 0 0 1-.768-.864 2.713 2.713 0 0 1-.3-1.2c0-.072.024-.132.072-.18a.24.24 0 0 1 .192-.084h1.62c.112 0 .196.028.252.084.064.056.116.14.156.252.04.224.116.408.228.552.112.136.252.24.42.312.176.064.372.096.588.096.4 0 .708-.128.924-.384.216-.264.324-.648.324-1.152v-3.468h-3.888a.32.32 0 0 1-.216-.084.292.292 0 0 1-.084-.216V66.4c0-.088.028-.16.084-.216a.32.32 0 0 1 .216-.084h5.808c.088 0 .16.028.216.084a.274.274 0 0 1 .096.216v5.016c0 .696-.152 1.284-.456 1.764-.304.472-.72.832-1.248 1.08-.528.24-1.14.36-1.836.36Zm6.479-.12a.438.438 0 0 1-.324-.12.489.489 0 0 1-.144-.276l-1.308-7.668a.107.107 0 0 1-.012-.048v-.036a.23.23 0 0 1 .072-.168.252.252 0 0 1 .18-.084h1.488c.224 0 .348.088.372.264l.78 4.692.864-2.772a.794.794 0 0 1 .12-.204c.056-.08.148-.12.276-.12h.864c.136 0 .232.04.288.12.056.072.092.14.108.204l.864 2.76.78-4.68c.024-.176.148-.264.372-.264h1.488c.072 0 .132.028.18.084a.23.23 0 0 1 .072.168V66.436l-1.308 7.668a.489.489 0 0 1-.144.276.438.438 0 0 1-.324.12h-1.14c-.136 0-.24-.036-.312-.108a.601.601 0 0 1-.144-.204l-1.212-3.432-1.212 3.432a.601.601 0 0 1-.144.204c-.064.072-.164.108-.3.108h-1.14Zm10.765 0a.292.292 0 0 1-.216-.084.292.292 0 0 1-.084-.216v-6.216h-2.136a.292.292 0 0 1-.216-.084.32.32 0 0 1-.084-.216V66.4c0-.088.028-.16.084-.216a.292.292 0 0 1 .216-.084h6.456c.088 0 .16.028.216.084a.292.292 0 0 1 .084.216v1.284a.32.32 0 0 1-.084.216.292.292 0 0 1-.216.084h-2.136V74.2c0 .088-.028.16-.084.216a.292.292 0 0 1-.216.084h-1.584Z" fill="#fff"/></g><defs><clipPath id="b"><path fill="#fff" transform="translate(25.5 18.5)" d="M0 0h40v40H0z"/></clipPath><filter id="a" x="0" y="0" width="91" height="101" filterUnits="userSpaceOnUse" color-interpolation-filters="sRGB"><feFlood flood-opacity="0" result="BackgroundImageFix"/><feColorMatrix in="SourceAlpha" values="0 0 0 0 0 0 0 0 0 0 0 0 0 0 0 0 0 0 127 0" result="hardAlpha"/><feOffset dy="2"/><feGaussianBlur stdDeviation="4"/><feColorMatrix values="0 0 0 0 0 0 0 0 0 0 0 0 0 0 0 0 0 0 0.75 0"/><feBlend in2="BackgroundImageFix" result="effect1_dropShadow_505_861"/><feBlend in="SourceGraphic" in2="effect1_dropShadow_505_861" result="shape"/></filter></defs></svg>