<svg width="91" height="101" fill="none" xmlns="http://www.w3.org/2000/svg"><g filter="url(#a)"><rect x="8" y="6" width="75" height="85" rx="5" fill="#212529"/><g clip-path="url(#b)"><path d="M44.532 61.115a1.885 1.885 0 0 0 1.886 0l15.628-9.018a1.886 1.886 0 0 0 .944-1.635v-18.05a1.89 1.89 0 0 0-.943-1.634l-15.628-9.025a1.889 1.889 0 0 0-1.888 0l-15.623 9.025a1.89 1.89 0 0 0-.944 1.635v18.05c0 .674.36 1.297.944 1.634l15.624 9.018" fill="#76D04B"/><path d="m55.594 37.132-.697-.401c1.072-1.581 1.712-3.958.91-7.51 0 0-1.81 5.068-5.445 4.9l-4.256-2.45a1.11 1.11 0 0 0-.523-.152h-.098c-.184.007-.364.06-.524.152l-4.257 2.45c-3.635.168-5.444-4.9-5.444-4.9-.803 3.552-.162 5.929.91 7.51l-.697.4a1.15 1.15 0 0 0-.574.997l.02 14.703c0 .205.107.395.287.495a.547.547 0 0 0 .57 0l5.638-3.23c.357-.211.574-.585.574-.994v-6.868c0-.41.217-.79.572-.993l2.401-1.382a1.132 1.132 0 0 1 1.145 0l2.4 1.382a1.142 1.142 0 0 1 .574.992v6.87c0 .408.22.785.574.994l5.637 3.228a.556.556 0 0 0 .574 0 .57.57 0 0 0 .284-.495l.019-14.703c0-.413-.218-.792-.574-.996Z" fill="#4F4D3F"/></g><path d="M18.316 74.5a.292.292 0 0 1-.216-.084.292.292 0 0 1-.084-.216v-7.8c0-.088.028-.16.084-.216a.292.292 0 0 1 .216-.084h1.272c.136 0 .232.032.288.096.064.056.104.1.12.132l2.928 4.62V66.4c0-.088.028-.16.084-.216a.292.292 0 0 1 .216-.084h1.44c.088 0 .16.028.216.084a.292.292 0 0 1 .084.216v7.8a.32.32 0 0 1-.084.216.292.292 0 0 1-.216.084H23.38c-.128 0-.224-.032-.288-.096a1.618 1.618 0 0 1-.108-.132l-2.928-4.44V74.2c0 .088-.028.16-.084.216a.292.292 0 0 1-.216.084h-1.44Zm11.145.12c-.672 0-1.24-.108-1.704-.324a2.434 2.434 0 0 1-1.056-.924c-.24-.408-.376-.892-.408-1.452-.008-.16-.012-.34-.012-.54 0-.208.004-.388.012-.54.032-.568.176-1.052.432-1.452.256-.4.612-.708 1.068-.924.464-.216 1.02-.324 1.668-.324.656 0 1.212.108 1.668.324.464.216.824.524 1.08.924.256.4.4.884.432 1.452.008.152.012.332.012.54 0 .2-.004.38-.012.54-.032.56-.172 1.044-.42 1.452-.24.4-.592.708-1.056.924-.456.216-1.024.324-1.704.324Zm0-1.464c.36 0 .62-.108.78-.324.168-.216.264-.54.288-.972.008-.12.012-.28.012-.48 0-.2-.004-.36-.012-.48-.024-.424-.12-.744-.288-.96-.16-.224-.42-.336-.78-.336-.352 0-.612.112-.78.336-.168.216-.26.536-.276.96a7.57 7.57 0 0 0-.012.48c0 .2.004.36.012.48.016.432.108.756.276.972.168.216.428.324.78.324Zm6.7 1.464c-.384 0-.732-.06-1.044-.18a2.283 2.283 0 0 1-.792-.552 2.678 2.678 0 0 1-.504-.888 4.176 4.176 0 0 1-.204-1.2 8.035 8.035 0 0 1 0-.84c.016-.432.084-.82.204-1.164.12-.344.288-.64.504-.888.216-.248.48-.436.792-.564.312-.136.66-.204 1.044-.204.4 0 .744.068 1.032.204.288.128.532.296.732.504V66.28c0-.088.028-.16.084-.216a.292.292 0 0 1 .216-.084h1.464c.08 0 .148.028.204.084a.274.274 0 0 1 .096.216v7.92c0 .088-.032.16-.096.216a.278.278 0 0 1-.204.084h-1.356a.292.292 0 0 1-.216-.084.292.292 0 0 1-.084-.216v-.384c-.192.232-.44.424-.744.576-.304.152-.68.228-1.128.228Zm.648-1.608c.272 0 .484-.056.636-.168.16-.12.276-.272.348-.456.08-.184.124-.384.132-.6a9.15 9.15 0 0 0 0-.9 1.4 1.4 0 0 0-.132-.552.968.968 0 0 0-.36-.42c-.16-.112-.368-.168-.624-.168-.264 0-.476.056-.636.168a.905.905 0 0 0-.324.456 2.565 2.565 0 0 0-.12.636 3.853 3.853 0 0 0 0 .744c.016.232.056.444.12.636a.905.905 0 0 0 .324.456c.16.112.372.168.636.168Zm7.474 1.608c-.944 0-1.696-.256-2.256-.768-.56-.512-.852-1.272-.876-2.28v-.42c.024-.632.164-1.172.42-1.62a2.58 2.58 0 0 1 1.08-1.032c.464-.24 1.004-.36 1.62-.36.704 0 1.284.14 1.74.42.464.28.812.66 1.044 1.14.232.48.348 1.028.348 1.644v.288c0 .088-.032.16-.096.216a.278.278 0 0 1-.204.084h-3.84V72.016c.008.232.048.444.12.636a.977.977 0 0 0 .336.456.905.905 0 0 0 .552.168c.16 0 .292-.024.396-.072.112-.056.204-.116.276-.18a2.84 2.84 0 0 0 .168-.18.564.564 0 0 1 .168-.144.501.501 0 0 1 .216-.036h1.488a.26.26 0 0 1 .192.072c.056.04.08.1.072.18-.008.136-.076.3-.204.492a2.527 2.527 0 0 1-.564.576c-.24.184-.544.336-.912.456s-.796.18-1.284.18Zm-1.02-3.876h2.028v-.024c0-.256-.04-.48-.12-.672a.881.881 0 0 0-.348-.444.954.954 0 0 0-.552-.156c-.216 0-.4.052-.552.156a1.01 1.01 0 0 0-.336.444c-.08.192-.12.416-.12.672v.024Zm5.565 3.756a.292.292 0 0 1-.216-.084.292.292 0 0 1-.084-.216v-5.64c0-.088.028-.16.084-.216a.292.292 0 0 1 .216-.084h1.308c.088 0 .16.028.216.084a.292.292 0 0 1 .084.216v.408c.16-.216.384-.404.672-.564a2.075 2.075 0 0 1 1.02-.264c.92-.016 1.552.332 1.896 1.044.184-.304.448-.552.792-.744.344-.2.72-.3 1.128-.3.416 0 .788.096 1.116.288.336.184.604.472.804.864.2.384.3.884.3 1.5V74.2c0 .088-.032.16-.096.216a.278.278 0 0 1-.204.084h-1.392a.335.335 0 0 1-.228-.084.292.292 0 0 1-.084-.216v-3.324c0-.28-.04-.5-.12-.66a.757.757 0 0 0-.324-.36.985.985 0 0 0-.9 0 .82.82 0 0 0-.336.36c-.08.16-.12.38-.12.66V74.2c0 .088-.028.16-.084.216a.292.292 0 0 1-.216.084h-1.392a.292.292 0 0 1-.216-.084.292.292 0 0 1-.084-.216v-3.324c0-.28-.044-.5-.132-.66a.82.82 0 0 0-.336-.36.96.96 0 0 0-.888 0 .82.82 0 0 0-.336.36c-.08.16-.12.376-.12.648V74.2c0 .088-.032.16-.096.216a.292.292 0 0 1-.216.084h-1.416Zm13.633.12c-.672 0-1.24-.108-1.704-.324a2.434 2.434 0 0 1-1.056-.924c-.24-.408-.376-.892-.408-1.452-.008-.16-.012-.34-.012-.54 0-.208.004-.388.012-.54.032-.568.176-1.052.432-1.452.256-.4.612-.708 1.068-.924.464-.216 1.02-.324 1.668-.324.656 0 1.212.108 1.668.324.464.216.824.524 1.08.924.256.4.4.884.432 1.452.008.152.012.332.012.54 0 .2-.004.38-.012.54-.032.56-.172 1.044-.42 1.452-.24.4-.592.708-1.056.924-.456.216-1.024.324-1.704.324Zm0-1.464c.36 0 .62-.108.78-.324.168-.216.264-.54.288-.972.008-.12.012-.28.012-.48 0-.2-.004-.36-.012-.48-.024-.424-.12-.744-.288-.96-.16-.224-.42-.336-.78-.336-.352 0-.612.112-.78.336-.168.216-.26.536-.276.96a7.57 7.57 0 0 0-.012.48c0 .2.004.36.012.48.016.432.108.756.276.972.168.216.428.324.78.324Zm4.672 1.344a.292.292 0 0 1-.216-.084.292.292 0 0 1-.084-.216v-5.64c0-.088.028-.16.084-.216a.292.292 0 0 1 .216-.084h1.38c.088 0 .16.028.216.084a.292.292 0 0 1 .084.216v.456c.208-.248.48-.456.816-.624.336-.168.732-.252 1.188-.252.464 0 .872.104 1.224.312.36.208.64.516.84.924.208.4.312.892.312 1.476V74.2c0 .088-.032.16-.096.216a.278.278 0 0 1-.204.084h-1.512a.32.32 0 0 1-.216-.084.292.292 0 0 1-.084-.216v-3.276c0-.376-.092-.664-.276-.864-.176-.208-.44-.312-.792-.312-.328 0-.592.104-.792.312-.192.2-.288.488-.288.864V74.2c0 .088-.032.16-.096.216a.278.278 0 0 1-.204.084h-1.5Z" fill="#fff"/></g><defs><clipPath id="b"><path fill="#fff" transform="translate(27.964 21.5)" d="M0 0h35.072v40H0z"/></clipPath><filter id="a" x="0" y="0" width="91" height="101" filterUnits="userSpaceOnUse" color-interpolation-filters="sRGB"><feFlood flood-opacity="0" result="BackgroundImageFix"/><feColorMatrix in="SourceAlpha" values="0 0 0 0 0 0 0 0 0 0 0 0 0 0 0 0 0 0 127 0" result="hardAlpha"/><feOffset dy="2"/><feGaussianBlur stdDeviation="4"/><feColorMatrix values="0 0 0 0 0 0 0 0 0 0 0 0 0 0 0 0 0 0 0.75 0"/><feBlend in2="BackgroundImageFix" result="effect1_dropShadow_505_1239"/><feBlend in="SourceGraphic" in2="effect1_dropShadow_505_1239" result="shape"/></filter></defs></svg>