
<svg width="91" height="101" fill="none" xmlns="http://www.w3.org/2000/svg"><g filter="url(#a)"><rect x="8" y="6" width="75" height="85" rx="5" fill="#212529"/><g clip-path="url(#b)"><path d="M53.216 47.958a2.85 2.85 0 0 0 2.545-2.952 2.86 2.86 0 0 0-2.85-2.749h-.102a2.848 2.848 0 0 0-2.75 2.952c.052.764.357 1.426.815 1.884-1.73 3.41-4.377 5.905-8.348 7.992-2.697 1.425-5.497 1.934-8.297 1.578-2.29-.306-4.072-1.324-5.192-3.004-1.628-2.494-1.781-5.192-.407-7.89.968-1.934 2.494-3.36 3.462-4.072-.204-.662-.51-1.782-.662-2.596-7.38 5.345-6.617 12.573-4.378 15.984 1.68 2.545 5.09 4.123 8.857 4.123a12.52 12.52 0 0 0 3.054-.356c6.516-1.273 11.453-5.142 14.253-10.894Zm8.959-6.312c-3.869-4.53-9.57-7.024-16.085-7.024h-.815a2.797 2.797 0 0 0-2.494-1.528h-.102a2.848 2.848 0 0 0-2.748 2.953 2.86 2.86 0 0 0 2.85 2.749h.102a2.867 2.867 0 0 0 2.494-1.731h.916c3.869 0 7.534 1.12 10.842 3.309 2.545 1.68 4.378 3.868 5.396 6.515.865 2.138.814 4.225-.102 6.007-1.425 2.698-3.818 4.174-6.974 4.174-2.036 0-3.97-.61-4.988-1.07-.56.51-1.578 1.324-2.29 1.834 2.188 1.018 4.428 1.578 6.566 1.578 4.886 0 8.5-2.698 9.875-5.396 1.476-2.953 1.374-8.043-2.443-12.37Zm-25.859 7.177a2.86 2.86 0 0 0 2.85 2.75h.103a2.848 2.848 0 0 0 2.748-2.953 2.86 2.86 0 0 0-2.85-2.749h-.102c-.102 0-.255 0-.356.05-2.087-3.46-2.952-7.227-2.647-11.3.204-3.054 1.222-5.7 3.003-7.89 1.476-1.883 4.327-2.8 6.261-2.85 5.396-.102 7.686 6.617 7.839 9.315.662.153 1.782.51 2.545.764-.61-8.247-5.701-12.523-10.587-12.523-4.582 0-8.807 3.31-10.486 8.196-2.342 6.516-.815 12.777 2.036 17.714-.255.357-.407.917-.357 1.477Z" fill="#764ABC"/></g><path d="M27.814 75.564a.292.292 0 0 1-.216-.084.292.292 0 0 1-.084-.216v-7.8c0-.088.028-.16.084-.216a.292.292 0 0 1 .216-.084h3.264c1.032 0 1.844.24 2.436.72.6.472.9 1.144.9 2.016 0 .568-.14 1.048-.42 1.44a2.554 2.554 0 0 1-1.08.888l1.656 2.952a.299.299 0 0 1 .036.132.252.252 0 0 1-.084.18.244.244 0 0 1-.18.072h-1.584c-.152 0-.264-.036-.336-.108a1.02 1.02 0 0 1-.156-.216l-1.368-2.64h-1.236v2.664c0 .088-.028.16-.084.216a.292.292 0 0 1-.216.084h-1.548Zm1.848-4.656h1.392c.376 0 .656-.092.84-.276.192-.184.288-.436.288-.756 0-.312-.092-.564-.276-.756-.176-.192-.46-.288-.852-.288h-1.392v2.076Zm8.815 4.776c-.944 0-1.696-.256-2.256-.768-.56-.512-.852-1.272-.876-2.28v-.42c.024-.632.164-1.172.42-1.62a2.58 2.58 0 0 1 1.08-1.032c.464-.24 1.004-.36 1.62-.36.704 0 1.284.14 1.74.42.464.28.812.66 1.044 1.14.232.48.348 1.028.348 1.644v.288c0 .088-.032.16-.096.216a.278.278 0 0 1-.204.084h-3.84V73.08c.008.232.048.444.12.636a.977.977 0 0 0 .336.456.905.905 0 0 0 .552.168c.16 0 .292-.024.396-.072.112-.056.204-.116.276-.18a2.84 2.84 0 0 0 .168-.18.564.564 0 0 1 .168-.144.501.501 0 0 1 .216-.036h1.488a.26.26 0 0 1 .192.072c.056.04.08.1.072.18-.008.136-.076.3-.204.492a2.527 2.527 0 0 1-.564.576c-.24.184-.544.336-.912.456s-.796.18-1.284.18Zm-1.02-3.876h2.028v-.024c0-.256-.04-.48-.12-.672a.881.881 0 0 0-.348-.444.954.954 0 0 0-.552-.156c-.216 0-.4.052-.552.156a1.01 1.01 0 0 0-.336.444c-.08.192-.12.416-.12.672v.024Zm7.593 3.876c-.384 0-.732-.06-1.044-.18a2.283 2.283 0 0 1-.792-.552 2.678 2.678 0 0 1-.504-.888 4.176 4.176 0 0 1-.204-1.2 8.035 8.035 0 0 1 0-.84c.016-.432.084-.82.204-1.164.12-.344.288-.64.504-.888.216-.248.48-.436.792-.564.312-.136.66-.204 1.044-.204.4 0 .744.068 1.032.204.288.128.532.296.732.504v-2.568c0-.088.028-.16.084-.216a.292.292 0 0 1 .216-.084h1.464c.08 0 .148.028.204.084a.274.274 0 0 1 .096.216v7.92c0 .088-.032.16-.096.216a.278.278 0 0 1-.204.084h-1.356a.292.292 0 0 1-.216-.084.292.292 0 0 1-.084-.216v-.384c-.192.232-.44.424-.744.576-.304.152-.68.228-1.128.228Zm.648-1.608c.272 0 .484-.056.636-.168.16-.12.276-.272.348-.456.08-.184.124-.384.132-.6a9.15 9.15 0 0 0 0-.9 1.4 1.4 0 0 0-.132-.552.968.968 0 0 0-.36-.42c-.16-.112-.368-.168-.624-.168-.264 0-.476.056-.636.168a.905.905 0 0 0-.324.456 2.565 2.565 0 0 0-.12.636 3.853 3.853 0 0 0 0 .744c.016.232.056.444.12.636a.905.905 0 0 0 .324.456c.16.112.372.168.636.168Zm6.886 1.608c-.456 0-.864-.104-1.224-.312a2.138 2.138 0 0 1-.828-.912c-.2-.408-.3-.904-.3-1.488v-3.348c0-.088.028-.16.084-.216a.292.292 0 0 1 .216-.084h1.5c.088 0 .16.028.216.084a.292.292 0 0 1 .084.216V72.9c0 .784.352 1.176 1.056 1.176.328 0 .588-.1.78-.3.2-.208.3-.5.3-.876v-3.276c0-.088.028-.16.084-.216a.292.292 0 0 1 .216-.084h1.5c.088 0 .16.028.216.084a.292.292 0 0 1 .084.216v5.64c0 .088-.028.16-.084.216a.292.292 0 0 1-.216.084h-1.392a.32.32 0 0 1-.216-.084.292.292 0 0 1-.084-.216v-.456c-.208.288-.48.508-.816.66-.328.144-.72.216-1.176.216Zm5.143-.12a.287.287 0 0 1-.191-.072.287.287 0 0 1-.06-.276.264.264 0 0 1 .047-.108l2.005-2.748-1.825-2.58a.63.63 0 0 1-.06-.096.395.395 0 0 1-.011-.096c0-.072.028-.132.084-.18a.264.264 0 0 1 .191-.084h1.465c.103 0 .18.024.227.072a.576.576 0 0 1 .12.132l1.117 1.548 1.104-1.536c.032-.04.072-.084.12-.132.055-.056.136-.084.24-.084h1.404c.072 0 .132.028.18.084a.227.227 0 0 1 .084.18.395.395 0 0 1-.013.096.27.27 0 0 1-.047.096l-1.873 2.58 2.029 2.748a.212.212 0 0 1 .06.096.395.395 0 0 1 .011.096.264.264 0 0 1-.276.264h-1.523c-.096 0-.169-.02-.216-.06a1.636 1.636 0 0 1-.12-.132l-1.212-1.644-1.224 1.644-.12.12c-.049.048-.125.072-.229.072h-1.488Z" fill="#fff"/></g><defs><clipPath id="b"><path fill="#fff" transform="translate(25.5 21.436)" d="M0 0h40v38.128H0z"/></clipPath><filter id="a" x="0" y="0" width="91" height="101" filterUnits="userSpaceOnUse" color-interpolation-filters="sRGB"><feFlood flood-opacity="0" result="BackgroundImageFix"/><feColorMatrix in="SourceAlpha" values="0 0 0 0 0 0 0 0 0 0 0 0 0 0 0 0 0 0 127 0" result="hardAlpha"/><feOffset dy="2"/><feGaussianBlur stdDeviation="4"/><feColorMatrix values="0 0 0 0 0 0 0 0 0 0 0 0 0 0 0 0 0 0 0.75 0"/><feBlend in2="BackgroundImageFix" result="effect1_dropShadow_505_540"/><feBlend in="SourceGraphic" in2="effect1_dropShadow_505_540" result="shape"/></filter></defs></svg>