
<svg width="91" height="101" fill="none" xmlns="http://www.w3.org/2000/svg"><g filter="url(#a)"><rect x="8" y="6" width="75" height="85" rx="5" fill="#212529"/><g clip-path="url(#b)"><path d="m45.5 20.5 17.676 10v20L45.5 60.5l-17.677-10v-20l17.677-10Z" fill="#fff"/><path d="m60.02 49.81-13.936 7.883v-6.14l8.683-4.776 5.253 3.033Zm.954-.863V32.46l-5.1 2.943V46l5.1 2.947Zm-30.05.863 13.936 7.883v-6.14l-8.683-4.776-5.253 3.033Zm-.954-.863V32.46l5.1 2.943V46l-5.1 2.947Zm.597-17.554 14.293-8.086v5.936l-9.156 5.037-.07.04-5.067-2.927Zm29.81 0-14.293-8.086v5.936l9.156 5.037.07.04 5.067-2.927Z" fill="#8ED6FB"/><path d="m44.86 50.157-8.566-4.71v-9.334l8.566 4.947v9.097Zm1.223 0 8.567-4.71v-9.334l-8.567 4.947v9.097Zm-9.21-15.124 8.6-4.73 8.6 4.73-8.6 4.967-8.6-4.967" fill="#1C78C0"/></g><path d="M21.1 76.5a.438.438 0 0 1-.324-.12.489.489 0 0 1-.144-.276l-1.308-7.668a.107.107 0 0 1-.012-.048v-.036a.23.23 0 0 1 .072-.168.252.252 0 0 1 .18-.084h1.488c.224 0 .348.088.372.264l.78 4.692.864-2.772a.794.794 0 0 1 .12-.204c.056-.08.148-.12.276-.12h.864c.136 0 .232.04.288.12.056.072.092.14.108.204l.864 2.76.78-4.68c.024-.176.148-.264.372-.264h1.488c.072 0 .132.028.18.084a.23.23 0 0 1 .072.168V68.436l-1.308 7.668a.489.489 0 0 1-.144.276.438.438 0 0 1-.324.12h-1.14c-.136 0-.24-.036-.312-.108a.601.601 0 0 1-.144-.204l-1.212-3.432-1.212 3.432a.601.601 0 0 1-.144.204c-.064.072-.164.108-.3.108H21.1Zm11.142.12c-.944 0-1.696-.256-2.256-.768-.56-.512-.852-1.272-.876-2.28v-.42c.024-.632.164-1.172.42-1.62a2.58 2.58 0 0 1 1.08-1.032c.464-.24 1.004-.36 1.62-.36.704 0 1.284.14 1.74.42.464.28.812.66 1.044 1.14.232.48.348 1.028.348 1.644v.288c0 .088-.032.16-.096.216a.278.278 0 0 1-.204.084h-3.84V74.016c.008.232.048.444.12.636a.977.977 0 0 0 .336.456.905.905 0 0 0 .552.168c.16 0 .292-.024.396-.072.112-.056.204-.116.276-.18a2.84 2.84 0 0 0 .168-.18.564.564 0 0 1 .168-.144.501.501 0 0 1 .216-.036h1.488a.26.26 0 0 1 .192.072c.056.04.08.1.072.18-.008.136-.076.3-.204.492a2.527 2.527 0 0 1-.564.576c-.24.184-.544.336-.912.456s-.796.18-1.284.18Zm-1.02-3.876h2.028v-.024c0-.256-.04-.48-.12-.672a.881.881 0 0 0-.348-.444.954.954 0 0 0-.552-.156c-.216 0-.4.052-.552.156a1.01 1.01 0 0 0-.336.444c-.08.192-.12.416-.12.672v.024Zm9.081 3.876c-.448 0-.824-.076-1.128-.228a2.296 2.296 0 0 1-.732-.576v.384c0 .088-.032.16-.096.216a.278.278 0 0 1-.204.084h-1.356a.292.292 0 0 1-.216-.084.292.292 0 0 1-.084-.216v-7.92c0-.088.028-.16.084-.216a.292.292 0 0 1 .216-.084h1.464c.088 0 .16.028.216.084a.292.292 0 0 1 .084.216v2.568c.192-.208.432-.376.72-.504a2.45 2.45 0 0 1 1.032-.204c.4 0 .752.068 1.056.204.312.128.576.316.792.564.216.248.384.544.504.888s.188.732.204 1.164a8.035 8.035 0 0 1 0 .84 3.91 3.91 0 0 1-.216 1.2c-.12.344-.288.64-.504.888-.216.24-.476.424-.78.552-.304.12-.656.18-1.056.18Zm-.648-1.608c.272 0 .484-.056.636-.168a.905.905 0 0 0 .324-.456c.072-.192.116-.404.132-.636a5.772 5.772 0 0 0 0-.744 2.243 2.243 0 0 0-.132-.636.905.905 0 0 0-.324-.456c-.152-.112-.364-.168-.636-.168-.248 0-.452.056-.612.168a.968.968 0 0 0-.36.42 1.4 1.4 0 0 0-.132.552 8.451 8.451 0 0 0 0 .9c.008.216.048.416.12.6s.188.336.348.456c.16.112.372.168.636.168Zm4.703 3.768a.292.292 0 0 1-.216-.084.292.292 0 0 1-.084-.216v-7.92c0-.088.028-.16.084-.216a.292.292 0 0 1 .216-.084h1.356c.08 0 .148.028.204.084a.274.274 0 0 1 .096.216v.444c.184-.248.428-.452.732-.612.304-.168.68-.252 1.128-.252.4 0 .752.064 1.056.192.304.12.564.3.78.54.216.24.384.532.504.876.128.344.2.74.216 1.188a8.935 8.935 0 0 1 0 .888c-.016.432-.084.82-.204 1.164-.12.344-.288.636-.504.876a2.27 2.27 0 0 1-.792.564 2.704 2.704 0 0 1-1.056.192 2.45 2.45 0 0 1-1.032-.204 2.013 2.013 0 0 1-.72-.6v2.664c0 .088-.028.16-.084.216a.292.292 0 0 1-.216.084h-1.464Zm2.868-3.768c.272 0 .484-.056.636-.168a.905.905 0 0 0 .324-.456c.072-.192.116-.404.132-.636a5.772 5.772 0 0 0 0-.744 2.243 2.243 0 0 0-.132-.636.905.905 0 0 0-.324-.456c-.152-.112-.364-.168-.636-.168-.264 0-.476.06-.636.18a.954.954 0 0 0-.348.444 1.82 1.82 0 0 0-.12.6 8.451 8.451 0 0 0 0 .9c.008.2.052.388.132.564.08.168.2.308.36.42.16.104.364.156.612.156ZM53.5 76.62c-.432 0-.82-.08-1.164-.24a2.145 2.145 0 0 1-.804-.672c-.2-.28-.3-.596-.3-.948 0-.568.232-1.016.696-1.344.464-.336 1.08-.564 1.848-.684l1.5-.228v-.168c0-.288-.06-.508-.18-.66-.12-.152-.34-.228-.66-.228-.224 0-.408.044-.552.132a.942.942 0 0 0-.324.36.345.345 0 0 1-.3.156h-1.344c-.088 0-.156-.024-.204-.072a.243.243 0 0 1-.06-.192c0-.144.052-.308.156-.492.112-.192.28-.38.504-.564.224-.184.512-.336.864-.456s.776-.18 1.272-.18c.52 0 .964.06 1.332.18.368.12.664.288.888.504.232.216.404.472.516.768.112.288.168.608.168.96V76.2c0 .088-.032.16-.096.216a.278.278 0 0 1-.204.084H55.66a.292.292 0 0 1-.216-.084.292.292 0 0 1-.084-.216v-.42a1.742 1.742 0 0 1-.42.42 2.055 2.055 0 0 1-.624.3c-.232.08-.504.12-.816.12Zm.564-1.368c.232 0 .44-.048.624-.144.192-.104.34-.26.444-.468.112-.216.168-.484.168-.804v-.168l-1.02.18c-.376.064-.652.164-.828.3-.168.128-.252.28-.252.456 0 .136.04.252.12.348.08.096.184.172.312.228.128.048.272.072.432.072Zm7.51 1.368c-.592 0-1.116-.108-1.572-.324a2.646 2.646 0 0 1-1.092-.936c-.264-.416-.408-.912-.432-1.488a7.93 7.93 0 0 1-.012-.48c0-.2.004-.364.012-.492.024-.584.168-1.08.432-1.488a2.537 2.537 0 0 1 1.08-.948c.464-.216.992-.324 1.584-.324.552 0 1.024.08 1.416.24.392.152.712.344.96.576.248.232.432.472.552.72.128.24.196.452.204.636a.259.259 0 0 1-.084.216.32.32 0 0 1-.216.084h-1.524a.31.31 0 0 1-.204-.06.553.553 0 0 1-.132-.18c-.096-.248-.22-.424-.372-.528-.144-.104-.332-.156-.564-.156-.32 0-.568.104-.744.312-.168.208-.26.528-.276.96-.008.32-.008.604 0 .852.016.44.108.76.276.96.176.2.424.3.744.3.248 0 .444-.052.588-.156.144-.104.26-.28.348-.528.04-.08.084-.14.132-.18a.31.31 0 0 1 .204-.06h1.524c.08 0 .152.032.216.096a.228.228 0 0 1 .084.204 1.613 1.613 0 0 1-.12.48 2.543 2.543 0 0 1-.336.564c-.152.2-.352.388-.6.564-.24.168-.532.304-.876.408a4.159 4.159 0 0 1-1.2.156Zm4.51-.12a.292.292 0 0 1-.216-.084.292.292 0 0 1-.084-.216v-7.92c0-.088.028-.16.084-.216a.292.292 0 0 1 .216-.084h1.392c.08 0 .148.028.204.084a.274.274 0 0 1 .096.216v4.02l1.668-1.836a.877.877 0 0 1 .156-.144.409.409 0 0 1 .24-.06h1.608c.072 0 .132.028.18.084a.227.227 0 0 1 .084.18.295.295 0 0 1-.024.108.218.218 0 0 1-.072.096l-2.16 2.328 2.46 2.988c.064.064.096.128.096.192a.264.264 0 0 1-.276.264h-1.644c-.12 0-.208-.02-.264-.06a2.769 2.769 0 0 1-.156-.144l-1.896-2.28V76.2c0 .088-.032.16-.096.216a.278.278 0 0 1-.204.084h-1.392Z" fill="#fff"/></g><defs><clipPath id="b"><path fill="#fff" transform="translate(25.5 20.5)" d="M0 0h40v40H0z"/></clipPath><filter id="a" x="0" y="0" width="91" height="101" filterUnits="userSpaceOnUse" color-interpolation-filters="sRGB"><feFlood flood-opacity="0" result="BackgroundImageFix"/><feColorMatrix in="SourceAlpha" values="0 0 0 0 0 0 0 0 0 0 0 0 0 0 0 0 0 0 127 0" result="hardAlpha"/><feOffset dy="2"/><feGaussianBlur stdDeviation="4"/><feColorMatrix values="0 0 0 0 0 0 0 0 0 0 0 0 0 0 0 0 0 0 0.75 0"/><feBlend in2="BackgroundImageFix" result="effect1_dropShadow_505_556"/><feBlend in="SourceGraphic" in2="effect1_dropShadow_505_556" result="shape"/></filter></defs></svg>