<svg width="91" height="101" fill="none" xmlns="http://www.w3.org/2000/svg"><g filter="url(#a)"><rect x="8" y="6" width="75" height="85" rx="5" fill="#212529"/><g clip-path="url(#b)"><path d="M45.274 51.256a.792.792 0 0 1-.38-.1l-1.2-.713c-.18-.1-.09-.135-.036-.153.244-.082.289-.1.542-.244.027-.018.063-.01.09.009l.921.55c.036.019.081.019.108 0l3.602-2.085c.037-.018.055-.054.055-.1V44.26c0-.045-.018-.081-.054-.1l-3.603-2.076c-.036-.018-.081-.018-.108 0l-3.602 2.077c-.036.018-.055.063-.055.099v4.162c0 .036.019.08.055.1l.984.568c.532.27.866-.045.866-.361V44.62a.11.11 0 0 1 .109-.108h.46a.11.11 0 0 1 .109.108v4.108c0 .713-.389 1.128-1.066 1.128-.207 0-.37 0-.83-.226l-.948-.541a.762.762 0 0 1-.38-.66v-4.161c0-.271.145-.524.38-.66l3.602-2.085a.806.806 0 0 1 .758 0l3.602 2.086c.235.135.38.388.38.659v4.162c0 .27-.145.523-.38.659l-3.602 2.085a.923.923 0 0 1-.379.082Zm1.11-2.862c-1.58 0-1.904-.723-1.904-1.337a.11.11 0 0 1 .108-.108h.47c.054 0 .099.036.099.09.072.479.28.714 1.237.714.758 0 1.083-.172 1.083-.578 0-.235-.09-.406-1.273-.524-.984-.1-1.598-.316-1.598-1.101 0-.731.614-1.165 1.643-1.165 1.156 0 1.725.397 1.797 1.264a.145.145 0 0 1-.027.081c-.018.018-.045.036-.072.036h-.47a.106.106 0 0 1-.1-.08c-.108-.497-.388-.66-1.128-.66-.83 0-.93.29-.93.506 0 .262.118.343 1.237.487 1.11.145 1.634.352 1.634 1.129-.009.794-.659 1.246-1.805 1.246Z" fill="#539E43"/><path d="M34.097 34.978a.46.46 0 0 0-.235-.397l-3.827-2.203a.556.556 0 0 0-.208-.063h-.036a.428.428 0 0 0-.208.063l-3.828 2.203a.46.46 0 0 0-.235.397l.01 5.922c0 .082.045.163.117.199a.205.205 0 0 0 .226 0l2.275-1.3a.46.46 0 0 0 .235-.397V36.63a.46.46 0 0 1 .234-.397l.966-.56a.437.437 0 0 1 .235-.063c.081 0 .162.018.226.063l.966.56a.46.46 0 0 1 .234.397v2.772c0 .162.09.316.235.397l2.275 1.3a.22.22 0 0 0 .235 0 .224.224 0 0 0 .117-.199l-.009-5.922Zm18.4-8.152a.248.248 0 0 0-.226 0 .235.235 0 0 0-.117.198v5.868a.173.173 0 0 1-.082.145.173.173 0 0 1-.162 0l-.957-.55a.466.466 0 0 0-.46 0l-3.829 2.211a.46.46 0 0 0-.234.397v4.415c0 .162.09.316.234.397l3.828 2.212a.466.466 0 0 0 .46 0l3.829-2.212a.46.46 0 0 0 .235-.397V28.505a.463.463 0 0 0-.235-.407l-2.284-1.272Zm-.352 11.23c0 .046-.019.082-.055.1l-1.309.758a.134.134 0 0 1-.117 0l-1.31-.758c-.035-.018-.053-.063-.053-.1V36.54c0-.045.018-.081.054-.1l1.309-.758a.134.134 0 0 1 .117 0l1.31.758c.035.018.053.064.053.1v1.517Zm13.09-1.552a.45.45 0 0 0 .226-.398v-1.074a.47.47 0 0 0-.226-.397l-3.8-2.203a.466.466 0 0 0-.46 0l-3.829 2.212a.46.46 0 0 0-.235.397v4.415c0 .162.09.316.235.397l3.801 2.167a.449.449 0 0 0 .451 0l2.302-1.282a.224.224 0 0 0 .118-.199.224.224 0 0 0-.117-.198l-3.846-2.212a.235.235 0 0 1-.118-.199V36.55c0-.081.045-.163.117-.199l1.201-.686a.22.22 0 0 1 .235 0l1.2.686a.236.236 0 0 1 .118.199v1.083c0 .082.045.163.117.199a.22.22 0 0 0 .235 0l2.275-1.327Z" fill="#fff"/><path d="M61.146 36.296a.082.082 0 0 1 .09 0l.731.425a.095.095 0 0 1 .045.08v.85a.095.095 0 0 1-.045.08l-.731.425a.082.082 0 0 1-.09 0l-.732-.424a.095.095 0 0 1-.045-.082v-.848c0-.036.018-.063.045-.081l.732-.425Z" fill="#539E43"/><mask id="c" style="mask-type:alpha" maskUnits="userSpaceOnUse" x="36" y="32" width="9" height="11"><path d="M40.498 32.45a.466.466 0 0 0-.46 0l-3.801 2.194a.45.45 0 0 0-.226.397v4.397c0 .162.09.316.226.397l3.8 2.194a.465.465 0 0 0 .461 0l3.801-2.194a.451.451 0 0 0 .226-.397V35.04a.47.47 0 0 0-.226-.397l-3.8-2.194Z" fill="#fff"/></mask><g mask="url(#c)"><path d="M40.498 32.45a.466.466 0 0 0-.46 0l-3.801 2.194a.45.45 0 0 0-.226.397v4.397c0 .162.09.316.226.397l3.8 2.194a.465.465 0 0 0 .461 0l3.801-2.194a.451.451 0 0 0 .226-.397V35.04a.47.47 0 0 0-.226-.397l-3.8-2.194Z" fill="url(#d)"/><path d="m44.308 34.644-3.819-2.194a.623.623 0 0 0-.117-.045l-4.28 7.33c.036.044.078.08.127.11l3.819 2.193a.44.44 0 0 0 .352.045l4.017-7.349c-.027-.036-.063-.063-.1-.09Z" fill="url(#e)"/><path fill-rule="evenodd" clip-rule="evenodd" d="M44.317 39.835a.513.513 0 0 0 .226-.288l-4.19-7.15a.458.458 0 0 0-.324.053l-3.792 2.185 4.09 7.457a.632.632 0 0 0 .171-.054l3.819-2.203Z" fill="url(#f)"/><path fill-rule="evenodd" clip-rule="evenodd" d="m44.317 39.835-3.81 2.194a.545.545 0 0 1-.171.054l.072.136 4.225-2.447v-.054l-.108-.18a.42.42 0 0 1-.208.297Z" fill="url(#g)"/><path fill-rule="evenodd" clip-rule="evenodd" d="m44.317 39.835-3.81 2.194a.545.545 0 0 1-.171.054l.072.136 4.225-2.447v-.054l-.108-.18a.42.42 0 0 1-.208.297Z" fill="url(#h)"/></g></g><path d="M31.318 72.813a.292.292 0 0 1-.216-.085.292.292 0 0 1-.084-.215v-7.8c0-.088.028-.16.084-.216a.292.292 0 0 1 .216-.085h1.272c.136 0 .232.032.288.096.064.056.104.1.12.133l2.928 4.62v-4.548c0-.088.028-.16.084-.216a.292.292 0 0 1 .216-.085h1.44c.088 0 .16.028.216.084a.292.292 0 0 1 .084.217v7.8a.32.32 0 0 1-.084.215.292.292 0 0 1-.216.085h-1.284c-.128 0-.224-.032-.288-.097a1.618 1.618 0 0 1-.108-.131l-2.928-4.44v4.368c0 .087-.028.16-.084.215a.292.292 0 0 1-.216.085h-1.44Zm11.145.12c-.672 0-1.24-.109-1.704-.325a2.434 2.434 0 0 1-1.056-.924c-.24-.407-.376-.891-.408-1.451-.008-.16-.012-.34-.012-.54 0-.209.004-.388.012-.54.032-.569.176-1.053.432-1.453.256-.4.612-.707 1.068-.924.464-.215 1.02-.323 1.668-.323.656 0 1.212.108 1.668.323.464.217.824.525 1.08.925.256.4.4.884.432 1.452.008.151.012.331.012.54 0 .2-.004.38-.012.54-.032.56-.172 1.043-.42 1.451-.24.4-.592.709-1.056.925-.456.216-1.024.324-1.704.324Zm0-1.465c.36 0 .62-.108.78-.324.168-.216.264-.54.288-.972.008-.12.012-.28.012-.48 0-.2-.004-.36-.012-.48-.024-.424-.12-.743-.288-.96-.16-.224-.42-.335-.78-.335-.352 0-.612.111-.78.335-.168.217-.26.537-.276.96a7.57 7.57 0 0 0-.012.48c0 .2.004.36.012.48.016.433.108.757.276.972.168.216.428.325.78.325Zm6.7 1.465c-.384 0-.732-.06-1.044-.18a2.283 2.283 0 0 1-.792-.552 2.678 2.678 0 0 1-.504-.888 4.176 4.176 0 0 1-.204-1.2 8.035 8.035 0 0 1 0-.84c.016-.432.084-.82.204-1.164.12-.344.288-.64.504-.888.216-.249.48-.437.792-.565.312-.136.66-.204 1.044-.204.4 0 .744.069 1.032.204.288.128.532.296.732.504v-2.567c0-.089.028-.16.084-.217a.292.292 0 0 1 .216-.084h1.464c.08 0 .148.028.204.084a.274.274 0 0 1 .096.216v7.92c0 .088-.032.16-.096.216a.278.278 0 0 1-.204.085h-1.356a.292.292 0 0 1-.216-.085.292.292 0 0 1-.084-.215v-.385c-.192.233-.44.424-.744.576-.304.153-.68.229-1.128.229Zm.648-1.609c.272 0 .484-.055.636-.168.16-.12.276-.272.348-.456.08-.184.124-.383.132-.6a9.15 9.15 0 0 0 0-.9 1.4 1.4 0 0 0-.132-.552.968.968 0 0 0-.36-.42c-.16-.111-.368-.167-.624-.167-.264 0-.476.055-.636.167a.905.905 0 0 0-.324.457 2.565 2.565 0 0 0-.12.635 3.853 3.853 0 0 0 0 .745c.016.231.056.444.12.636a.905.905 0 0 0 .324.456c.16.112.372.168.636.168Zm7.474 1.609c-.944 0-1.696-.257-2.256-.769-.56-.511-.852-1.272-.876-2.28v-.42c.024-.632.164-1.171.42-1.62a2.58 2.58 0 0 1 1.08-1.031c.464-.24 1.004-.36 1.62-.36.704 0 1.284.14 1.74.42.464.28.812.66 1.044 1.14.232.48.348 1.027.348 1.643v.288c0 .088-.032.16-.096.216a.278.278 0 0 1-.204.085h-3.84v.084c.008.232.048.444.12.636a.977.977 0 0 0 .336.456.905.905 0 0 0 .552.167c.16 0 .292-.023.396-.072.112-.056.204-.116.276-.18a2.84 2.84 0 0 0 .168-.18.564.564 0 0 1 .168-.144.501.501 0 0 1 .216-.035h1.488a.26.26 0 0 1 .192.072c.056.04.08.1.072.18-.008.136-.076.3-.204.492a2.527 2.527 0 0 1-.564.575c-.24.184-.544.336-.912.456s-.796.18-1.284.18Zm-1.02-3.877h2.028v-.023c0-.257-.04-.48-.12-.672a.881.881 0 0 0-.348-.445.954.954 0 0 0-.552-.156c-.216 0-.4.052-.552.156a1.01 1.01 0 0 0-.336.445c-.08.191-.12.415-.12.671v.025Z" fill="#fff"/></g><defs><linearGradient id="d" x1="41.816" y1="34.086" x2="37.65" y2="40.632" gradientUnits="userSpaceOnUse"><stop stop-color="#41873F"/><stop offset=".329" stop-color="#418B3D"/><stop offset=".635" stop-color="#419637"/><stop offset=".932" stop-color="#3FA92D"/><stop offset="1" stop-color="#3FAE2A"/></linearGradient><linearGradient id="e" x1="39.691" y1="37.755" x2="50.124" y2="32.086" gradientUnits="userSpaceOnUse"><stop offset=".138" stop-color="#41873F"/><stop offset=".403" stop-color="#54A044"/><stop offset=".714" stop-color="#66B848"/><stop offset=".908" stop-color="#6CC04A"/></linearGradient><linearGradient id="f" x1="35.872" y1="37.24" x2="44.667" y2="37.24" gradientUnits="userSpaceOnUse"><stop offset=".092" stop-color="#6CC04A"/><stop offset=".286" stop-color="#66B848"/><stop offset=".597" stop-color="#54A044"/><stop offset=".862" stop-color="#41873F"/></linearGradient><linearGradient id="g" x1="35.873" y1="40.885" x2="44.667" y2="40.885" gradientUnits="userSpaceOnUse"><stop offset=".092" stop-color="#6CC04A"/><stop offset=".286" stop-color="#66B848"/><stop offset=".597" stop-color="#54A044"/><stop offset=".862" stop-color="#41873F"/></linearGradient><linearGradient id="h" x1="45.949" y1="33.878" x2="43.721" y2="45.553" gradientUnits="userSpaceOnUse"><stop stop-color="#41873F"/><stop offset=".329" stop-color="#418B3D"/><stop offset=".635" stop-color="#419637"/><stop offset=".932" stop-color="#3FA92D"/><stop offset="1" stop-color="#3FAE2A"/></linearGradient><clipPath id="b"><path fill="#fff" transform="translate(25.5 22.188)" d="M0 0h40v35.625H0z"/></clipPath><filter id="a" x="0" y="0" width="91" height="101" filterUnits="userSpaceOnUse" color-interpolation-filters="sRGB"><feFlood flood-opacity="0" result="BackgroundImageFix"/><feColorMatrix in="SourceAlpha" values="0 0 0 0 0 0 0 0 0 0 0 0 0 0 0 0 0 0 127 0" result="hardAlpha"/><feOffset dy="2"/><feGaussianBlur stdDeviation="4"/><feColorMatrix values="0 0 0 0 0 0 0 0 0 0 0 0 0 0 0 0 0 0 0.75 0"/><feBlend in2="BackgroundImageFix" result="effect1_dropShadow_505_574"/><feBlend in="SourceGraphic" in2="effect1_dropShadow_505_574" result="shape"/></filter></defs></svg>