<svg width="91" height="101" fill="none" xmlns="http://www.w3.org/2000/svg"><g filter="url(#a)"><rect x="8" y="6" width="75" height="85" rx="5" fill="#212529"/><g clip-path="url(#b)"><path d="M40.163 56a5.337 5.337 0 0 0 5.337-5.333v-5.334h-5.337a5.337 5.337 0 0 0-5.338 5.334A5.337 5.337 0 0 0 40.162 56Z" fill="#0ACF83"/><path d="M34.825 40a5.337 5.337 0 0 1 5.337-5.333H45.5v10.666h-5.337A5.337 5.337 0 0 1 34.825 40Z" fill="#A259FF"/><path d="M34.825 29.333A5.337 5.337 0 0 1 40.162 24H45.5v10.667h-5.337a5.337 5.337 0 0 1-5.338-5.334Z" fill="#F24E1E"/><path d="M45.5 24h5.337a5.337 5.337 0 0 1 5.338 5.333 5.337 5.337 0 0 1-5.338 5.334H45.5V24Z" fill="#FF7262"/><path d="M56.175 40A5.337 5.337 0 0 1 45.5 40a5.337 5.337 0 0 1 10.675 0Z" fill="#1ABCFE"/></g><path d="M28.265 71a.292.292 0 0 1-.216-.084.292.292 0 0 1-.084-.216v-7.8c0-.088.028-.16.084-.216a.292.292 0 0 1 .216-.084h5.508c.088 0 .16.028.216.084a.274.274 0 0 1 .096.216v1.212c0 .088-.032.16-.096.216a.292.292 0 0 1-.216.084h-3.696v1.764h3.456c.088 0 .16.032.216.096a.274.274 0 0 1 .096.216v1.2c0 .08-.032.152-.096.216a.292.292 0 0 1-.216.084h-3.456V70.7c0 .088-.028.16-.084.216a.292.292 0 0 1-.216.084h-1.512Zm7.532 0a.292.292 0 0 1-.216-.084.292.292 0 0 1-.084-.216v-5.64c0-.088.028-.16.084-.216a.292.292 0 0 1 .216-.084h1.416c.08 0 .148.028.204.084a.274.274 0 0 1 .096.216v5.64c0 .088-.032.16-.096.216a.278.278 0 0 1-.204.084h-1.416Zm-.012-7.14a.292.292 0 0 1-.216-.084.292.292 0 0 1-.084-.216v-1.068c0-.088.028-.16.084-.216a.274.274 0 0 1 .216-.096h1.428c.088 0 .16.032.216.096a.274.274 0 0 1 .096.216v1.068c0 .088-.032.16-.096.216a.292.292 0 0 1-.216.084h-1.428Zm6.194 9.78c-.616 0-1.128-.08-1.536-.24-.4-.16-.72-.352-.96-.576a2.305 2.305 0 0 1-.504-.672c-.104-.216-.16-.388-.168-.516a.242.242 0 0 1 .084-.216.335.335 0 0 1 .228-.084h1.524c.072 0 .132.016.18.048.056.04.1.104.132.192.04.088.092.18.156.276a.746.746 0 0 0 .288.228c.128.064.3.096.516.096.24 0 .44-.04.6-.12a.712.712 0 0 0 .36-.372c.08-.168.12-.396.12-.684v-.804c-.184.2-.42.364-.708.492-.288.12-.636.18-1.044.18-.408 0-.768-.06-1.08-.18a1.93 1.93 0 0 1-.78-.54 2.657 2.657 0 0 1-.492-.876 4.648 4.648 0 0 1-.204-1.188 8.115 8.115 0 0 1 0-.624 4.58 4.58 0 0 1 .204-1.164c.112-.344.272-.64.48-.888.216-.248.48-.436.792-.564a2.681 2.681 0 0 1 1.08-.204c.432 0 .8.084 1.104.252.312.16.568.364.768.612v-.444c0-.08.028-.148.084-.204a.274.274 0 0 1 .216-.096h1.38c.088 0 .16.032.216.096a.261.261 0 0 1 .096.204v5.772c0 .608-.124 1.12-.372 1.536a2.375 2.375 0 0 1-1.068.948c-.464.216-1.028.324-1.692.324Zm-.084-4.332c.256 0 .464-.056.624-.168a.964.964 0 0 0 .348-.432c.08-.176.124-.364.132-.564.008-.088.012-.212.012-.372s-.004-.28-.012-.36a1.52 1.52 0 0 0-.132-.576.894.894 0 0 0-.348-.42c-.16-.112-.368-.168-.624-.168-.264 0-.476.056-.636.168a.977.977 0 0 0-.336.456 2.565 2.565 0 0 0-.12.636 6.077 6.077 0 0 0 0 .54c.016.232.056.444.12.636a.977.977 0 0 0 .336.456c.16.112.372.168.636.168ZM46.825 71a.292.292 0 0 1-.217-.084.292.292 0 0 1-.084-.216v-5.64c0-.088.028-.16.084-.216a.292.292 0 0 1 .216-.084h1.308c.088 0 .16.028.216.084a.292.292 0 0 1 .084.216v.408c.16-.216.384-.404.672-.564a2.075 2.075 0 0 1 1.02-.264c.92-.016 1.552.332 1.896 1.044.184-.304.448-.552.792-.744.344-.2.72-.3 1.128-.3.416 0 .788.096 1.116.288.336.184.604.472.804.864.2.384.3.884.3 1.5V70.7c0 .088-.032.16-.096.216a.278.278 0 0 1-.204.084h-1.392a.335.335 0 0 1-.228-.084.292.292 0 0 1-.084-.216v-3.324c0-.28-.04-.5-.12-.66a.757.757 0 0 0-.324-.36.985.985 0 0 0-.9 0 .82.82 0 0 0-.336.36c-.08.16-.12.38-.12.66V70.7c0 .088-.028.16-.084.216a.292.292 0 0 1-.216.084h-1.392a.292.292 0 0 1-.216-.084.292.292 0 0 1-.084-.216v-3.324c0-.28-.044-.5-.132-.66a.82.82 0 0 0-.336-.36.96.96 0 0 0-.888 0 .82.82 0 0 0-.336.36c-.08.16-.12.376-.12.648V70.7c0 .088-.032.16-.096.216a.292.292 0 0 1-.216.084h-1.416Zm12.552.12c-.432 0-.82-.08-1.164-.24a2.145 2.145 0 0 1-.804-.672c-.2-.28-.3-.596-.3-.948 0-.568.232-1.016.696-1.344.464-.336 1.08-.564 1.848-.684l1.5-.228v-.168c0-.288-.06-.508-.18-.66-.12-.152-.34-.228-.66-.228-.224 0-.408.044-.552.132a.942.942 0 0 0-.324.36.345.345 0 0 1-.3.156h-1.344c-.088 0-.156-.024-.204-.072a.243.243 0 0 1-.06-.192c0-.144.052-.308.156-.492.112-.192.28-.38.504-.564.224-.184.512-.336.864-.456s.776-.18 1.272-.18c.52 0 .964.06 1.332.18.368.12.664.288.888.504.232.216.404.472.516.768.112.288.168.608.168.96V70.7c0 .088-.032.16-.096.216a.278.278 0 0 1-.204.084h-1.392a.292.292 0 0 1-.216-.084.292.292 0 0 1-.084-.216v-.42a1.742 1.742 0 0 1-.42.42 2.055 2.055 0 0 1-.624.3c-.232.08-.504.12-.816.12Zm.564-1.368c.232 0 .44-.048.624-.144.192-.104.34-.26.444-.468.112-.216.168-.484.168-.804v-.168l-1.02.18c-.376.064-.652.164-.828.3-.168.128-.252.28-.252.456 0 .136.04.252.12.348.08.096.184.172.312.228.128.048.272.072.432.072Z" fill="#fff"/></g><defs><clipPath id="b"><path fill="#fff" transform="translate(34.823 24)" d="M0 0h21.353v32H0z"/></clipPath><filter id="a" x="0" y="0" width="91" height="101" filterUnits="userSpaceOnUse" color-interpolation-filters="sRGB"><feFlood flood-opacity="0" result="BackgroundImageFix"/><feColorMatrix in="SourceAlpha" values="0 0 0 0 0 0 0 0 0 0 0 0 0 0 0 0 0 0 127 0" result="hardAlpha"/><feOffset dy="2"/><feGaussianBlur stdDeviation="4"/><feColorMatrix values="0 0 0 0 0 0 0 0 0 0 0 0 0 0 0 0 0 0 0.75 0"/><feBlend in2="BackgroundImageFix" result="effect1_dropShadow_505_172"/><feBlend in="SourceGraphic" in2="effect1_dropShadow_505_172" result="shape"/></filter></defs></svg>