<svg width="91" height="101" fill="none" xmlns="http://www.w3.org/2000/svg"><g filter="url(#a)"><rect x="8" y="6" width="75" height="85" rx="5" fill="#212529"/><g clip-path="url(#b)"><path d="M25.5 28.684v13.36h11.12v2.239h8.88v-2.24h20V28.684h-40Z" fill="#CB3837"/><path d="M32.14 30.923h-4.4v8.88h4.4v-6.64h2.24v6.64h2.24v-8.88h-4.48Zm6.719 0v11.12h4.479v-2.24h4.401v-8.88h-8.88Zm6.64 6.641h-2.161v-4.401H45.5v4.401Zm8.881-6.64H49.98v8.88h4.401v-6.641h2.24v6.64h2.239v-6.64h2.24v6.64h2.239v-8.88H54.38Z" fill="#fff"/></g><path d="M33.052 64.316a.292.292 0 0 1-.216-.084.292.292 0 0 1-.084-.216v-7.8c0-.088.028-.16.084-.216a.292.292 0 0 1 .216-.084h1.272c.136 0 .232.032.288.096.064.056.104.1.12.132l2.928 4.62v-4.548c0-.088.028-.16.084-.216a.292.292 0 0 1 .216-.084h1.44c.088 0 .16.028.216.084a.292.292 0 0 1 .084.216v7.8a.32.32 0 0 1-.084.216.292.292 0 0 1-.216.084h-1.284c-.128 0-.224-.032-.288-.096a1.618 1.618 0 0 1-.108-.132l-2.928-4.44v4.368c0 .088-.028.16-.084.216a.292.292 0 0 1-.216.084h-1.44Zm8.493 2.28a.292.292 0 0 1-.216-.084.292.292 0 0 1-.084-.216v-7.92c0-.088.028-.16.084-.216a.292.292 0 0 1 .216-.084h1.356c.08 0 .148.028.204.084a.274.274 0 0 1 .096.216v.444c.184-.248.428-.452.732-.612.304-.168.68-.252 1.128-.252.4 0 .752.064 1.056.192.304.12.564.3.78.54.216.24.384.532.504.876.128.344.2.74.216 1.188a8.935 8.935 0 0 1 0 .888c-.016.432-.084.82-.204 1.164-.12.344-.288.636-.504.876a2.27 2.27 0 0 1-.792.564 2.704 2.704 0 0 1-1.056.192 2.45 2.45 0 0 1-1.032-.204 2.013 2.013 0 0 1-.72-.6v2.664c0 .088-.028.16-.084.216a.292.292 0 0 1-.216.084h-1.464Zm2.868-3.768c.272 0 .484-.056.636-.168a.905.905 0 0 0 .324-.456c.072-.192.116-.404.132-.636a5.772 5.772 0 0 0 0-.744 2.243 2.243 0 0 0-.132-.636.905.905 0 0 0-.324-.456c-.152-.112-.364-.168-.636-.168-.264 0-.476.06-.636.18a.954.954 0 0 0-.348.444 1.82 1.82 0 0 0-.12.6 8.451 8.451 0 0 0 0 .9c.008.2.052.388.132.564.08.168.2.308.36.42.16.104.364.156.612.156Zm4.702 1.488a.292.292 0 0 1-.216-.084.292.292 0 0 1-.084-.216v-5.64c0-.088.028-.16.084-.216a.292.292 0 0 1 .216-.084h1.308c.088 0 .16.028.216.084a.292.292 0 0 1 .084.216v.408c.16-.216.384-.404.672-.564a2.075 2.075 0 0 1 1.02-.264c.92-.016 1.552.332 1.896 1.044.184-.304.448-.552.792-.744.344-.2.72-.3 1.128-.3.416 0 .788.096 1.116.288.336.184.604.472.804.864.2.384.3.884.3 1.5v3.408c0 .088-.032.16-.096.216a.278.278 0 0 1-.204.084H56.76a.335.335 0 0 1-.228-.084.292.292 0 0 1-.084-.216v-3.324c0-.28-.04-.5-.12-.66a.757.757 0 0 0-.324-.36.985.985 0 0 0-.9 0 .82.82 0 0 0-.336.36c-.08.16-.12.38-.12.66v3.324c0 .088-.028.16-.084.216a.292.292 0 0 1-.216.084h-1.392a.292.292 0 0 1-.216-.084.292.292 0 0 1-.084-.216v-3.324c0-.28-.044-.5-.132-.66a.82.82 0 0 0-.336-.36.96.96 0 0 0-.888 0 .82.82 0 0 0-.336.36c-.08.16-.12.376-.12.648v3.336c0 .088-.032.16-.096.216a.292.292 0 0 1-.216.084h-1.416Z" fill="#fff"/></g><defs><clipPath id="b"><path fill="#fff" transform="translate(25.5 28.684)" d="M0 0h40v15.632H0z"/></clipPath><filter id="a" x="0" y="0" width="91" height="101" filterUnits="userSpaceOnUse" color-interpolation-filters="sRGB"><feFlood flood-opacity="0" result="BackgroundImageFix"/><feColorMatrix in="SourceAlpha" values="0 0 0 0 0 0 0 0 0 0 0 0 0 0 0 0 0 0 127 0" result="hardAlpha"/><feOffset dy="2"/><feGaussianBlur stdDeviation="4"/><feColorMatrix values="0 0 0 0 0 0 0 0 0 0 0 0 0 0 0 0 0 0 0.75 0"/><feBlend in2="BackgroundImageFix" result="effect1_dropShadow_505_477"/><feBlend in="SourceGraphic" in2="effect1_dropShadow_505_477" result="shape"/></filter></defs></svg>