
<svg width="91" height="101" fill="none" xmlns="http://www.w3.org/2000/svg"><g filter="url(#a)"><rect x="8" y="6" width="75" height="85" rx="5" fill="#212529"/><g clip-path="url(#b)"><path fill-rule="evenodd" clip-rule="evenodd" d="m128.765 41.972.521 1.344h1.882v-6.584c0-1.178-.353-2.056-1.06-2.633-.707-.578-1.723-.867-3.049-.867-1.384 0-2.645.298-3.782.893l.892 1.82c1.066-.477 1.994-.715 2.784-.715 1.025 0 1.538.5 1.538 1.502v.433l-1.715.053c-1.478.053-2.584.329-3.318.826-.734.498-1.1 1.272-1.1 2.32 0 1.002.272 1.774.817 2.316.545.542 1.292.813 2.24.813.772 0 1.398-.111 1.878-.332.48-.22.947-.617 1.401-1.189h.071Zm-1.317-3.199 1.043-.035v.813c0 .595-.187 1.072-.562 1.432-.373.36-.873.539-1.497.539-.872 0-1.308-.38-1.308-1.14 0-.53.191-.925.574-1.184.383-.26.966-.4 1.75-.425Zm-68.11 9.467L41.4 53.544c-.548.163-1.073-.311-.958-.864l6.408-30.687c.12-.573.913-.664 1.163-.133l11.864 25.194a.857.857 0 0 1-.54 1.186Zm3.075-1.252-13.737-29.17v-.001a2.202 2.202 0 0 0-1.878-1.255 2.18 2.18 0 0 0-2.007 1.04L29.892 41.733a2.257 2.257 0 0 0 .027 2.423l7.282 11.28a2.343 2.343 0 0 0 2.631.968l21.14-6.252a2.316 2.316 0 0 0 1.454-1.257 2.268 2.268 0 0 0-.013-1.907Z" fill="#fff"/></g><path d="M25.693 76.5a.292.292 0 0 1-.216-.084.292.292 0 0 1-.084-.216v-7.8c0-.088.028-.16.084-.216a.292.292 0 0 1 .216-.084h3.36c.664 0 1.24.104 1.728.312.496.2.88.504 1.152.912.28.408.42.924.42 1.548 0 .616-.14 1.124-.42 1.524-.272.4-.656.696-1.152.888-.488.192-1.064.288-1.728.288h-1.428V76.2c0 .088-.032.16-.096.216a.292.292 0 0 1-.216.084h-1.62Zm1.896-4.584h1.404c.344 0 .616-.088.816-.264.208-.176.312-.444.312-.804 0-.304-.088-.56-.264-.768-.176-.208-.464-.312-.864-.312h-1.404v2.148ZM33.67 76.5a.292.292 0 0 1-.216-.084.292.292 0 0 1-.084-.216v-5.64c0-.08.028-.148.084-.204a.274.274 0 0 1 .216-.096h1.38c.088 0 .16.032.216.096a.278.278 0 0 1 .084.204v.48c.216-.248.472-.44.768-.576a2.47 2.47 0 0 1 1.02-.204h.528c.08 0 .148.028.204.084a.274.274 0 0 1 .096.216v1.236c0 .08-.032.152-.096.216a.278.278 0 0 1-.204.084h-1.164c-.328 0-.584.092-.768.276-.176.176-.264.428-.264.756V76.2c0 .088-.032.16-.096.216a.292.292 0 0 1-.216.084H33.67Zm5.45 0a.292.292 0 0 1-.217-.084.292.292 0 0 1-.084-.216v-5.64c0-.088.028-.16.084-.216a.292.292 0 0 1 .216-.084h1.416c.08 0 .148.028.204.084a.274.274 0 0 1 .096.216v5.64c0 .088-.032.16-.096.216a.278.278 0 0 1-.204.084H39.12Zm-.013-7.14a.292.292 0 0 1-.216-.084.292.292 0 0 1-.084-.216v-1.068c0-.088.028-.16.084-.216a.274.274 0 0 1 .216-.096h1.428c.088 0 .16.032.216.096a.274.274 0 0 1 .096.216v1.068c0 .088-.032.16-.096.216a.292.292 0 0 1-.216.084h-1.428Zm5.925 7.26c-.52 0-.964-.056-1.332-.168a3.28 3.28 0 0 1-.888-.432 2.028 2.028 0 0 1-.504-.516c-.112-.184-.172-.34-.18-.468a.242.242 0 0 1 .084-.216.287.287 0 0 1 .204-.096h1.368c.024 0 .044.004.06.012s.04.024.072.048c.104.056.208.128.312.216.104.08.224.152.36.216.136.064.3.096.492.096.224 0 .412-.044.564-.132a.43.43 0 0 0 .228-.396.449.449 0 0 0-.108-.312c-.072-.088-.22-.172-.444-.252-.216-.08-.544-.16-.984-.24a5.128 5.128 0 0 1-1.092-.372 1.884 1.884 0 0 1-.72-.612c-.168-.256-.252-.564-.252-.924 0-.32.104-.628.312-.924.208-.296.512-.536.912-.72.4-.192.892-.288 1.476-.288.464 0 .864.056 1.2.168.344.104.632.24.864.408.24.168.42.34.54.516.12.176.184.336.192.48a.275.275 0 0 1-.072.216.264.264 0 0 1-.192.084h-1.248A.395.395 0 0 1 46.16 72a.785.785 0 0 1-.084-.048 1.503 1.503 0 0 1-.288-.192 1.733 1.733 0 0 0-.336-.216 1.069 1.069 0 0 0-.48-.096c-.216 0-.384.048-.504.144a.48.48 0 0 0-.084.66c.072.088.212.168.42.24.216.072.548.152.996.24.552.088.992.232 1.32.432.328.192.56.42.696.684.136.256.204.528.204.816 0 .384-.116.724-.348 1.02-.224.296-.56.528-1.008.696-.448.16-.992.24-1.632.24Zm4.365-.12a.292.292 0 0 1-.216-.084.292.292 0 0 1-.084-.216v-5.64c0-.088.028-.16.084-.216a.292.292 0 0 1 .216-.084h1.308c.088 0 .16.028.216.084a.292.292 0 0 1 .084.216v.408c.16-.216.384-.404.672-.564a2.075 2.075 0 0 1 1.02-.264c.92-.016 1.552.332 1.896 1.044.184-.304.448-.552.792-.744.344-.2.72-.3 1.128-.3.416 0 .788.096 1.116.288.336.184.604.472.804.864.2.384.3.884.3 1.5V76.2c0 .088-.032.16-.096.216a.278.278 0 0 1-.204.084H57.04a.335.335 0 0 1-.228-.084.292.292 0 0 1-.084-.216v-3.324c0-.28-.04-.5-.12-.66a.757.757 0 0 0-.324-.36.985.985 0 0 0-.9 0 .82.82 0 0 0-.336.36c-.08.16-.12.38-.12.66V76.2c0 .088-.028.16-.084.216a.292.292 0 0 1-.216.084h-1.392a.292.292 0 0 1-.216-.084.292.292 0 0 1-.084-.216v-3.324c0-.28-.044-.5-.132-.66a.82.82 0 0 0-.336-.36.96.96 0 0 0-.888 0 .82.82 0 0 0-.336.36c-.08.16-.12.376-.12.648V76.2c0 .088-.032.16-.096.216a.292.292 0 0 1-.216.084h-1.416Zm12.552.12c-.432 0-.82-.08-1.164-.24a2.145 2.145 0 0 1-.804-.672c-.2-.28-.3-.596-.3-.948 0-.568.232-1.016.696-1.344.464-.336 1.08-.564 1.848-.684l1.5-.228v-.168c0-.288-.06-.508-.18-.66-.12-.152-.34-.228-.66-.228-.224 0-.408.044-.552.132a.942.942 0 0 0-.324.36.345.345 0 0 1-.3.156h-1.344c-.088 0-.156-.024-.204-.072a.243.243 0 0 1-.06-.192c0-.144.052-.308.156-.492.112-.192.28-.38.504-.564.224-.184.512-.336.864-.456s.776-.18 1.272-.18c.52 0 .964.06 1.332.18.368.12.664.288.888.504.232.216.404.472.516.768.112.288.168.608.168.96V76.2c0 .088-.032.16-.096.216a.278.278 0 0 1-.204.084H64.11a.292.292 0 0 1-.216-.084.292.292 0 0 1-.084-.216v-.42a1.742 1.742 0 0 1-.42.42 2.055 2.055 0 0 1-.624.3c-.232.08-.504.12-.816.12Zm.564-1.368c.232 0 .44-.048.624-.144.192-.104.34-.26.444-.468.112-.216.168-.484.168-.804v-.168l-1.02.18c-.376.064-.652.164-.828.3-.168.128-.252.28-.252.456 0 .136.04.252.12.348.08.096.184.172.312.228.128.048.272.072.432.072Z" fill="#fff"/></g><defs><clipPath id="b"><path fill="#fff" transform="translate(25.5 16.5)" d="M0 0h40v40H0z"/></clipPath><filter id="a" x="0" y="0" width="91" height="101" filterUnits="userSpaceOnUse" color-interpolation-filters="sRGB"><feFlood flood-opacity="0" result="BackgroundImageFix"/><feColorMatrix in="SourceAlpha" values="0 0 0 0 0 0 0 0 0 0 0 0 0 0 0 0 0 0 127 0" result="hardAlpha"/><feOffset dy="2"/><feGaussianBlur stdDeviation="4"/><feColorMatrix values="0 0 0 0 0 0 0 0 0 0 0 0 0 0 0 0 0 0 0.75 0"/><feBlend in2="BackgroundImageFix" result="effect1_dropShadow_505_1081"/><feBlend in="SourceGraphic" in2="effect1_dropShadow_505_1081" result="shape"/></filter></defs></svg>