<svg width="91" height="101" fill="none" xmlns="http://www.w3.org/2000/svg"><g filter="url(#a)"><rect x="8" y="6" width="75" height="85" rx="5" fill="#212529"/><g clip-path="url(#b)"><path d="M45.51 18.498c10.93.022 19.703 8.718 19.983 19.46.298 11.537-9.102 20.801-20.451 20.539-10.611-.241-19.053-8.71-19.52-19.07-.52-11.481 8.664-20.937 19.987-20.929Z" fill="#3398C2"/><path d="M38.142 32.506c.13-.507.319-.997.56-1.465.236-.45.573-.787 1.061-.95.35-.113.643-.314.905-.58a5.466 5.466 0 0 1 3.358-1.618c.215-.022.324-.101.406-.302.197-.478.441-.937.765-1.343.427-.538.94-.94 1.679-.896.467.026.857.223 1.14.6.32.418.556.887.783 1.36.075.153.136.21.324.17.69-.154 1.25.148 1.547.79.345.752.512 1.548.594 2.362.175 1.692.062 3.358-.511 4.98a11.25 11.25 0 0 1-1.386 2.666c-.069.1-.087.166.009.27 1.543 1.732 2.3 3.752 2.212 6.078v.166c.109.006.193-.06.276-.105.682-.35 1.303-.796 1.99-1.141.965-.485 1.976-.826 3.072-.817 1.621.013 2.663 1.591 1.984 2.998-.267.555-.703.95-1.302 1.08-1.093.244-2.064.74-2.99 1.347-1.526 1.014-3.197 1.767-4.945 2.343-.117.04-.228.087-.329.167-.467.35-1.013.493-1.583.573-1.727.24-3.462.345-5.203.419-.716.031-1.43-.066-2.063-.446-.17-.106-.319-.302-.494-.332-.17-.026-.363.13-.551.175-1.115.25-2.16.04-3.126-.546-.573-.345-.844-.892-.814-1.565a.659.659 0 0 0-.148-.454c-.464-.648-.69-1.386-.818-2.165-.249-1.534.298-2.802 1.311-3.913a.476.476 0 0 0 .13-.35c0-1.534.293-2.995 1.08-4.332.441-.748 1.01-1.39 1.645-1.972.122-.109.135-.183.053-.323-.268-.446-.433-.936-.578-1.435-.122-.087-.043-.223-.093-.332-.008-.082 0-.167-.026-.25v-.546c.021-.079.021-.161.021-.244.02-.04.012-.093.055-.122Z" fill="#FEFEFE"/><path d="M38.129 33.665c.035.109-.008.23.056.337-.018.013-.018.1-.043.04a1.021 1.021 0 0 1-.083-.377c-.008-.42-.047-.844.07-1.26.005.035.008.07.018.1-.005.04-.008.08-.013.115-.04.074.005.162-.035.236v.573c.03.074-.008.161.03.236Z" fill="#3298C3"/><path d="M50.414 44.856c0 .403-.092.795-.143 1.188-.043.346-.008.385.342.324.787-.135 1.499-.467 2.186-.857.734-.42 1.434-.896 2.22-1.21.608-.244 1.229-.406 1.89-.406.572 0 .97.31 1.04.8.065.455-.184.889-.64.985-1.302.275-2.427.918-3.523 1.63-1.47.95-3.07 1.635-4.735 2.16-.061.019-.14.032-.18.07-.393.416-.913.485-1.438.554-1.473.194-2.956.28-4.442.367-.427.026-.856.04-1.284-.043-.682-.135-.97-.39-1.075-.95-.092-.503.144-.978.647-1.307.053-.035.11-.07.193-.122a2.179 2.179 0 0 1-.663-.608c-.083-.114-.127-.043-.154.053-.082.316-.167.634-.25.95-.055.21-.126.416-.214.615-.254.582-.716.862-1.329.918-.626.056-1.215-.082-1.775-.358-.384-.188-.498-.472-.371-.888.066-.223.193-.416.345-.652-.529.105-.761-.202-.945-.573-.41-.814-.551-1.674-.384-2.566.135-.708.551-1.285 1.05-1.783.292-.292.38-.573.371-.984-.066-2.374.83-4.324 2.677-5.832.162-.135.323-.275.493-.398.106-.074.117-.122.032-.23-.477-.6-.849-1.25-1.019-2.007-.193-.852.096-1.591.525-2.3.061-.095.157-.143.263-.183a3.714 3.714 0 0 0 1.403-.896c.926-.927 2.072-1.351 3.383-1.295.167.008.241-.04.292-.196.197-.573.441-1.125.77-1.635.122-.193.257-.371.432-.515.324-.267.6-.228.817.127.403.642.714 1.334 1.027 2.024.08.175.14.236.324.117.215-.135.454-.23.695-.315.193-.066.305-.021.39.18.244.59.376 1.207.45 1.841.022.175.062.345.04.52-.013.38.005.761.008 1.146 0 .17-.06.342-.008.515-.04 1.04-.315 2.024-.716 2.977-.377.892-.923 1.682-1.47 2.475-.215.305-.21.31.07.56 1.363 1.228 2.116 2.772 2.369 4.573.008.07.005.144.005.218-.056.167.005.328.008.49.015.246-.041.492.002.732Z" fill="#3398C2"/><path d="M50.152 32.834c-.053-.043-.04-.105-.04-.161v-1.334c0-.057-.013-.118.04-.162a7.725 7.725 0 0 1 0 1.657Z" fill="#2B95C1"/><path d="M50.415 44.856c-.088-.337-.019-.677-.04-1.014-.005-.07-.026-.149.04-.205.056.406.047.813 0 1.219Z" fill="#2693BF"/><path d="M38.094 32.856c.005-.08-.034-.167.035-.236 0 .077.005.161-.035.236Zm.035.809c-.066-.07-.032-.157-.035-.236.045.074.035.157.035.236Z" fill="#3398C2"/></g><path d="M35.194 74.502a.32.32 0 0 1-.216-.084.292.292 0 0 1-.084-.216v-2.58l-2.783-5.136a.466.466 0 0 0-.024-.06.23.23 0 0 1 .06-.24.264.264 0 0 1 .192-.084h1.5c.12 0 .212.032.276.096a.369.369 0 0 1 .131.156l1.728 3.096 1.729-3.096a.546.546 0 0 1 .131-.156.418.418 0 0 1 .288-.096h1.5c.072 0 .133.028.18.084a.23.23 0 0 1 .06.24.197.197 0 0 1-.012.06l-2.796 5.136v2.58c0 .088-.028.16-.084.216a.292.292 0 0 1-.215.084h-1.56Zm6.265.12c-.432 0-.82-.08-1.164-.24a2.145 2.145 0 0 1-.804-.672c-.2-.28-.3-.596-.3-.948 0-.568.232-1.016.696-1.344.464-.336 1.08-.564 1.848-.684l1.5-.228v-.168c0-.288-.06-.508-.18-.66-.12-.152-.34-.228-.66-.228-.224 0-.408.044-.552.132a.942.942 0 0 0-.324.36.345.345 0 0 1-.3.156h-1.344c-.088 0-.156-.024-.204-.072a.243.243 0 0 1-.06-.192c0-.144.052-.308.156-.492.112-.192.28-.38.504-.564.224-.184.512-.336.864-.456s.776-.18 1.272-.18c.52 0 .964.06 1.332.18.368.12.664.288.888.504.232.216.404.472.516.768.112.288.168.608.168.96v3.648c0 .088-.032.16-.096.216a.278.278 0 0 1-.204.084h-1.392a.292.292 0 0 1-.216-.084.292.292 0 0 1-.084-.216v-.42a1.742 1.742 0 0 1-.42.42 2.055 2.055 0 0 1-.624.3c-.232.08-.504.12-.816.12Zm.564-1.368c.232 0 .44-.048.624-.144.192-.104.34-.26.444-.468.112-.216.168-.484.168-.804v-.168l-1.02.18c-.376.064-.652.164-.828.3-.168.128-.252.28-.252.456 0 .136.04.252.12.348.08.096.184.172.312.228.128.048.272.072.432.072Zm4.942 1.248a.292.292 0 0 1-.216-.084.292.292 0 0 1-.084-.216v-5.64c0-.08.028-.148.084-.204a.274.274 0 0 1 .216-.096h1.38c.088 0 .16.032.216.096a.278.278 0 0 1 .084.204v.48c.216-.248.472-.44.768-.576a2.47 2.47 0 0 1 1.02-.204h.528c.08 0 .148.028.204.084a.274.274 0 0 1 .096.216v1.236c0 .08-.032.152-.096.216a.278.278 0 0 1-.204.084h-1.164c-.328 0-.584.092-.768.276-.176.176-.264.428-.264.756v3.072c0 .088-.032.16-.096.216a.292.292 0 0 1-.216.084h-1.488Zm5.45 0a.293.293 0 0 1-.217-.084.293.293 0 0 1-.084-.216v-5.64c0-.088.028-.16.084-.216a.293.293 0 0 1 .216-.084h1.38c.088 0 .16.028.216.084a.292.292 0 0 1 .084.216v.456c.208-.248.48-.456.816-.624.336-.168.732-.252 1.188-.252.464 0 .872.104 1.224.312.36.208.64.516.84.924.208.4.312.892.312 1.476v3.348c0 .088-.032.16-.096.216a.278.278 0 0 1-.204.084h-1.512a.32.32 0 0 1-.216-.084.292.292 0 0 1-.084-.216v-3.276c0-.376-.092-.664-.276-.864-.176-.208-.44-.312-.792-.312-.328 0-.592.104-.792.312-.192.2-.288.488-.288.864v3.276c0 .088-.032.16-.096.216a.278.278 0 0 1-.204.084h-1.5Z" fill="#fff"/></g><defs><clipPath id="b"><path fill="#fff" transform="translate(25.5 18.498)" d="M0 0h40v40.003H0z"/></clipPath><filter id="a" x="0" y="0" width="91" height="101" filterUnits="userSpaceOnUse" color-interpolation-filters="sRGB"><feFlood flood-opacity="0" result="BackgroundImageFix"/><feColorMatrix in="SourceAlpha" values="0 0 0 0 0 0 0 0 0 0 0 0 0 0 0 0 0 0 127 0" result="hardAlpha"/><feOffset dy="2"/><feGaussianBlur stdDeviation="4"/><feColorMatrix values="0 0 0 0 0 0 0 0 0 0 0 0 0 0 0 0 0 0 0.75 0"/><feBlend in2="BackgroundImageFix" result="effect1_dropShadow_505_316"/><feBlend in="SourceGraphic" in2="effect1_dropShadow_505_316" result="shape"/></filter></defs></svg>