<svg width="91" height="101" fill="none" xmlns="http://www.w3.org/2000/svg"><g filter="url(#a)"><rect x="8" y="6" width="75" height="85" rx="5" fill="#212529"/><g clip-path="url(#b)"><path d="M29.502 22.752h31.996v31.496H29.502V22.752Z" fill="url(#c)"/><path d="M32.047 25.256h26.907v26.488H32.046V25.256Z" fill="url(#d)"/><path d="M37.234 31.629s2.023-.053 3.688-.053c1.683 0 2.883.396 3.688 1.093.77.658 1.29 1.78 1.29 3.057s-.395 2.322-1.11 3.057c-.932.948-2.017 1.51-3.868 1.587-.511.021-.984.026-.984.026v4.152h-2.704V31.629Zm2.703 6.467c.294.029.478.015.914.01 1.45-.018 2.345-.9 2.345-2.236 0-1.199-.738-2.184-2.13-2.235-.555-.02-1.129 0-1.129 0v4.461Z" fill="url(#e)"/><path d="M46.931 41.656c.545.334 1.83.836 2.707.836.896 0 1.266-.316 1.266-.809 0-.493-.293-1.011-1.402-1.386-1.967-.67-2.726-1.472-2.707-2.596 0-1.814 1.519-3.174 3.875-3.174 1.11 0 1.996.363 2.58.659v2.177c-.429-.237-1.665-.766-2.483-.766-.72 0-1.13.296-1.13.789 0 .453.371.69 1.54 1.104 1.81.63 2.569 1.557 2.588 2.977 0 1.794-1.381 3.22-4.127 3.134-.943-.03-1.987-.402-2.707-.796v-2.15Z" fill="url(#f)"/></g><path d="M23.848 65.488c0 .407-.093.78-.28 1.12-.187.334-.473.604-.86.81-.387.207-.867.31-1.44.31h-1.06v2.52h-1.71v-7.02h2.77c.56 0 1.033.097 1.42.29.387.194.677.46.87.8.193.34.29.73.29 1.17Zm-2.71.88c.327 0 .57-.076.73-.23.16-.153.24-.37.24-.65s-.08-.496-.24-.65c-.16-.153-.403-.23-.73-.23h-.93v1.76h.93Zm7.03-1.76c.64 0 1.154.214 1.54.64.387.42.58 1 .58 1.74v3.26h-1.7v-3.03c0-.373-.097-.663-.29-.87-.193-.206-.453-.31-.78-.31-.326 0-.587.104-.78.31-.193.207-.29.497-.29.87v3.03h-1.71v-7.4h1.71v2.57c.174-.246.41-.443.71-.59.3-.146.637-.22 1.01-.22Zm5.848 5.72a3.11 3.11 0 0 1-1.48-.35 2.606 2.606 0 0 1-1.03-1c-.246-.433-.37-.94-.37-1.52 0-.573.127-1.076.38-1.51.254-.44.6-.776 1.04-1.01a3.11 3.11 0 0 1 1.48-.35c.547 0 1.04.117 1.48.35.44.234.787.57 1.04 1.01.254.434.38.937.38 1.51 0 .574-.13 1.08-.39 1.52a2.571 2.571 0 0 1-1.05 1 3.11 3.11 0 0 1-1.48.35Zm0-1.48c.327 0 .604-.12.83-.36.234-.24.35-.583.35-1.03 0-.446-.113-.79-.34-1.03-.22-.24-.493-.36-.82-.36-.333 0-.61.12-.83.36-.22.234-.33.577-.33 1.03 0 .447.107.79.32 1.03.22.24.494.36.82.36Zm6.938-.05v1.45h-.87c-.62 0-1.104-.15-1.45-.45-.347-.306-.52-.803-.52-1.49v-2.22h-.68v-1.42h.68v-1.36h1.71v1.36h1.12v1.42h-1.12v2.24c0 .167.04.287.12.36.08.074.213.11.4.11h.61Zm3.492 1.53a3.11 3.11 0 0 1-1.48-.35 2.606 2.606 0 0 1-1.03-1c-.246-.433-.37-.94-.37-1.52 0-.573.127-1.076.38-1.51.254-.44.6-.776 1.04-1.01a3.11 3.11 0 0 1 1.48-.35c.547 0 1.04.117 1.48.35.44.234.787.57 1.04 1.01.254.434.38.937.38 1.51 0 .574-.13 1.08-.39 1.52a2.571 2.571 0 0 1-1.05 1 3.11 3.11 0 0 1-1.48.35Zm0-1.48c.327 0 .604-.12.83-.36.233-.24.35-.583.35-1.03 0-.446-.113-.79-.34-1.03-.22-.24-.493-.36-.82-.36-.333 0-.61.12-.83.36-.22.234-.33.577-.33 1.03 0 .447.107.79.32 1.03.22.24.494.36.82.36Zm6.097 1.48c-.486 0-.92-.083-1.3-.25a2.24 2.24 0 0 1-.9-.68 1.828 1.828 0 0 1-.37-.98h1.69c.02.194.11.35.27.47.16.12.357.18.59.18.214 0 .377-.04.49-.12a.393.393 0 0 0 .18-.33c0-.16-.083-.276-.25-.35-.166-.08-.436-.166-.81-.26-.4-.093-.733-.19-1-.29a1.797 1.797 0 0 1-.69-.49c-.193-.226-.29-.53-.29-.91 0-.32.087-.61.26-.87.18-.266.44-.476.78-.63.347-.153.757-.23 1.23-.23.7 0 1.25.174 1.65.52.407.347.64.807.7 1.38h-1.58a.674.674 0 0 0-.26-.46c-.14-.113-.326-.17-.56-.17-.2 0-.353.04-.46.12a.355.355 0 0 0-.16.31c0 .16.084.28.25.36.174.08.44.16.8.24.414.107.75.214 1.01.32.26.1.487.267.68.5.2.227.304.534.31.92 0 .327-.093.62-.28.88-.18.254-.443.454-.79.6-.34.147-.736.22-1.19.22Zm6.736-5.72c.64 0 1.154.214 1.54.64.387.42.58 1 .58 1.74v3.26h-1.7v-3.03c0-.373-.096-.663-.29-.87-.193-.206-.453-.31-.78-.31-.326 0-.586.104-.78.31-.193.207-.29.497-.29.87v3.03h-1.71v-7.4h1.71v2.57c.174-.246.41-.443.71-.59.3-.146.637-.22 1.01-.22Zm5.849 5.72a3.11 3.11 0 0 1-1.48-.35 2.605 2.605 0 0 1-1.03-1c-.247-.433-.37-.94-.37-1.52 0-.573.126-1.076.38-1.51.253-.44.6-.776 1.04-1.01a3.11 3.11 0 0 1 1.48-.35c.546 0 1.04.117 1.48.35.44.234.786.57 1.04 1.01.253.434.38.937.38 1.51 0 .574-.13 1.08-.39 1.52a2.572 2.572 0 0 1-1.05 1 3.11 3.11 0 0 1-1.48.35Zm0-1.48c.326 0 .603-.12.83-.36.233-.24.35-.583.35-1.03 0-.446-.114-.79-.34-1.03-.22-.24-.494-.36-.82-.36-.334 0-.61.12-.83.36-.22.234-.33.577-.33 1.03 0 .447.106.79.32 1.03.22.24.493.36.82.36Zm5.537-3.39c.167-.26.397-.47.69-.63.293-.16.637-.24 1.03-.24.46 0 .877.117 1.25.35.373.234.667.567.88 1 .22.434.33.937.33 1.51 0 .574-.11 1.08-.33 1.52-.213.434-.507.77-.88 1.01a2.31 2.31 0 0 1-1.25.35c-.387 0-.73-.08-1.03-.24a1.888 1.888 0 0 1-.69-.62v3.44h-1.71v-8.24h1.71v.79Zm2.44 1.99c0-.426-.12-.76-.36-1a1.149 1.149 0 0 0-.87-.37c-.34 0-.63.124-.87.37-.233.247-.35.584-.35 1.01 0 .427.117.764.35 1.01.24.247.53.37.87.37.34 0 .63-.123.87-.37.24-.253.36-.593.36-1.02Z" fill="#fff"/></g><defs><linearGradient id="c" x1="37.278" y1="21.107" x2="49.565" y2="47.041" gradientUnits="userSpaceOnUse"><stop stop-color="#A0CBFF"/><stop offset=".394" stop-color="#A0CBFE"/><stop offset=".583" stop-color="#8EC2FC"/><stop offset=".784" stop-color="#83BCFB"/><stop offset="1" stop-color="#7FBAFB"/></linearGradient><linearGradient id="d" x1="41.631" y1="25.63" x2="48.578" y2="48.688" gradientUnits="userSpaceOnUse"><stop stop-color="#090058"/><stop offset="1" stop-color="#070033"/></linearGradient><linearGradient id="e" x1="33.463" y1="22.488" x2="45.749" y2="48.422" gradientUnits="userSpaceOnUse"><stop stop-color="#A0CBFF"/><stop offset=".394" stop-color="#A0CBFE"/><stop offset=".583" stop-color="#8EC2FC"/><stop offset=".784" stop-color="#83BCFB"/><stop offset="1" stop-color="#7FBAFB"/></linearGradient><linearGradient id="f" x1="40.449" y1="19.1" x2="52.784" y2="45.137" gradientUnits="userSpaceOnUse"><stop stop-color="#A0CBFF"/><stop offset=".394" stop-color="#A0CBFE"/><stop offset=".583" stop-color="#8EC2FC"/><stop offset=".784" stop-color="#83BCFB"/><stop offset="1" stop-color="#7FBAFB"/></linearGradient><clipPath id="b"><path fill="#fff" transform="translate(29.5 22.752)" d="M0 0h32v31.497H0z"/></clipPath><filter id="a" x="0" y="0" width="91" height="101" filterUnits="userSpaceOnUse" color-interpolation-filters="sRGB"><feFlood flood-opacity="0" result="BackgroundImageFix"/><feColorMatrix in="SourceAlpha" values="0 0 0 0 0 0 0 0 0 0 0 0 0 0 0 0 0 0 127 0" result="hardAlpha"/><feOffset dy="2"/><feGaussianBlur stdDeviation="4"/><feColorMatrix values="0 0 0 0 0 0 0 0 0 0 0 0 0 0 0 0 0 0 0.75 0"/><feBlend in2="BackgroundImageFix" result="effect1_dropShadow_505_202"/><feBlend in="SourceGraphic" in2="effect1_dropShadow_505_202" result="shape"/></filter></defs></svg>