<svg width="91" height="101" fill="none" xmlns="http://www.w3.org/2000/svg"><g filter="url(#a)"><rect x="8" y="6" width="75" height="85" rx="5" fill="#212529"/><g clip-path="url(#b)"><path d="m30.968 53.31-2.923-35.743 34.91.072-3.09 35.67-14.233 4.124-14.664-4.123Z" fill="#1B73BA"/><path d="M45.632 53.981v-33.01l14.376.048-2.564 29.534-11.812 3.428Z" fill="#1C88C7"/><path d="M56.438 25.19H34.323l.599 4.315h10.494L35.09 33.94l.598 4.171h15.215l-.55 5.825-5.152 1.007-4.672-1.198-.36-3.308H35.88l.575 6.88 9.2 2.565 8.819-2.805L55.6 33.628h-9.321l10.159-4.219V25.19Z" fill="#fff"/></g><path d="M38.938 75.62c-.76 0-1.412-.124-1.956-.372a2.893 2.893 0 0 1-1.26-1.092c-.296-.48-.46-1.076-.492-1.788a43.458 43.458 0 0 1 0-2.136c.032-.696.2-1.284.504-1.764a2.856 2.856 0 0 1 1.272-1.104c.544-.256 1.188-.384 1.932-.384a5.02 5.02 0 0 1 1.464.204c.448.128.84.32 1.176.576.336.248.596.552.78.912.192.352.292.752.3 1.2a.196.196 0 0 1-.072.18.244.244 0 0 1-.18.072h-1.62a.409.409 0 0 1-.24-.06.564.564 0 0 1-.144-.252c-.112-.424-.296-.712-.552-.864-.248-.16-.556-.24-.924-.24-.44 0-.788.124-1.044.372-.256.24-.396.644-.42 1.212a28.229 28.229 0 0 0 0 2.016c.024.568.164.976.42 1.224.256.24.604.36 1.044.36.368 0 .68-.08.936-.24.256-.16.436-.448.54-.864.032-.12.076-.2.132-.24a.41.41 0 0 1 .252-.072h1.62c.072 0 .132.024.18.072.056.048.08.108.072.18a2.637 2.637 0 0 1-.3 1.212 2.73 2.73 0 0 1-.78.912 3.84 3.84 0 0 1-1.176.576 5.313 5.313 0 0 1-1.464.192Zm7.418 0c-.52 0-.964-.056-1.332-.168a3.28 3.28 0 0 1-.888-.432 2.028 2.028 0 0 1-.504-.516c-.112-.184-.172-.34-.18-.468a.242.242 0 0 1 .084-.216.287.287 0 0 1 .204-.096h1.368c.024 0 .044.004.06.012s.04.024.072.048c.104.056.208.128.312.216.104.08.224.152.36.216.136.064.3.096.492.096.224 0 .412-.044.564-.132a.43.43 0 0 0 .228-.396.449.449 0 0 0-.108-.312c-.072-.088-.22-.172-.444-.252-.216-.08-.544-.16-.984-.24a5.128 5.128 0 0 1-1.092-.372 1.884 1.884 0 0 1-.72-.612c-.168-.256-.252-.564-.252-.924 0-.32.104-.628.312-.924.208-.296.512-.536.912-.72.4-.192.892-.288 1.476-.288.464 0 .864.056 1.2.168.344.104.632.24.864.408.24.168.42.34.54.516.12.176.184.336.192.48a.275.275 0 0 1-.072.216.264.264 0 0 1-.192.084H47.58a.395.395 0 0 1-.096-.012.785.785 0 0 1-.084-.048 1.503 1.503 0 0 1-.288-.192 1.733 1.733 0 0 0-.336-.216 1.069 1.069 0 0 0-.48-.096c-.216 0-.384.048-.504.144a.48.48 0 0 0-.084.66c.072.088.212.168.42.24.216.072.548.152.996.24.552.088.992.232 1.32.432.328.192.56.42.696.684.136.256.204.528.204.816 0 .384-.116.724-.348 1.02-.224.296-.56.528-1.008.696-.448.16-.992.24-1.632.24Zm6.633 0c-.52 0-.964-.056-1.332-.168a3.28 3.28 0 0 1-.888-.432 2.028 2.028 0 0 1-.504-.516c-.112-.184-.172-.34-.18-.468a.242.242 0 0 1 .084-.216.287.287 0 0 1 .204-.096h1.368c.024 0 .044.004.06.012s.04.024.072.048c.104.056.208.128.312.216.104.08.224.152.36.216.136.064.3.096.492.096.224 0 .412-.044.564-.132a.43.43 0 0 0 .228-.396.449.449 0 0 0-.108-.312c-.072-.088-.22-.172-.444-.252-.216-.08-.544-.16-.984-.24a5.128 5.128 0 0 1-1.092-.372 1.884 1.884 0 0 1-.72-.612c-.168-.256-.252-.564-.252-.924 0-.32.104-.628.312-.924.208-.296.512-.536.912-.72.4-.192.892-.288 1.476-.288.464 0 .864.056 1.2.168.344.104.632.24.864.408.24.168.42.34.54.516.12.176.184.336.192.48a.275.275 0 0 1-.072.216.264.264 0 0 1-.192.084h-1.248a.395.395 0 0 1-.096-.012.785.785 0 0 1-.084-.048 1.503 1.503 0 0 1-.288-.192 1.733 1.733 0 0 0-.336-.216 1.069 1.069 0 0 0-.48-.096c-.216 0-.384.048-.504.144a.48.48 0 0 0-.084.66c.072.088.212.168.42.24.216.072.548.152.996.24.552.088.992.232 1.32.432.328.192.56.42.696.684.136.256.204.528.204.816 0 .384-.116.724-.348 1.02-.224.296-.56.528-1.008.696-.448.16-.992.24-1.632.24Z" fill="#fff"/></g><defs><clipPath id="b"><path fill="#fff" transform="translate(28.045 17.5)" d="M0 0h34.91v40H0z"/></clipPath><filter id="a" x="0" y="0" width="91" height="101" filterUnits="userSpaceOnUse" color-interpolation-filters="sRGB"><feFlood flood-opacity="0" result="BackgroundImageFix"/><feColorMatrix in="SourceAlpha" values="0 0 0 0 0 0 0 0 0 0 0 0 0 0 0 0 0 0 127 0" result="hardAlpha"/><feOffset dy="2"/><feGaussianBlur stdDeviation="4"/><feColorMatrix values="0 0 0 0 0 0 0 0 0 0 0 0 0 0 0 0 0 0 0.75 0"/><feBlend in2="BackgroundImageFix" result="effect1_dropShadow_505_467"/><feBlend in="SourceGraphic" in2="effect1_dropShadow_505_467" result="shape"/></filter></defs></svg>