<svg width="91" height="101" fill="none" xmlns="http://www.w3.org/2000/svg"><g filter="url(#a)"><rect x="8" y="6" width="75" height="85" rx="5" fill="#212529"/><g clip-path="url(#b)"><path d="m30.96 53.31-2.924-35.743 34.928.072-3.092 35.671-14.24 4.123L30.96 53.31Z" fill="#E34F26"/><path d="M45.632 53.981v-33.01l14.383.048-2.565 29.534-11.818 3.428Z" fill="#EF652A"/><path d="m56.06 29.218.407-4.363H34.341l1.222 13.376h15.27l-.598 5.706-4.89 1.318-4.963-1.438-.263-3.404H35.73l.6 6.952 9.013 2.517 9.086-2.517 1.222-13.569H39.615l-.456-4.578H56.06Z" fill="#fff"/></g><path d="M32.161 75.5a.292.292 0 0 1-.216-.084.292.292 0 0 1-.084-.216v-7.8c0-.088.029-.16.084-.216a.292.292 0 0 1 .216-.084h1.548c.088 0 .16.028.216.084a.292.292 0 0 1 .085.216v2.892h2.964V67.4c0-.088.028-.16.084-.216a.292.292 0 0 1 .215-.084h1.548c.089 0 .16.028.217.084a.292.292 0 0 1 .084.216v7.8c0 .088-.029.16-.084.216a.292.292 0 0 1-.216.084h-1.549a.292.292 0 0 1-.216-.084.292.292 0 0 1-.084-.216v-2.988H34.01V75.2c0 .088-.029.16-.084.216a.292.292 0 0 1-.217.084h-1.548Zm11.702 0c-.512 0-.956-.08-1.332-.24a1.849 1.849 0 0 1-.852-.768c-.2-.352-.3-.804-.3-1.356v-2.304h-.936a.335.335 0 0 1-.228-.084.292.292 0 0 1-.084-.216v-.972c0-.088.028-.16.084-.216a.335.335 0 0 1 .228-.084h.936v-1.98c0-.088.028-.16.084-.216a.32.32 0 0 1 .216-.084h1.392c.088 0 .16.028.216.084a.292.292 0 0 1 .084.216v1.98h1.5c.088 0 .16.028.216.084a.292.292 0 0 1 .084.216v.972c0 .088-.028.16-.084.216a.292.292 0 0 1-.216.084h-1.5v2.136c0 .272.052.488.156.648.104.16.28.24.528.24h.924c.088 0 .16.028.216.084a.292.292 0 0 1 .084.216V75.2c0 .088-.028.16-.084.216a.292.292 0 0 1-.216.084h-1.116Zm2.71 0a.292.292 0 0 1-.217-.084.292.292 0 0 1-.084-.216v-5.64c0-.088.029-.16.084-.216a.292.292 0 0 1 .216-.084h1.308c.088 0 .16.028.216.084a.292.292 0 0 1 .085.216v.408c.16-.216.384-.404.672-.564a2.075 2.075 0 0 1 1.02-.264c.92-.016 1.552.332 1.896 1.044.184-.304.448-.552.791-.744.344-.2.72-.3 1.128-.3.416 0 .788.096 1.116.288.337.184.604.472.804.864.2.384.3.884.3 1.5V75.2c0 .088-.032.16-.096.216a.278.278 0 0 1-.203.084h-1.392a.335.335 0 0 1-.228-.084.292.292 0 0 1-.084-.216v-3.324c0-.28-.04-.5-.12-.66a.757.757 0 0 0-.324-.36.985.985 0 0 0-.9 0 .82.82 0 0 0-.337.36c-.08.16-.12.38-.12.66V75.2c0 .088-.027.16-.084.216a.292.292 0 0 1-.216.084h-1.392a.292.292 0 0 1-.215-.084.292.292 0 0 1-.085-.216v-3.324c0-.28-.044-.5-.132-.66a.82.82 0 0 0-.335-.36.96.96 0 0 0-.889 0 .82.82 0 0 0-.336.36c-.08.16-.12.376-.12.648V75.2c0 .088-.031.16-.095.216a.292.292 0 0 1-.216.084h-1.416Zm10.98 0a.292.292 0 0 1-.216-.084.292.292 0 0 1-.084-.216v-7.92c0-.088.028-.16.084-.216a.292.292 0 0 1 .216-.084h1.416c.088 0 .16.028.216.084a.292.292 0 0 1 .084.216v7.92c0 .088-.028.16-.084.216a.292.292 0 0 1-.216.084h-1.416Z" fill="#fff"/></g><defs><clipPath id="b"><path fill="#fff" transform="translate(28.036 17.5)" d="M0 0h34.928v40H0z"/></clipPath><filter id="a" x="0" y="0" width="91" height="101" filterUnits="userSpaceOnUse" color-interpolation-filters="sRGB"><feFlood flood-opacity="0" result="BackgroundImageFix"/><feColorMatrix in="SourceAlpha" values="0 0 0 0 0 0 0 0 0 0 0 0 0 0 0 0 0 0 127 0" result="hardAlpha"/><feOffset dy="2"/><feGaussianBlur stdDeviation="4"/><feColorMatrix values="0 0 0 0 0 0 0 0 0 0 0 0 0 0 0 0 0 0 0.75 0"/><feBlend in2="BackgroundImageFix" result="effect1_dropShadow_505_458"/><feBlend in="SourceGraphic" in2="effect1_dropShadow_505_458" result="shape"/></filter></defs></svg>