<svg width="91" height="101" fill="none" xmlns="http://www.w3.org/2000/svg"><g filter="url(#a)"><rect x="8" y="6" width="75" height="85" rx="5" fill="#212529"/><path d="m43.908 23.7.867 1.629c.195.3.406.566.655.814.729.72 1.409 1.488 2.034 2.3 1.469 1.928 2.46 4.07 3.167 6.387.424 1.415.655 2.866.672 4.334.071 4.388-1.433 8.156-4.466 11.288-.494.496-1.027.952-1.594 1.362-.3 0-.443-.23-.566-.443a3.644 3.644 0 0 1-.443-1.274c-.107-.53-.177-1.062-.142-1.61v-.247c-.024-.053-.29-24.415-.184-24.54Z" fill="#599636"/><path d="M43.908 23.647c-.035-.071-.07-.017-.106.017.017.355-.107.672-.3.974-.214.3-.496.531-.78.779-1.572 1.362-2.81 3.008-3.803 4.848-1.32 2.477-2 5.131-2.192 7.926-.088 1.008.319 4.564.636 5.59.867 2.725 2.424 5.008 4.441 6.99.496.477 1.026.919 1.574 1.344.159 0 .176-.142.213-.247.07-.226.123-.457.16-.69l.354-2.654-.197-24.877Z" fill="#6CAC48"/><path d="M44.775 52.892c.036-.406.23-.743.443-1.08-.213-.087-.372-.263-.496-.459a3.28 3.28 0 0 1-.264-.584c-.247-.743-.3-1.522-.371-2.282v-.46c-.088.072-.107.673-.107.762a17.65 17.65 0 0 1-.318 2.388c-.053.32-.089.637-.285.92 0 .035 0 .071.018.124.318.938.406 1.893.46 2.866v.356c0 .424-.018.335.335.477.142.052.3.07.442.176.107 0 .124-.088.124-.159l-.053-.584v-1.628c-.017-.284.036-.566.071-.832l.001-.001Z" fill="#C2BFBF"/><path d="M18.181 74.5a.32.32 0 0 1-.216-.084.292.292 0 0 1-.084-.216v-7.8c0-.088.028-.16.084-.216a.32.32 0 0 1 .216-.084h1.296c.128 0 .224.036.288.108a.496.496 0 0 1 .132.156l2.112 3.792 2.112-3.792a1.18 1.18 0 0 1 .12-.156c.064-.072.164-.108.3-.108h1.284c.088 0 .16.028.216.084a.274.274 0 0 1 .096.216v7.8c0 .088-.032.16-.096.216a.292.292 0 0 1-.216.084h-1.428a.335.335 0 0 1-.228-.084.292.292 0 0 1-.084-.216v-4.5l-1.356 2.508a.552.552 0 0 1-.144.192.387.387 0 0 1-.264.084h-.624a.387.387 0 0 1-.264-.084.716.716 0 0 1-.156-.192L19.921 69.7v4.5c0 .088-.028.16-.084.216a.292.292 0 0 1-.216.084h-1.44Zm12.446.12c-.672 0-1.24-.108-1.704-.324a2.434 2.434 0 0 1-1.056-.924c-.24-.408-.376-.892-.408-1.452-.008-.16-.012-.34-.012-.54 0-.208.004-.388.012-.54.032-.568.176-1.052.432-1.452.256-.4.612-.708 1.068-.924.464-.216 1.02-.324 1.668-.324.656 0 1.212.108 1.668.324.464.216.824.524 1.08.924.256.4.4.884.432 1.452.008.152.012.332.012.54 0 .2-.004.38-.012.54-.032.56-.172 1.044-.42 1.452-.24.4-.592.708-1.056.924-.456.216-1.024.324-1.704.324Zm0-1.464c.36 0 .62-.108.78-.324.168-.216.264-.54.288-.972.008-.12.012-.28.012-.48 0-.2-.004-.36-.012-.48-.024-.424-.12-.744-.288-.96-.16-.224-.42-.336-.78-.336-.352 0-.612.112-.78.336-.168.216-.26.536-.276.96a7.57 7.57 0 0 0-.012.48c0 .2.004.36.012.48.016.432.108.756.276.972.168.216.428.324.78.324Zm4.672 1.344a.292.292 0 0 1-.216-.084.292.292 0 0 1-.084-.216v-5.64c0-.088.028-.16.084-.216a.292.292 0 0 1 .216-.084h1.38c.088 0 .16.028.216.084a.292.292 0 0 1 .084.216v.456c.208-.248.48-.456.816-.624.336-.168.732-.252 1.188-.252.464 0 .872.104 1.224.312.36.208.64.516.84.924.208.4.312.892.312 1.476V74.2c0 .088-.032.16-.096.216a.278.278 0 0 1-.204.084h-1.512a.32.32 0 0 1-.216-.084.292.292 0 0 1-.084-.216v-3.276c0-.376-.092-.664-.276-.864-.176-.208-.44-.312-.792-.312-.328 0-.592.104-.792.312-.192.2-.288.488-.288.864V74.2c0 .088-.032.16-.096.216a.278.278 0 0 1-.204.084h-1.5Zm10.46 2.64c-.617 0-1.129-.08-1.537-.24-.4-.16-.72-.352-.96-.576a2.305 2.305 0 0 1-.504-.672c-.104-.216-.16-.388-.168-.516a.242.242 0 0 1 .084-.216.335.335 0 0 1 .228-.084h1.524c.072 0 .132.016.18.048.056.04.1.104.132.192.04.088.092.18.156.276a.746.746 0 0 0 .288.228c.128.064.3.096.516.096.24 0 .44-.04.6-.12a.712.712 0 0 0 .36-.372c.08-.168.12-.396.12-.684v-.804c-.184.2-.42.364-.708.492-.288.12-.636.18-1.044.18-.408 0-.768-.06-1.08-.18a1.93 1.93 0 0 1-.78-.54 2.657 2.657 0 0 1-.492-.876 4.648 4.648 0 0 1-.204-1.188 8.115 8.115 0 0 1 0-.624 4.58 4.58 0 0 1 .204-1.164c.112-.344.272-.64.48-.888.216-.248.48-.436.792-.564a2.681 2.681 0 0 1 1.08-.204c.432 0 .8.084 1.104.252.312.16.568.364.768.612v-.444c0-.08.028-.148.084-.204a.274.274 0 0 1 .216-.096h1.38c.088 0 .16.032.216.096a.261.261 0 0 1 .096.204v5.772c0 .608-.124 1.12-.372 1.536a2.375 2.375 0 0 1-1.068.948c-.464.216-1.028.324-1.692.324Zm-.085-4.332c.256 0 .464-.056.624-.168a.964.964 0 0 0 .348-.432c.08-.176.124-.364.132-.564.008-.088.012-.212.012-.372s-.004-.28-.012-.36a1.52 1.52 0 0 0-.132-.576.894.894 0 0 0-.348-.42c-.16-.112-.368-.168-.624-.168-.264 0-.476.056-.636.168a.977.977 0 0 0-.336.456 2.565 2.565 0 0 0-.12.636 6.077 6.077 0 0 0 0 .54c.016.232.056.444.12.636a.977.977 0 0 0 .336.456c.16.112.372.168.636.168Zm7.582 1.812c-.672 0-1.24-.108-1.704-.324a2.434 2.434 0 0 1-1.056-.924c-.24-.408-.376-.892-.408-1.452-.008-.16-.012-.34-.012-.54 0-.208.004-.388.012-.54.032-.568.176-1.052.432-1.452.256-.4.612-.708 1.068-.924.464-.216 1.02-.324 1.668-.324.656 0 1.212.108 1.668.324.464.216.824.524 1.08.924.256.4.4.884.432 1.452.008.152.012.332.012.54 0 .2-.004.38-.012.54-.032.56-.172 1.044-.42 1.452-.24.4-.592.708-1.056.924-.456.216-1.024.324-1.704.324Zm0-1.464c.36 0 .62-.108.78-.324.168-.216.264-.54.288-.972.008-.12.012-.28.012-.48 0-.2-.004-.36-.012-.48-.024-.424-.12-.744-.288-.96-.16-.224-.42-.336-.78-.336-.352 0-.612.112-.78.336-.168.216-.26.536-.276.96a7.57 7.57 0 0 0-.012.48c0 .2.004.36.012.48.016.432.108.756.276.972.168.216.428.324.78.324ZM58.06 74.5a.292.292 0 0 1-.216-.084.292.292 0 0 1-.084-.216v-7.8c0-.088.028-.16.084-.216a.292.292 0 0 1 .216-.084h3.12c.784 0 1.452.128 2.004.384.552.248.976.616 1.272 1.104.296.48.456 1.076.48 1.788.008.352.012.66.012.924s-.004.568-.012.912c-.032.744-.192 1.36-.48 1.848-.28.488-.692.852-1.236 1.092-.536.232-1.196.348-1.98.348h-3.18Zm1.848-1.728h1.272c.344 0 .628-.052.852-.156.232-.112.404-.284.516-.516.12-.232.184-.536.192-.912.016-.232.024-.44.024-.624a6.351 6.351 0 0 0 0-.552c0-.184-.008-.388-.024-.612-.016-.544-.16-.94-.432-1.188-.264-.256-.66-.384-1.188-.384h-1.212v4.944ZM66.65 74.5a.292.292 0 0 1-.216-.084.292.292 0 0 1-.084-.216v-7.8c0-.088.028-.16.084-.216a.292.292 0 0 1 .216-.084h3.66c.688 0 1.252.096 1.692.288.44.192.764.468.972.828.216.352.324.772.324 1.26 0 .288-.056.544-.168.768a1.719 1.719 0 0 1-.396.54 1.704 1.704 0 0 1-.432.312c.304.144.572.38.804.708.24.328.36.712.36 1.152 0 .528-.12.984-.36 1.368-.232.376-.576.668-1.032.876-.448.2-1 .3-1.656.3H66.65Zm1.848-1.56h1.68c.344 0 .604-.1.78-.3.176-.2.264-.428.264-.684a.984.984 0 0 0-.276-.708c-.176-.192-.432-.288-.768-.288h-1.68v1.98Zm0-3.504h1.572c.328 0 .572-.084.732-.252a.877.877 0 0 0 .252-.648.823.823 0 0 0-.252-.624c-.16-.168-.404-.252-.732-.252h-1.572v1.776Z" fill="#fff"/></g><defs><filter id="a" x="0" y="0" width="91" height="101" filterUnits="userSpaceOnUse" color-interpolation-filters="sRGB"><feFlood flood-opacity="0" result="BackgroundImageFix"/><feColorMatrix in="SourceAlpha" values="0 0 0 0 0 0 0 0 0 0 0 0 0 0 0 0 0 0 127 0" result="hardAlpha"/><feOffset dy="2"/><feGaussianBlur stdDeviation="4"/><feColorMatrix values="0 0 0 0 0 0 0 0 0 0 0 0 0 0 0 0 0 0 0.75 0"/><feBlend in2="BackgroundImageFix" result="effect1_dropShadow_505_1008"/><feBlend in="SourceGraphic" in2="effect1_dropShadow_505_1008" result="shape"/></filter></defs></svg>