<svg width="91" height="101" fill="none" xmlns="http://www.w3.org/2000/svg"><g filter="url(#a)"><rect x="8" y="6" width="75" height="85" rx="5" fill="#212529"/><g clip-path="url(#b)"><path d="M34.938 32.416h7.545v.6H35.63v4.512h6.444v.6H35.63v4.955h6.931v.6h-7.623V32.415Zm8.22 0h.802l3.552 4.955 3.631-4.955 4.938-6.294-8.113 11.77 4.18 5.79h-.832l-3.804-5.27-3.82 5.27h-.816l4.212-5.79-3.93-5.476Zm9.29.6v-.6h8.597v.6h-3.96v10.666h-.692V33.015h-3.946Zm-26.948-.6h.864l11.92 17.837-4.925-6.57-7.136-10.415-.031 10.415H25.5V32.416Zm35.475 10.486a.244.244 0 0 1-.247-.251c0-.142.106-.251.247-.251.143 0 .248.11.248.25 0 .142-.105.252-.248.252Zm.68-.66h.37c.005.2.151.335.367.335.24 0 .376-.145.376-.416v-1.718h.377v1.72c0 .488-.282.77-.75.77-.44 0-.74-.274-.74-.691Zm1.983-.022h.373c.032.23.258.377.582.377.303 0 .525-.157.525-.372 0-.185-.141-.297-.462-.372l-.313-.076c-.44-.103-.64-.315-.64-.672 0-.433.354-.721.884-.721.492 0 .852.288.874.697h-.366c-.036-.224-.23-.364-.513-.364-.298 0-.496.144-.496.363 0 .173.127.272.444.346l.267.066c.498.116.703.319.703.684 0 .465-.36.756-.935.756-.538 0-.9-.278-.927-.712Z" fill="#fff"/></g><path d="M32.542 74.813a.292.292 0 0 1-.216-.085.292.292 0 0 1-.084-.215v-7.8c0-.088.028-.16.084-.216a.292.292 0 0 1 .216-.085h1.272c.136 0 .232.032.288.096.064.056.104.1.12.133l2.928 4.62v-4.548c0-.088.028-.16.084-.216a.292.292 0 0 1 .216-.085h1.44c.088 0 .16.028.216.084a.292.292 0 0 1 .084.217v7.8a.32.32 0 0 1-.084.215.292.292 0 0 1-.216.085h-1.284c-.128 0-.224-.032-.288-.097a1.618 1.618 0 0 1-.108-.131l-2.928-4.44v4.368c0 .087-.028.16-.084.215a.292.292 0 0 1-.216.085h-1.44Zm11.073.12c-.944 0-1.696-.257-2.256-.769-.56-.511-.852-1.272-.876-2.28v-.42c.024-.632.164-1.171.42-1.62a2.58 2.58 0 0 1 1.08-1.031c.464-.24 1.004-.36 1.62-.36.704 0 1.284.14 1.74.42.464.28.812.66 1.044 1.14.232.48.348 1.027.348 1.643v.288c0 .088-.032.16-.096.216a.278.278 0 0 1-.204.085h-3.84v.084c.008.232.048.444.12.636a.977.977 0 0 0 .336.456.905.905 0 0 0 .552.167c.16 0 .292-.023.396-.072.112-.056.204-.116.276-.18a2.84 2.84 0 0 0 .168-.18.564.564 0 0 1 .168-.144.501.501 0 0 1 .216-.035h1.488a.26.26 0 0 1 .192.072c.056.04.08.1.072.18-.008.136-.076.3-.204.492a2.527 2.527 0 0 1-.564.575c-.24.184-.544.336-.912.456s-.796.18-1.284.18Zm-1.02-3.877h2.028v-.023c0-.257-.04-.48-.12-.672a.881.881 0 0 0-.348-.445.954.954 0 0 0-.552-.156c-.216 0-.4.052-.552.156a1.01 1.01 0 0 0-.336.445c-.08.191-.12.415-.12.671v.025Zm4.802 3.757a.287.287 0 0 1-.192-.073.287.287 0 0 1-.06-.275.264.264 0 0 1 .048-.109l2.004-2.747-1.824-2.58a.63.63 0 0 1-.06-.096.395.395 0 0 1-.012-.097c0-.072.028-.132.084-.18a.264.264 0 0 1 .192-.084h1.464c.104 0 .18.025.228.072a.576.576 0 0 1 .12.132l1.116 1.549 1.104-1.537c.032-.04.072-.084.12-.132.056-.056.136-.084.24-.084h1.404c.072 0 .132.028.18.084a.227.227 0 0 1 .084.18.395.395 0 0 1-.012.097.27.27 0 0 1-.048.095l-1.872 2.58 2.028 2.748a.212.212 0 0 1 .06.097.395.395 0 0 1 .012.096.264.264 0 0 1-.276.263h-1.524c-.096 0-.168-.02-.216-.06a1.636 1.636 0 0 1-.12-.131l-1.212-1.644-1.224 1.644-.12.12c-.048.047-.124.072-.228.072h-1.488Zm10.5 0c-.513 0-.957-.08-1.333-.24a1.849 1.849 0 0 1-.852-.768c-.2-.353-.3-.805-.3-1.357v-2.303h-.936a.335.335 0 0 1-.228-.084.292.292 0 0 1-.084-.217v-.971c0-.089.028-.16.084-.217a.335.335 0 0 1 .228-.084h.936v-1.98c0-.088.028-.16.084-.216a.32.32 0 0 1 .216-.084h1.392c.088 0 .16.028.216.084a.292.292 0 0 1 .084.216v1.98h1.5c.088 0 .16.028.216.084a.292.292 0 0 1 .084.216v.972c0 .089-.028.16-.084.217a.292.292 0 0 1-.216.083h-1.5v2.136c0 .272.052.489.156.648.104.16.28.24.528.24h.924c.088 0 .16.028.216.084a.292.292 0 0 1 .084.217v1.044c0 .087-.028.16-.084.215a.292.292 0 0 1-.216.085h-1.116Z" fill="#fff"/></g><defs><clipPath id="b"><path fill="#fff" transform="translate(25.5 18.188)" d="M0 0h40v40.625H0z"/></clipPath><filter id="a" x="0" y="0" width="91" height="101" filterUnits="userSpaceOnUse" color-interpolation-filters="sRGB"><feFlood flood-opacity="0" result="BackgroundImageFix"/><feColorMatrix in="SourceAlpha" values="0 0 0 0 0 0 0 0 0 0 0 0 0 0 0 0 0 0 127 0" result="hardAlpha"/><feOffset dy="2"/><feGaussianBlur stdDeviation="4"/><feColorMatrix values="0 0 0 0 0 0 0 0 0 0 0 0 0 0 0 0 0 0 0.75 0"/><feBlend in2="BackgroundImageFix" result="effect1_dropShadow_505_506"/><feBlend in="SourceGraphic" in2="effect1_dropShadow_505_506" result="shape"/></filter></defs></svg>