
<svg width="91" height="101" fill="none" xmlns="http://www.w3.org/2000/svg"><g filter="url(#a)"><rect x="8" y="6" width="75" height="85" rx="5" fill="#212529"/><g clip-path="url(#b)"><path d="M61.611 28.059a19.658 19.658 0 1 0-3.538 27.57c8.587-6.637 10.172-18.98 3.538-27.57Z" fill="#FF6C37"/><path d="m52.683 32.941-8.288 8.355-2.343-2.408c8.158-8.158 8.977-7.421 10.632-5.947Z" fill="#fff"/><path d="M44.395 41.524a.294.294 0 0 1-.197-.082l-2.359-2.359a.295.295 0 0 1 0-.41c8.043-8.042 9.14-7.666 11.04-5.946a.262.262 0 0 1 .1.213.23.23 0 0 1-.082.214l-8.29 8.289a.31.31 0 0 1-.212.082v-.001Zm-1.934-2.637 1.934 1.933 7.863-7.863a1.769 1.769 0 0 0-2.327-.393c-1.425.639-3.718 2.588-7.47 6.323Z" fill="#FF6C37"/><path d="m46.77 43.605-2.26-2.31 8.288-8.19c2.228 2.178-1.081 5.815-6.028 10.5Z" fill="#fff"/><path d="M46.77 43.9a.343.343 0 0 1-.197-.082l-2.31-2.26a.343.343 0 0 1 0-.263.317.317 0 0 1 0-.213l8.289-8.288a.311.311 0 0 1 .426 0 2.542 2.542 0 0 1 .819 1.949c0 2.211-2.523 4.996-6.815 9.059a.344.344 0 0 1-.213.098Zm-1.835-2.605 1.85 1.85c3.277-3.095 6.406-6.29 6.422-8.452a1.867 1.867 0 0 0-.426-1.261l-7.846 7.863Z" fill="#FF6C37"/><path d="m42.117 38.937 1.639 1.638a.1.1 0 0 1 .033.074.099.099 0 0 1-.034.073l-3.456.737a.327.327 0 0 1-.295-.557l2.015-1.998s.066 0 .098.033Z" fill="#fff"/><path d="M40.217 41.787a.64.64 0 0 1-.54-.311.623.623 0 0 1 .114-.737l1.999-2.015a.393.393 0 0 1 .524 0l1.638 1.638a.361.361 0 0 1 .098.36.38.38 0 0 1-.278.263l-3.457.737-.098.065Zm1.835-2.49-1.85 1.851 3.063-.655-1.213-1.196Z" fill="#FF6C37"/><path d="M57.09 28.337a3.177 3.177 0 1 0-.573 5.013l-2.228-2.228 2.801-2.785Z" fill="#fff"/><path d="M54.878 34.103a3.47 3.47 0 0 1-3.362-4.144 3.482 3.482 0 0 1 .932-1.769 3.508 3.508 0 0 1 4.915 0 .279.279 0 0 1 0 .426l-2.654 2.507 2.015 1.982a.276.276 0 0 1 .081.246.294.294 0 0 1-.13.213 3.563 3.563 0 0 1-1.802.54h.005Zm0-6.356a2.872 2.872 0 0 0-2.65 1.782 2.894 2.894 0 0 0 .62 3.132 2.866 2.866 0 0 0 3.177.607l-1.933-1.933a.263.263 0 0 1 0-.41l2.556-2.572a2.94 2.94 0 0 0-1.77-.607v.001Z" fill="#FF6C37"/><path d="m57.139 28.387-2.801 2.784 2.228 2.228c.224-.128.433-.282.622-.459a3.276 3.276 0 0 0-.049-4.553Z" fill="#fff"/><path d="M56.516 33.645a.245.245 0 0 1-.196-.082l-2.228-2.228a.26.26 0 0 1-.073-.318.26.26 0 0 1 .073-.091l2.784-2.736a.294.294 0 0 1 .492 0 3.44 3.44 0 0 1 0 4.914 3 3 0 0 1-.656.524.265.265 0 0 1-.196.017Zm-1.801-2.522 1.85 1.85c.128-.089.248-.187.361-.294a2.9 2.9 0 0 0 .852-2.048 2.814 2.814 0 0 0-.704-1.867l-2.36 2.359Z" fill="#FF6C37"/><path d="M53.027 33.285a1.197 1.197 0 0 0-1.638 0l-7.42 7.404 1.228 1.245 7.847-6.88a1.213 1.213 0 0 0-.017-1.77v.001Z" fill="#fff"/><path d="M45.132 42.23a.295.295 0 0 1-.197-.082l-1.245-1.245a.295.295 0 0 1 0-.41l7.42-7.388a1.507 1.507 0 0 1 2.572 1.113 1.542 1.542 0 0 1-.508 1.082l-7.846 6.88a.28.28 0 0 1-.197.049Zm-.868-1.541.818.835 7.7-6.7a.905.905 0 0 0 .31-.655.88.88 0 0 0-.277-.672.917.917 0 0 0-1.295 0l-7.257 7.192Z" fill="#FF6C37"/><path d="M38.219 49.125a.166.166 0 0 0 0 .197l.327 1.425a.422.422 0 0 1-.203.43.4.4 0 0 1-.469-.047l-2.244-2.162 6.995-7.05h2.425l1.638 1.638a37.188 37.188 0 0 1-8.469 5.57Z" fill="#fff"/><path d="M38.072 51.534a.692.692 0 0 1-.492-.214l-2.146-2.145a.262.262 0 0 1 0-.41l7.044-7.06a.276.276 0 0 1 .147-.082h2.441a.295.295 0 0 1 .197 0l1.638 1.638a.26.26 0 0 1 .082.23.264.264 0 0 1-.099.213l-.13.115a40.13 40.13 0 0 1-8.404 5.389l.311 1.327a.706.706 0 0 1-.671.868l.082.13Zm-1.999-2.572 1.933 1.949a.099.099 0 0 0 .13 0 .098.098 0 0 0 0-.115l-.327-1.425a.457.457 0 0 1 .246-.524 40.272 40.272 0 0 0 8.19-5.275l-1.343-1.344h-2.195l-6.634 6.733Z" fill="#FF6C37"/><path d="m33.943 50.649 1.639-1.639 2.523 2.523-4.013-.278a.328.328 0 0 1-.148-.606Z" fill="#fff"/><path d="m38.153 51.78-3.997-.279a.633.633 0 0 1-.525-.401.626.626 0 0 1 .132-.648l1.638-1.638a.295.295 0 0 1 .41 0l2.506 2.506a.277.277 0 0 1 0 .328.31.31 0 0 1-.164.13v.001Zm-3.997-.918 3.276.213-1.802-1.687-1.474 1.474Z" fill="#FF6C37"/><path d="m45.279 42.115-3.31.508 1.917-1.9 1.393 1.392Z" fill="#fff"/><path d="M41.97 42.933a.28.28 0 0 1-.263-.164.276.276 0 0 1 0-.327l1.9-1.917a.311.311 0 0 1 .426 0l1.393 1.392a.276.276 0 0 1 0 .295.29.29 0 0 1-.23.213l-3.275.508h.048Zm1.916-1.785-1.065 1.064 1.835-.278-.77-.786Z" fill="#FF6C37"/><path d="m45.279 42.114-2.31.295a.295.295 0 0 1-.278-.492l1.196-1.196 1.392 1.393Z" fill="#fff"/><path d="M42.903 42.72a.606.606 0 0 1-.524-.31.59.59 0 0 1 .099-.705l1.196-1.196a.311.311 0 0 1 .425 0l1.393 1.392a.295.295 0 0 1-.18.508l-2.293.295-.116.017Zm0-.605 1.737-.214-.77-.77-.983.984h.016ZM57.155 30.27a.246.246 0 0 0-.311-.098.227.227 0 0 0-.115.135.232.232 0 0 0 .016.176.705.705 0 0 1-.081.737.207.207 0 0 0-.062.156c0 .057.023.113.062.155a.18.18 0 0 0 .13 0 .216.216 0 0 0 .214-.066 1.13 1.13 0 0 0 .147-1.196Z" fill="#FF6C37"/></g><path d="M19.98 75a.292.292 0 0 1-.216-.084.292.292 0 0 1-.084-.216v-7.8c0-.088.028-.16.084-.216a.292.292 0 0 1 .216-.084h3.36c.664 0 1.24.104 1.728.312.496.2.88.504 1.152.912.28.408.42.924.42 1.548 0 .616-.14 1.124-.42 1.524-.272.4-.656.696-1.152.888-.488.192-1.064.288-1.728.288h-1.428V74.7c0 .088-.032.16-.096.216A.292.292 0 0 1 21.6 75h-1.62Zm1.896-4.584h1.404c.344 0 .616-.088.816-.264.208-.176.312-.444.312-.804 0-.304-.088-.56-.264-.768-.176-.208-.464-.312-.864-.312h-1.404v2.148Zm8.663 4.704c-.672 0-1.24-.108-1.704-.324a2.434 2.434 0 0 1-1.056-.924c-.24-.408-.376-.892-.408-1.452-.008-.16-.012-.34-.012-.54 0-.208.004-.388.012-.54.032-.568.176-1.052.432-1.452.256-.4.612-.708 1.068-.924.464-.216 1.02-.324 1.668-.324.656 0 1.212.108 1.668.324.464.216.824.524 1.08.924.256.4.4.884.432 1.452.008.152.012.332.012.54 0 .2-.004.38-.012.54-.032.56-.172 1.044-.42 1.452-.24.4-.592.708-1.056.924-.456.216-1.024.324-1.704.324Zm0-1.464c.36 0 .62-.108.78-.324.168-.216.264-.54.288-.972.008-.12.012-.28.012-.48 0-.2-.004-.36-.012-.48-.024-.424-.12-.744-.288-.96-.16-.224-.42-.336-.78-.336-.352 0-.612.112-.78.336-.168.216-.26.536-.276.96a7.57 7.57 0 0 0-.012.48c0 .2.004.36.012.48.016.432.108.756.276.972.168.216.428.324.78.324Zm6.94 1.464c-.52 0-.964-.056-1.332-.168a3.28 3.28 0 0 1-.888-.432 2.028 2.028 0 0 1-.504-.516c-.112-.184-.172-.34-.18-.468a.242.242 0 0 1 .084-.216.287.287 0 0 1 .204-.096h1.368c.024 0 .044.004.06.012s.04.024.072.048c.104.056.208.128.312.216.104.08.224.152.36.216.136.064.3.096.492.096.224 0 .412-.044.564-.132a.43.43 0 0 0 .228-.396.449.449 0 0 0-.108-.312c-.072-.088-.22-.172-.444-.252-.216-.08-.544-.16-.984-.24a5.128 5.128 0 0 1-1.092-.372 1.884 1.884 0 0 1-.72-.612c-.168-.256-.252-.564-.252-.924 0-.32.104-.628.312-.924.208-.296.512-.536.912-.72.4-.192.892-.288 1.476-.288.464 0 .864.056 1.2.168.344.104.632.24.864.408.24.168.42.34.54.516.12.176.184.336.192.48a.275.275 0 0 1-.072.216.264.264 0 0 1-.192.084h-1.248a.395.395 0 0 1-.096-.012.785.785 0 0 1-.084-.048 1.503 1.503 0 0 1-.288-.192 1.733 1.733 0 0 0-.336-.216 1.069 1.069 0 0 0-.48-.096c-.216 0-.384.048-.504.144a.48.48 0 0 0-.084.66c.072.088.212.168.42.24.216.072.548.152.996.24.552.088.992.232 1.32.432.328.192.56.42.696.684.136.256.204.528.204.816 0 .384-.116.724-.348 1.02-.224.296-.56.528-1.008.696-.448.16-.992.24-1.632.24Zm7.222-.12c-.512 0-.956-.08-1.332-.24a1.849 1.849 0 0 1-.852-.768c-.2-.352-.3-.804-.3-1.356v-2.304h-.936a.335.335 0 0 1-.228-.084.292.292 0 0 1-.084-.216v-.972c0-.088.028-.16.084-.216a.335.335 0 0 1 .228-.084h.936v-1.98c0-.088.028-.16.084-.216a.32.32 0 0 1 .216-.084h1.392c.088 0 .16.028.216.084a.292.292 0 0 1 .084.216v1.98h1.5c.088 0 .16.028.216.084a.292.292 0 0 1 .084.216v.972c0 .088-.028.16-.084.216a.292.292 0 0 1-.216.084h-1.5v2.136c0 .272.052.488.156.648.104.16.28.24.528.24h.924c.088 0 .16.028.216.084a.292.292 0 0 1 .084.216V74.7c0 .088-.028.16-.084.216a.292.292 0 0 1-.216.084H44.7Zm2.71 0a.292.292 0 0 1-.217-.084.292.292 0 0 1-.084-.216v-5.64c0-.088.028-.16.084-.216a.292.292 0 0 1 .216-.084h1.308c.088 0 .16.028.216.084a.292.292 0 0 1 .084.216v.408c.16-.216.384-.404.672-.564a2.075 2.075 0 0 1 1.02-.264c.92-.016 1.552.332 1.896 1.044.184-.304.448-.552.792-.744.344-.2.72-.3 1.128-.3.416 0 .788.096 1.116.288.336.184.604.472.804.864.2.384.3.884.3 1.5V74.7c0 .088-.032.16-.096.216a.278.278 0 0 1-.204.084h-1.392a.335.335 0 0 1-.228-.084.292.292 0 0 1-.084-.216v-3.324c0-.28-.04-.5-.12-.66a.757.757 0 0 0-.324-.36.985.985 0 0 0-.9 0 .82.82 0 0 0-.336.36c-.08.16-.12.38-.12.66V74.7c0 .088-.028.16-.084.216a.292.292 0 0 1-.216.084H51.25a.292.292 0 0 1-.216-.084.292.292 0 0 1-.084-.216v-3.324c0-.28-.044-.5-.132-.66a.82.82 0 0 0-.336-.36.96.96 0 0 0-.888 0 .82.82 0 0 0-.336.36c-.08.16-.12.376-.12.648V74.7c0 .088-.032.16-.096.216a.292.292 0 0 1-.216.084H47.41Zm12.552.12c-.432 0-.82-.08-1.164-.24a2.145 2.145 0 0 1-.804-.672c-.2-.28-.3-.596-.3-.948 0-.568.232-1.016.696-1.344.464-.336 1.08-.564 1.848-.684l1.5-.228v-.168c0-.288-.06-.508-.18-.66-.12-.152-.34-.228-.66-.228-.224 0-.408.044-.552.132a.942.942 0 0 0-.324.36.345.345 0 0 1-.3.156h-1.344c-.088 0-.156-.024-.204-.072a.243.243 0 0 1-.06-.192c0-.144.052-.308.156-.492.112-.192.28-.38.504-.564.224-.184.512-.336.864-.456s.776-.18 1.272-.18c.52 0 .964.06 1.332.18.368.12.664.288.888.504.232.216.404.472.516.768.112.288.168.608.168.96V74.7c0 .088-.032.16-.096.216a.278.278 0 0 1-.204.084h-1.392a.292.292 0 0 1-.216-.084.292.292 0 0 1-.084-.216v-.42a1.742 1.742 0 0 1-.42.42 2.055 2.055 0 0 1-.624.3c-.232.08-.504.12-.816.12Zm.564-1.368c.232 0 .44-.048.624-.144.192-.104.34-.26.444-.468.112-.216.168-.484.168-.804v-.168l-1.02.18c-.376.064-.652.164-.828.3-.168.128-.252.28-.252.456 0 .136.04.252.12.348.08.096.184.172.312.228.128.048.272.072.432.072ZM65.469 75a.292.292 0 0 1-.216-.084.292.292 0 0 1-.084-.216v-5.64c0-.088.028-.16.084-.216a.292.292 0 0 1 .216-.084h1.38c.088 0 .16.028.216.084a.292.292 0 0 1 .084.216v.456c.208-.248.48-.456.816-.624.336-.168.732-.252 1.188-.252.464 0 .872.104 1.224.312.36.208.64.516.84.924.208.4.312.892.312 1.476V74.7c0 .088-.032.16-.096.216a.278.278 0 0 1-.204.084h-1.512a.32.32 0 0 1-.216-.084.292.292 0 0 1-.084-.216v-3.276c0-.376-.092-.664-.276-.864-.176-.208-.44-.312-.792-.312-.328 0-.592.104-.792.312-.192.2-.288.488-.288.864V74.7c0 .088-.032.16-.096.216a.278.278 0 0 1-.204.084h-1.5Z" fill="#fff"/></g><defs><clipPath id="b"><path fill="#fff" transform="translate(25.5 20)" d="M0 0h40v40H0z"/></clipPath><filter id="a" x="0" y="0" width="91" height="101" filterUnits="userSpaceOnUse" color-interpolation-filters="sRGB"><feFlood flood-opacity="0" result="BackgroundImageFix"/><feColorMatrix in="SourceAlpha" values="0 0 0 0 0 0 0 0 0 0 0 0 0 0 0 0 0 0 127 0" result="hardAlpha"/><feOffset dy="2"/><feGaussianBlur stdDeviation="4"/><feColorMatrix values="0 0 0 0 0 0 0 0 0 0 0 0 0 0 0 0 0 0 0.75 0"/><feBlend in2="BackgroundImageFix" result="effect1_dropShadow_505_108"/><feBlend in="SourceGraphic" in2="effect1_dropShadow_505_108" result="shape"/></filter></defs></svg>