<svg width="91" height="101" fill="none" xmlns="http://www.w3.org/2000/svg"><g filter="url(#a)"><rect x="8" y="6" width="75" height="85" rx="5" fill="#212529"/><g clip-path="url(#b)"><path d="M65.085 23.55 46.564 56.668a1.007 1.007 0 0 1-1.753.007L25.923 23.553a1.006 1.006 0 0 1 1.051-1.49l18.54 3.314c.12.021.24.021.358 0l18.153-3.309a1.007 1.007 0 0 1 1.06 1.482Z" fill="url(#c)"/><path d="m54.347 17.716-13.706 2.686a.503.503 0 0 0-.405.464l-.843 14.24a.504.504 0 0 0 .615.52l3.816-.88a.503.503 0 0 1 .606.59l-1.133 5.552a.503.503 0 0 0 .639.582l2.357-.716c.365-.11.716.21.639.584l-1.802 8.72c-.112.545.613.843.916.375l.202-.312 11.168-22.289a.503.503 0 0 0-.545-.72l-3.928.759a.503.503 0 0 1-.58-.634l2.565-8.887a.503.503 0 0 0-.58-.634h-.001Z" fill="url(#d)"/></g><path d="M36.593 75.58a.466.466 0 0 1-.324-.108.584.584 0 0 1-.167-.252l-2.448-7.68a.295.295 0 0 1-.025-.108.23.23 0 0 1 .073-.168.264.264 0 0 1 .192-.084h1.488c.128 0 .227.036.3.108.072.072.115.14.131.204l1.692 5.544 1.704-5.544a.674.674 0 0 1 .133-.204.405.405 0 0 1 .3-.108h1.487c.073 0 .133.028.18.084a.216.216 0 0 1 .085.168.295.295 0 0 1-.024.108l-2.448 7.68a.584.584 0 0 1-.168.252c-.072.072-.18.108-.325.108h-1.836Zm5.913 0a.292.292 0 0 1-.216-.084.292.292 0 0 1-.084-.216v-5.64c0-.088.028-.16.084-.216a.292.292 0 0 1 .216-.084h1.416c.08 0 .148.028.204.084a.274.274 0 0 1 .096.216v5.64c0 .088-.032.16-.096.216a.278.278 0 0 1-.204.084h-1.416Zm-.012-7.14a.292.292 0 0 1-.216-.084.292.292 0 0 1-.084-.216v-1.068c0-.088.028-.16.084-.216a.274.274 0 0 1 .216-.096h1.428c.088 0 .16.032.216.096a.274.274 0 0 1 .096.216v1.068c0 .088-.032.16-.096.216a.292.292 0 0 1-.216.084h-1.428Zm6.326 7.14c-.512 0-.956-.08-1.332-.24a1.849 1.849 0 0 1-.852-.768c-.2-.352-.3-.804-.3-1.356v-2.304H45.4a.335.335 0 0 1-.228-.084.292.292 0 0 1-.084-.216v-.972c0-.088.028-.16.084-.216a.335.335 0 0 1 .228-.084h.936v-1.98c0-.088.028-.16.084-.216a.32.32 0 0 1 .216-.084h1.392c.088 0 .16.028.216.084a.292.292 0 0 1 .084.216v1.98h1.5c.088 0 .16.028.216.084a.292.292 0 0 1 .084.216v.972c0 .088-.028.16-.084.216a.292.292 0 0 1-.216.084h-1.5v2.136c0 .272.052.488.156.648.104.16.28.24.528.24h.924c.088 0 .16.028.216.084a.292.292 0 0 1 .084.216v1.044c0 .088-.028.16-.084.216a.292.292 0 0 1-.216.084H48.82Zm5.29.12c-.944 0-1.697-.256-2.257-.768s-.852-1.272-.876-2.28v-.42c.025-.632.165-1.172.42-1.62a2.58 2.58 0 0 1 1.08-1.032c.465-.24 1.005-.36 1.62-.36.704 0 1.285.14 1.74.42.464.28.813.66 1.044 1.14.233.48.349 1.028.349 1.644v.288c0 .088-.032.16-.096.216a.278.278 0 0 1-.205.084h-3.84V73.096c.008.232.049.444.12.636a.977.977 0 0 0 .336.456.905.905 0 0 0 .552.168c.16 0 .292-.024.396-.072.112-.056.204-.116.276-.18a2.84 2.84 0 0 0 .169-.18.564.564 0 0 1 .167-.144.501.501 0 0 1 .217-.036h1.487a.26.26 0 0 1 .193.072c.055.04.08.1.072.18-.008.136-.076.3-.204.492a2.527 2.527 0 0 1-.564.576c-.24.184-.544.336-.912.456s-.797.18-1.285.18Zm-1.02-3.876h2.027V71.8c0-.256-.04-.48-.12-.672a.881.881 0 0 0-.347-.444.954.954 0 0 0-.553-.156c-.215 0-.4.052-.552.156a1.01 1.01 0 0 0-.336.444c-.08.192-.12.416-.12.672v.024Z" fill="#fff"/></g><defs><linearGradient id="c" x1="25.462" y1="24.735" x2="45.436" y2="51.863" gradientUnits="userSpaceOnUse"><stop stop-color="#41D1FF"/><stop offset="1" stop-color="#BD34FE"/></linearGradient><linearGradient id="d" x1="47.234" y1="18.446" x2="51.343" y2="46.633" gradientUnits="userSpaceOnUse"><stop stop-color="#FFEA83"/><stop offset=".083" stop-color="#FFDD35"/><stop offset="1" stop-color="#FFA800"/></linearGradient><clipPath id="b"><path fill="#fff" transform="translate(25.5 17.42)" d="M0 0h40v40.161H0z"/></clipPath><filter id="a" x="0" y="0" width="91" height="101" filterUnits="userSpaceOnUse" color-interpolation-filters="sRGB"><feFlood flood-opacity="0" result="BackgroundImageFix"/><feColorMatrix in="SourceAlpha" values="0 0 0 0 0 0 0 0 0 0 0 0 0 0 0 0 0 0 127 0" result="hardAlpha"/><feOffset dy="2"/><feGaussianBlur stdDeviation="4"/><feColorMatrix values="0 0 0 0 0 0 0 0 0 0 0 0 0 0 0 0 0 0 0.75 0"/><feBlend in2="BackgroundImageFix" result="effect1_dropShadow_505_1019"/><feBlend in="SourceGraphic" in2="effect1_dropShadow_505_1019" result="shape"/></filter></defs></svg>