<svg width="91" height="101" viewBox="0 0 91 101" fill="none" xmlns="http://www.w3.org/2000/svg">
<g filter="url(#filter0_d_1421_81)">
<path d="M78 6H13C10.2386 6 8 8.23858 8 11V86C8 88.7614 10.2386 91 13 91H78C80.7614 91 83 88.7614 83 86V11C83 8.23858 80.7614 6 78 6Z" fill="#212529"/>
</g>
<path d="M66.1992 27.8665L65.0923 27.7955C63.5512 27.6754 62.0095 28.0213 60.6676 28.7885C58.9128 29.8016 56.9223 30.3349 54.8962 30.3349C52.87 30.3349 50.8795 29.8016 49.1247 28.7885C47.935 28.0942 46.5827 27.7271 45.2051 27.7245C43.8276 27.7219 42.4739 28.0839 41.2816 28.7737C39.5503 29.8281 37.5562 30.3714 35.5294 30.3409C33.4755 30.3887 31.4514 29.8441 29.6988 28.7722C28.5985 28.098 27.3339 27.7396 26.0436 27.7363H24.8034C24.8034 26.4207 24.7901 25.1629 24.7812 24.0145H26.0554C28.0127 24.0166 29.932 24.555 31.6048 25.5713C32.7861 26.2959 34.1548 26.6562 35.5397 26.6072C36.9141 26.6348 38.2674 26.2659 39.4377 25.5447C41.1921 24.5307 43.1827 23.9968 45.2091 23.9968C47.2354 23.9968 49.226 24.5307 50.9805 25.5447C52.1755 26.2402 53.5335 26.6066 54.9161 26.6066C56.2988 26.6066 57.6568 26.2402 58.8518 25.5447C60.8278 24.4187 63.0953 23.909 65.3631 24.0811L66.217 24.1433C66.2096 25.3094 66.2037 26.5687 66.1992 27.8665Z" fill="#004999"/>
<path d="M66.1919 37.9233L65.0924 37.8538C63.5514 37.7352 62.0102 38.0811 60.6677 38.8468C58.9129 39.8598 56.9224 40.3932 54.8963 40.3932C52.8701 40.3932 50.8796 39.8598 49.1249 38.8468C47.9349 38.1529 46.5827 37.7861 45.2053 37.7835C43.8278 37.7809 42.4742 38.1426 41.2817 38.832C39.5485 39.8816 37.5555 40.4236 35.5295 40.3962C33.4759 40.4384 31.4528 39.8942 29.6974 38.8275C28.5979 38.153 27.3336 37.7945 26.0437 37.7916H24.8184C24.8184 36.5352 24.8184 35.2862 24.8184 34.0698H26.0614C28.0187 34.0719 29.9381 34.6103 31.6109 35.6266C32.7899 36.3564 34.1602 36.7172 35.5458 36.6625C36.9205 36.6931 38.2746 36.324 39.4437 35.6C41.1981 34.586 43.1887 34.0521 45.2151 34.0521C47.2415 34.0521 49.2321 34.586 50.9865 35.6C52.1815 36.2955 53.5395 36.6619 54.9222 36.6619C56.3048 36.6619 57.6628 36.2955 58.8578 35.6C60.8338 34.474 63.1013 33.9643 65.3691 34.1364L66.2097 34.1912C66.1919 35.4253 66.1919 36.6758 66.1919 37.9233Z" fill="#004999"/>
<path d="M65.092 47.4554C63.5512 47.3394 62.0107 47.6851 60.6673 48.4484C58.9125 49.4615 56.922 49.9948 54.8959 49.9948C52.8697 49.9948 50.8792 49.4615 49.1244 48.4484C47.9345 47.7543 46.5822 47.3875 45.2046 47.3852C43.8271 47.3828 42.4735 47.7451 41.2813 48.4351C39.5527 49.4952 37.5564 50.037 35.5291 49.9963C33.4747 50.0505 31.4489 49.506 29.6985 48.4292C28.5991 47.7543 27.3348 47.3959 26.0447 47.3933H24.8105C24.8105 46.1798 24.8105 44.9308 24.8105 43.6685H26.0477C28.005 43.6706 29.9243 44.209 31.5971 45.2253C32.7766 45.9551 34.1459 46.3187 35.532 46.2701C36.9068 46.299 38.2606 45.9295 39.43 45.206C41.1842 44.1916 43.1749 43.6575 45.2014 43.6575C47.2278 43.6575 49.2185 44.1916 50.9728 45.206C52.1681 45.9007 53.5259 46.2666 54.9084 46.2666C56.2909 46.2666 57.6488 45.9007 58.8441 45.206C60.821 44.0825 63.0879 43.5735 65.3554 43.744L66.196 43.7987C66.196 45.0699 66.196 46.3145 66.2063 47.522L65.092 47.4554Z" fill="#004999"/>
<path d="M21.8807 77V65.3636H24.6932V74.7159H29.5341V77H21.8807ZM30.9901 77V68.2727H33.7685V77H30.9901ZM32.3821 67.2557C31.992 67.2557 31.6567 67.1269 31.3764 66.8693C31.0961 66.608 30.956 66.2936 30.956 65.9261C30.956 65.5625 31.0961 65.2519 31.3764 64.9943C31.6567 64.733 31.992 64.6023 32.3821 64.6023C32.776 64.6023 33.1113 64.733 33.3878 64.9943C33.6681 65.2519 33.8082 65.5625 33.8082 65.9261C33.8082 66.2936 33.6681 66.608 33.3878 66.8693C33.1113 67.1269 32.776 67.2557 32.3821 67.2557ZM41.2358 80.2727V75.5852H41.179C41.0616 75.8542 40.8949 76.1061 40.679 76.3409C40.4631 76.5758 40.1922 76.7652 39.8665 76.9091C39.5445 77.053 39.1638 77.125 38.7244 77.125C38.0805 77.125 37.4953 76.9583 36.9688 76.625C36.4422 76.2917 36.0218 75.7917 35.7074 75.125C35.393 74.4583 35.2358 73.6307 35.2358 72.642C35.2358 71.6155 35.3987 70.7708 35.7244 70.108C36.0502 69.4451 36.4763 68.9545 37.0028 68.6364C37.5331 68.3182 38.1032 68.1591 38.7131 68.1591C39.1714 68.1591 39.5634 68.2386 39.8892 68.3977C40.215 68.553 40.4839 68.7538 40.696 69C40.9081 69.2462 41.0691 69.5019 41.179 69.767H41.2642V68.2727H44.0142V80.2727H41.2358ZM39.6903 74.9602C40.0275 74.9602 40.3153 74.8655 40.554 74.6761C40.7926 74.483 40.9763 74.2121 41.1051 73.8636C41.2339 73.5152 41.2983 73.1061 41.2983 72.6364C41.2983 72.1591 41.2339 71.7481 41.1051 71.4034C40.9801 71.0587 40.7964 70.7936 40.554 70.608C40.3153 70.4223 40.0275 70.3295 39.6903 70.3295C39.3456 70.3295 39.054 70.4242 38.8153 70.6136C38.5767 70.803 38.3949 71.0701 38.2699 71.4148C38.1487 71.7595 38.0881 72.1667 38.0881 72.6364C38.0881 73.1061 38.1506 73.5152 38.2756 73.8636C38.4006 74.2121 38.5805 74.483 38.8153 74.6761C39.054 74.8655 39.3456 74.9602 39.6903 74.9602ZM51.402 73.233V68.2727H54.1747V77H51.527V75.375H51.4361C51.2429 75.9091 50.9134 76.3333 50.4474 76.6477C49.9853 76.9583 49.4266 77.1136 48.7713 77.1136C48.1766 77.1136 47.6539 76.9773 47.2031 76.7045C46.7524 76.4318 46.402 76.0511 46.152 75.5625C45.902 75.0701 45.7751 74.4943 45.7713 73.8352V68.2727H48.5497V73.2898C48.5535 73.7633 48.6785 74.1364 48.9247 74.4091C49.1709 74.6818 49.5062 74.8182 49.9304 74.8182C50.2069 74.8182 50.455 74.7576 50.6747 74.6364C50.8982 74.5114 51.0743 74.3314 51.2031 74.0966C51.3357 73.858 51.402 73.5701 51.402 73.233ZM55.9432 77V68.2727H58.7216V77H55.9432ZM57.3352 67.2557C56.9451 67.2557 56.6098 67.1269 56.3295 66.8693C56.0492 66.608 55.9091 66.2936 55.9091 65.9261C55.9091 65.5625 56.0492 65.2519 56.3295 64.9943C56.6098 64.733 56.9451 64.6023 57.3352 64.6023C57.7292 64.6023 58.0644 64.733 58.3409 64.9943C58.6212 65.2519 58.7614 65.5625 58.7614 65.9261C58.7614 66.2936 58.6212 66.608 58.3409 66.8693C58.0644 67.1269 57.7292 67.2557 57.3352 67.2557ZM63.6776 77.125C63.0336 77.125 62.4484 76.9583 61.9219 76.625C61.3954 76.2917 60.9749 75.7917 60.6605 75.125C60.3461 74.4583 60.1889 73.6307 60.1889 72.642C60.1889 71.6155 60.3518 70.7708 60.6776 70.108C61.0033 69.4451 61.4295 68.9545 61.956 68.6364C62.4863 68.3182 63.0563 68.1591 63.6662 68.1591C64.1245 68.1591 64.5166 68.2386 64.8423 68.3977C65.1681 68.553 65.437 68.7538 65.6491 69C65.8613 69.2462 66.0223 69.5019 66.1321 69.767H66.1889V65.3636H68.9673V77H66.2173V75.5852H66.1321C66.0147 75.8542 65.848 76.1061 65.6321 76.3409C65.4162 76.5758 65.1454 76.7652 64.8196 76.9091C64.4976 77.053 64.117 77.125 63.6776 77.125ZM64.6435 74.9602C64.9806 74.9602 65.2685 74.8655 65.5071 74.6761C65.7457 74.483 65.9295 74.2121 66.0582 73.8636C66.187 73.5152 66.2514 73.1061 66.2514 72.6364C66.2514 72.1591 66.187 71.7481 66.0582 71.4034C65.9332 71.0587 65.7495 70.7936 65.5071 70.608C65.2685 70.4223 64.9806 70.3295 64.6435 70.3295C64.2988 70.3295 64.0071 70.4242 63.7685 70.6136C63.5298 70.803 63.348 71.0701 63.223 71.4148C63.1018 71.7595 63.0412 72.1667 63.0412 72.6364C63.0412 73.1061 63.1037 73.5152 63.2287 73.8636C63.3537 74.2121 63.5336 74.483 63.7685 74.6761C64.0071 74.8655 64.2988 74.9602 64.6435 74.9602Z" fill="white"/>
<defs>
<filter id="filter0_d_1421_81" x="0" y="0" width="91" height="101" filterUnits="userSpaceOnUse" color-interpolation-filters="sRGB">
<feFlood flood-opacity="0" result="BackgroundImageFix"/>
<feColorMatrix in="SourceAlpha" type="matrix" values="0 0 0 0 0 0 0 0 0 0 0 0 0 0 0 0 0 0 127 0" result="hardAlpha"/>
<feOffset dy="2"/>
<feGaussianBlur stdDeviation="4"/>
<feColorMatrix type="matrix" values="0 0 0 0 0 0 0 0 0 0 0 0 0 0 0 0 0 0 0.75 0"/>
<feBlend mode="normal" in2="BackgroundImageFix" result="effect1_dropShadow_1421_81"/>
<feBlend mode="normal" in="SourceGraphic" in2="effect1_dropShadow_1421_81" result="shape"/>
</filter>
</defs>
</svg>
