<svg width="91" height="101" viewBox="0 0 91 101" fill="none" xmlns="http://www.w3.org/2000/svg">
<g filter="url(#filter0_d_1421_71)">
<path d="M78 6H13C10.2386 6 8 8.23858 8 11V86C8 88.7614 10.2386 91 13 91H78C80.7614 91 83 88.7614 83 86V11C83 8.23858 80.7614 6 78 6Z" fill="#212529"/>
</g>
<path d="M23.1167 24H67.9932C70.8334 24 73.1323 26.299 73.1323 29.1392V46.2692C73.1323 49.1094 70.8334 51.4083 67.9932 51.4083H51.8999L54.1089 56.8178L44.3941 51.4083H23.1391C20.2991 51.4083 18.0002 49.1094 18.0002 46.2692V29.1392C17.9776 26.3216 20.2763 24 23.1167 24Z" fill="#9B5C8F"/>
<path d="M21.1396 28.6828C21.4534 28.2568 21.924 28.0328 22.5515 27.9881C23.6947 27.8982 24.3446 28.436 24.5014 29.6015C25.1962 34.2856 25.9581 38.2526 26.7648 41.5022L31.6729 32.1566C32.1213 31.3048 32.6817 30.8567 33.354 30.8119C34.3402 30.7447 34.9451 31.372 35.1917 32.6943C35.7521 35.6749 36.4692 38.2076 37.3208 40.359C37.9035 34.6666 38.8897 30.5653 40.2792 28.0328C40.6151 27.4053 41.1083 27.0915 41.7583 27.0465C42.2738 27.0019 42.7444 27.1587 43.1702 27.4949C43.5959 27.8311 43.8201 28.2568 43.8649 28.7724C43.8873 29.1758 43.8201 29.5119 43.641 29.8481C42.7668 31.4618 42.0494 34.1736 41.4669 37.9386C40.9067 41.5918 40.7049 44.4382 40.8393 46.4776C40.8843 47.0376 40.7945 47.5308 40.5706 47.9567C40.3014 48.4497 39.8982 48.7187 39.3826 48.7635C38.7999 48.8083 38.1949 48.5395 37.6121 47.9343C35.5279 45.8051 33.8694 42.6227 32.6593 38.387C31.2024 41.2556 30.1266 43.407 29.4319 44.8413C28.1096 47.374 26.989 48.6739 26.0477 48.7411C25.4425 48.7859 24.9272 48.2703 24.479 47.1948C23.3361 44.2588 22.1034 38.5885 20.7813 30.1843C20.6915 29.6015 20.8258 29.086 21.1396 28.6828ZM69.3021 32.2014C68.4953 30.7895 67.3074 29.9379 65.7163 29.6015C65.2903 29.5119 64.8872 29.4672 64.506 29.4672C62.3545 29.4672 60.6064 30.5877 59.2393 32.8289C58.0738 34.7338 57.4912 36.8405 57.4912 39.1489C57.4912 40.8746 57.8498 42.3537 58.567 43.5864C59.3737 44.9983 60.5616 45.8499 62.1527 46.186C62.5785 46.2759 62.9819 46.3206 63.3631 46.3206C65.5369 46.3206 67.285 45.2001 68.6297 42.9589C69.795 41.0314 70.3778 38.9247 70.3778 36.6165C70.4002 34.8684 70.0192 33.4115 69.3021 32.2014ZM66.4782 38.4094C66.1645 39.8885 65.6041 40.9866 64.7747 41.7261C64.125 42.3089 63.5198 42.5553 62.9597 42.4433C62.4217 42.3313 61.9733 41.8607 61.6374 40.9866C61.3682 40.2918 61.234 39.5971 61.234 38.9471C61.234 38.387 61.2788 37.8266 61.3908 37.3112C61.5926 36.3923 61.9735 35.4957 62.5785 34.6442C63.3183 33.5459 64.1026 33.0979 64.9093 33.2547C65.4473 33.3667 65.8957 33.8375 66.2317 34.7114C66.5006 35.4062 66.635 36.1009 66.635 36.7509C66.635 37.3336 66.5902 37.894 66.4782 38.4094ZM55.2724 32.2014C54.4656 30.7895 53.2553 29.9379 51.6866 29.6015C51.2609 29.5119 50.8575 29.4672 50.4763 29.4672C48.3248 29.4672 46.5768 30.5877 45.2096 32.8289C44.0443 34.7338 43.4616 36.8405 43.4616 39.1489C43.4616 40.8746 43.8201 42.3537 44.5373 43.5864C45.344 44.9983 46.532 45.8499 48.123 46.186C48.549 46.2759 48.9522 46.3206 49.3334 46.3206C51.5072 46.3206 53.2553 45.2001 54.6 42.9589C55.7656 41.0314 56.3481 38.9247 56.3481 36.6165C56.3481 34.8684 55.9895 33.4115 55.2724 32.2014ZM52.4262 38.4094C52.1124 39.8885 51.552 40.9866 50.7229 41.7261C50.0729 42.3089 49.4678 42.5553 48.9074 42.4433C48.3696 42.3313 47.9215 41.8607 47.5851 40.9866C47.3163 40.2918 47.1819 39.5971 47.1819 38.9471C47.1819 38.387 47.2267 37.8266 47.3387 37.3112C47.5405 36.3923 47.9215 35.4957 48.5266 34.6442C49.2662 33.5459 50.0505 33.0979 50.8573 33.2547C51.3952 33.3667 51.8436 33.8375 52.1796 34.7114C52.4488 35.4062 52.5829 36.1009 52.5829 36.7509C52.6056 37.3336 52.5382 37.894 52.4262 38.4094Z" fill="white"/>
<path d="M71.6025 72.4582C70.9788 72.4582 70.4404 72.3353 69.9875 72.0894C69.5371 71.8409 69.1903 71.4876 68.947 71.0295C68.7063 70.5688 68.5859 70.0214 68.5859 69.3873C68.5859 68.7713 68.7076 68.2329 68.9509 67.7722C69.1942 67.3089 69.5371 66.9492 69.9797 66.6929C70.4223 66.4341 70.9438 66.3047 71.5443 66.3047C71.9687 66.3047 72.357 66.3707 72.709 66.5027C73.061 66.6347 73.3651 66.8301 73.6213 67.0889C73.8776 67.3477 74.0769 67.6674 74.2192 68.0479C74.3616 68.4257 74.4327 68.8593 74.4327 69.3484V69.8221H69.2498V68.7195H72.6663C72.6637 68.5176 72.6158 68.3377 72.5226 68.1799C72.4295 68.022 72.3013 67.899 72.1383 67.811C71.9778 67.7204 71.7928 67.6752 71.5831 67.6752C71.3709 67.6752 71.1806 67.723 71.0124 67.8188C70.8442 67.912 70.7109 68.0401 70.6125 68.2032C70.5142 68.3636 70.4624 68.5461 70.4572 68.7506V69.8726C70.4572 70.1159 70.5051 70.3294 70.6009 70.5131C70.6966 70.6943 70.8325 70.8354 71.0085 70.9363C71.1845 71.0373 71.3942 71.0877 71.6375 71.0877C71.8057 71.0877 71.9584 71.0644 72.0956 71.0178C72.2327 70.9713 72.3505 70.9027 72.4489 70.8121C72.5472 70.7215 72.621 70.6102 72.6702 70.4782L74.4133 70.5287C74.3409 70.9195 74.1817 71.2598 73.9358 71.5497C73.6925 71.837 73.3729 72.0609 72.9769 72.2214C72.5809 72.3793 72.1227 72.4582 71.6025 72.4582Z" fill="white"/>
<path d="M65.0771 72.4582C64.4482 72.4582 63.9086 72.3288 63.4582 72.07C63.0104 71.8111 62.6662 71.4514 62.4255 70.9907C62.1848 70.5274 62.0645 69.9916 62.0645 69.3834C62.0645 68.7726 62.1848 68.2368 62.4255 67.7761C62.6688 67.3128 63.0143 66.9517 63.4621 66.6929C63.9124 66.4341 64.4495 66.3047 65.0733 66.3047C65.6246 66.3047 66.1047 66.4043 66.5136 66.6036C66.9251 66.8029 67.2461 67.085 67.4764 67.45C67.7094 67.8123 67.8323 68.2381 67.8453 68.7273H66.071C66.0348 68.4219 65.9313 68.1824 65.7604 68.009C65.5922 67.8356 65.3722 67.7489 65.1004 67.7489C64.8804 67.7489 64.6876 67.811 64.522 67.9353C64.3563 68.0569 64.2269 68.2381 64.1337 68.4788C64.0432 68.7169 63.9979 69.012 63.9979 69.364C63.9979 69.716 64.0432 70.0136 64.1337 70.2569C64.2269 70.4976 64.3563 70.6801 64.522 70.8043C64.6876 70.926 64.8804 70.9868 65.1004 70.9868C65.2764 70.9868 65.4317 70.9493 65.5663 70.8742C65.7035 70.7991 65.8161 70.6891 65.9041 70.5442C65.9921 70.3967 66.0477 70.2181 66.071 70.0084H67.8453C67.8271 70.5002 67.7042 70.9298 67.4764 71.2974C67.2513 71.6649 66.9342 71.9509 66.5253 72.1554C66.1189 72.3573 65.6362 72.4582 65.0771 72.4582Z" fill="white"/>
<path d="M58.002 72.3495V66.3862H59.8461V67.4733H59.9082C60.0169 67.0799 60.1942 66.7874 60.4401 66.5959C60.6859 66.4017 60.9719 66.3047 61.2981 66.3047C61.3861 66.3047 61.4766 66.3112 61.5698 66.3241C61.663 66.3345 61.7497 66.3513 61.8299 66.3746V68.0246C61.7394 67.9935 61.6203 67.9689 61.4728 67.9508C61.3278 67.9327 61.1984 67.9236 61.0845 67.9236C60.8594 67.9236 60.6562 67.9741 60.475 68.075C60.2964 68.1734 60.1554 68.3119 60.0518 68.4904C59.9509 68.6664 59.9004 68.8735 59.9004 69.1116V72.3495H58.002Z" fill="white"/>
<path d="M54.2002 72.4582C53.5764 72.4582 53.0381 72.3353 52.5851 72.0894C52.1348 71.8409 51.7879 71.4876 51.5446 71.0295C51.3039 70.5688 51.1836 70.0214 51.1836 69.3873C51.1836 68.7713 51.3052 68.2329 51.5485 67.7722C51.7918 67.3089 52.1348 66.9492 52.5774 66.6929C53.0199 66.4341 53.5415 66.3047 54.1419 66.3047C54.5664 66.3047 54.9546 66.3707 55.3066 66.5027C55.6586 66.6347 55.9628 66.8301 56.219 67.0889C56.4752 67.3477 56.6745 67.6674 56.8169 68.0479C56.9592 68.4257 57.0304 68.8593 57.0304 69.3484V69.8221H51.8475V68.7195H55.2639C55.2613 68.5176 55.2135 68.3377 55.1203 68.1799C55.0271 68.022 54.899 67.899 54.7359 67.811C54.5755 67.7204 54.3904 67.6752 54.1808 67.6752C53.9685 67.6752 53.7783 67.723 53.6101 67.8188C53.4418 67.912 53.3085 68.0401 53.2102 68.2032C53.1118 68.3636 53.0601 68.5461 53.0549 68.7506V69.8726C53.0549 70.1159 53.1028 70.3294 53.1985 70.5131C53.2943 70.6943 53.4302 70.8354 53.6062 70.9363C53.7822 71.0373 53.9918 71.0877 54.2351 71.0877C54.4033 71.0877 54.5561 71.0644 54.6932 71.0178C54.8304 70.9713 54.9482 70.9027 55.0465 70.8121C55.1449 70.7215 55.2186 70.6102 55.2678 70.4782L57.011 70.5287C56.9385 70.9195 56.7793 71.2598 56.5335 71.5497C56.2902 71.837 55.9705 72.0609 55.5745 72.2214C55.1785 72.3793 54.7204 72.4582 54.2002 72.4582Z" fill="white"/>
<path d="M41.293 72.3456V66.3823H43.0983V67.4772H43.1643C43.2885 67.1148 43.4981 66.8288 43.7932 66.6192C44.0883 66.4095 44.4403 66.3047 44.8492 66.3047C45.2633 66.3047 45.6179 66.4108 45.913 66.623C46.208 66.8353 46.3957 67.12 46.4759 67.4772H46.538C46.6493 67.1226 46.8667 66.8392 47.1902 66.6269C47.5138 66.4121 47.8955 66.3047 48.3355 66.3047C48.8998 66.3047 49.3579 66.4859 49.7099 66.8482C50.0619 67.208 50.2379 67.7023 50.2379 68.3313V72.3456H48.3394V68.7661C48.3394 68.4684 48.2631 68.242 48.1104 68.0867C47.9577 67.9288 47.7597 67.8499 47.5164 67.8499C47.255 67.8499 47.0492 67.9353 46.8991 68.1061C46.7515 68.2743 46.6778 68.5008 46.6778 68.7855V72.3456H44.8531V68.7467C44.8531 68.4697 44.778 68.251 44.6279 68.0906C44.4778 67.9301 44.2798 67.8499 44.0339 67.8499C43.8683 67.8499 43.722 67.89 43.5952 67.9702C43.4684 68.0479 43.3687 68.1592 43.2963 68.3041C43.2264 68.449 43.1914 68.6199 43.1914 68.8166V72.3456H41.293Z" fill="white"/>
<path d="M31.1719 72.3456V66.3823H32.9772V67.4772H33.0432C33.1674 67.1148 33.377 66.8288 33.6721 66.6192C33.9672 66.4095 34.3192 66.3047 34.7281 66.3047C35.1422 66.3047 35.4968 66.4108 35.7919 66.623C36.0869 66.8353 36.2746 67.12 36.3548 67.4772H36.4169C36.5282 67.1226 36.7456 66.8392 37.0691 66.6269C37.3927 66.4121 37.7744 66.3047 38.2144 66.3047C38.7787 66.3047 39.2368 66.4859 39.5888 66.8482C39.9408 67.208 40.1168 67.7023 40.1168 68.3313V72.3456H38.2183V68.7661C38.2183 68.4684 38.142 68.242 37.9893 68.0867C37.8366 67.9288 37.6386 67.8499 37.3953 67.8499C37.1339 67.8499 36.9281 67.9353 36.778 68.1061C36.6304 68.2743 36.5567 68.5008 36.5567 68.7855V72.3456H34.732V68.7467C34.732 68.4697 34.6569 68.251 34.5068 68.0906C34.3567 67.9301 34.1587 67.8499 33.9128 67.8499C33.7472 67.8499 33.6009 67.89 33.4741 67.9702C33.3473 68.0479 33.2476 68.1592 33.1752 68.3041C33.1053 68.449 33.0703 68.6199 33.0703 68.8166V72.3456H31.1719Z" fill="white"/>
<path d="M27.1846 72.4582C26.5582 72.4582 26.0199 72.3301 25.5695 72.0738C25.1218 71.815 24.7762 71.4553 24.5329 70.9946C24.2922 70.5313 24.1719 69.9942 24.1719 69.3834C24.1719 68.77 24.2922 68.2329 24.5329 67.7722C24.7762 67.3089 25.1218 66.9492 25.5695 66.6929C26.0199 66.4341 26.5582 66.3047 27.1846 66.3047C27.8109 66.3047 28.348 66.4341 28.7957 66.6929C29.2461 66.9492 29.5916 67.3089 29.8323 67.7722C30.0756 68.2329 30.1973 68.77 30.1973 69.3834C30.1973 69.9942 30.0756 70.5313 29.8323 70.9946C29.5916 71.4553 29.2461 71.815 28.7957 72.0738C28.348 72.3301 27.8109 72.4582 27.1846 72.4582ZM27.1962 71.0256C27.424 71.0256 27.6168 70.9557 27.7747 70.816C27.9326 70.6762 28.0529 70.4821 28.1357 70.2336C28.2212 69.9851 28.2639 69.6979 28.2639 69.3717C28.2639 69.0404 28.2212 68.7506 28.1357 68.5021C28.0529 68.2536 27.9326 68.0595 27.7747 67.9197C27.6168 67.78 27.424 67.7101 27.1962 67.7101C26.9607 67.7101 26.7614 67.78 26.5983 67.9197C26.4379 68.0595 26.3149 68.2536 26.2295 68.5021C26.1467 68.7506 26.1053 69.0404 26.1053 69.3717C26.1053 69.6979 26.1467 69.9851 26.2295 70.2336C26.3149 70.4821 26.4379 70.6762 26.5983 70.816C26.7614 70.9557 26.9607 71.0256 27.1962 71.0256Z" fill="white"/>
<path d="M23.3027 67.2785H21.3615C21.3356 67.0792 21.2826 66.8993 21.2023 66.7388C21.1221 66.5783 21.016 66.4412 20.884 66.3273C20.752 66.2134 20.5954 66.1267 20.4142 66.0672C20.2356 66.0051 20.0376 65.974 19.8202 65.974C19.4346 65.974 19.102 66.0685 18.8225 66.2574C18.5455 66.4463 18.332 66.7194 18.1819 67.0766C18.0343 67.4338 17.9606 67.866 17.9606 68.3733C17.9606 68.9013 18.0356 69.3439 18.1858 69.701C18.3385 70.0556 18.552 70.3235 18.8263 70.5047C19.1033 70.6833 19.4307 70.7726 19.8086 70.7726C20.0208 70.7726 20.2136 70.7454 20.387 70.691C20.563 70.6367 20.717 70.5577 20.849 70.4542C20.9836 70.3481 21.0936 70.22 21.179 70.0699C21.267 69.9172 21.3279 69.745 21.3615 69.5535L23.3027 69.5652C23.269 69.9172 23.1668 70.264 22.996 70.6056C22.8277 70.9473 22.5961 71.2592 22.301 71.5413C22.006 71.8208 21.6462 72.0434 21.2217 72.209C20.7999 72.3747 20.3159 72.4575 19.7698 72.4575C19.0502 72.4575 18.4058 72.2996 17.8363 71.9839C17.2695 71.6655 16.8218 71.2022 16.4931 70.594C16.1644 69.9857 16 69.2455 16 68.3733C16 67.4985 16.1669 66.7569 16.5008 66.1487C16.8347 65.5405 17.2863 65.0785 17.8558 64.7627C18.4252 64.4469 19.0632 64.2891 19.7698 64.2891C20.2512 64.2891 20.6963 64.3564 21.1053 64.4909C21.5142 64.6229 21.874 64.8171 22.1846 65.0733C22.4952 65.3269 22.7475 65.6388 22.9416 66.0089C23.1357 66.3791 23.2561 66.8022 23.3027 67.2785Z" fill="white"/>
<defs>
<filter id="filter0_d_1421_71" x="0" y="0" width="91" height="101" filterUnits="userSpaceOnUse" color-interpolation-filters="sRGB">
<feFlood flood-opacity="0" result="BackgroundImageFix"/>
<feColorMatrix in="SourceAlpha" type="matrix" values="0 0 0 0 0 0 0 0 0 0 0 0 0 0 0 0 0 0 127 0" result="hardAlpha"/>
<feOffset dy="2"/>
<feGaussianBlur stdDeviation="4"/>
<feColorMatrix type="matrix" values="0 0 0 0 0 0 0 0 0 0 0 0 0 0 0 0 0 0 0.75 0"/>
<feBlend mode="normal" in2="BackgroundImageFix" result="effect1_dropShadow_1421_71"/>
<feBlend mode="normal" in="SourceGraphic" in2="effect1_dropShadow_1421_71" result="shape"/>
</filter>
</defs>
</svg>
