<svg width="91" height="101" viewBox="0 0 91 101" fill="none" xmlns="http://www.w3.org/2000/svg">
<g filter="url(#filter0_d_1420_38)">
<path d="M78 6H13C10.2386 6 8 8.23858 8 11V86C8 88.7614 10.2386 91 13 91H78C80.7614 91 83 88.7614 83 86V11C83 8.23858 80.7614 6 78 6Z" fill="#212529"/>
</g>
<path d="M61.7421 78.113C61.5081 78.113 61.2873 78.0944 61.0799 78.0572C60.8724 78.0226 60.6942 77.9761 60.5453 77.9176L60.9761 76.5013C61.1676 76.5652 61.3405 76.6024 61.4948 76.613C61.6517 76.6237 61.786 76.5984 61.8977 76.5372C62.0121 76.4787 62.0998 76.3737 62.161 76.2221L62.2368 76.0386L60.0586 69.6875H62.1011L63.2301 74.0598H63.294L64.4389 69.6875H66.4934L64.1836 76.4016C64.0719 76.7367 63.9136 77.0319 63.7089 77.2872C63.5067 77.5452 63.2448 77.7473 62.923 77.8936C62.6038 78.0399 62.2102 78.113 61.7421 78.113Z" fill="white"/>
<path d="M59.6114 69.699V71.1351H55.6699V69.699H59.6114ZM56.4917 75.8266V69.3878C56.4917 68.9144 56.5808 68.5221 56.759 68.2109C56.9372 67.8971 57.1845 67.6631 57.501 67.5088C57.8175 67.3519 58.1832 67.2734 58.5981 67.2734C58.8694 67.2734 59.1247 67.2947 59.3641 67.3373C59.6061 67.3772 59.7856 67.4131 59.9026 67.445L59.5915 68.8732C59.5197 68.8492 59.4319 68.8293 59.3282 68.8133C59.2271 68.7974 59.1314 68.7894 59.0409 68.7894C58.8122 68.7894 58.6553 68.8399 58.5702 68.941C58.4851 69.0421 58.4425 69.1804 58.4425 69.3559V75.8266H56.4917Z" fill="white"/>
<path d="M52.9341 75.822V69.6943H54.8849V75.822H52.9341ZM53.9115 68.9802C53.6375 68.9802 53.4022 68.8898 53.2054 68.7089C53.0086 68.5254 52.9102 68.3047 52.9102 68.0467C52.9102 67.7914 53.0086 67.5733 53.2054 67.3925C53.4022 67.2089 53.6375 67.1172 53.9115 67.1172C54.1881 67.1172 54.4235 67.2089 54.6176 67.3925C54.8144 67.5733 54.9128 67.7914 54.9128 68.0467C54.9128 68.3047 54.8144 68.5254 54.6176 68.7089C54.4235 68.8898 54.1881 68.9802 53.9115 68.9802Z" fill="white"/>
<path d="M45.748 78.1147V69.6892H47.6789V70.7384H47.7387C47.8185 70.5522 47.9316 70.3727 48.0778 70.1998C48.2268 70.0269 48.4156 69.886 48.6443 69.7769C48.8757 69.6652 49.1523 69.6094 49.4741 69.6094C49.8996 69.6094 50.2972 69.7211 50.6669 69.9445C51.0393 70.1679 51.3398 70.5123 51.5685 70.9777C51.7972 71.4432 51.9116 72.0362 51.9116 72.757C51.9116 73.4511 51.8012 74.0322 51.5805 74.5003C51.3624 74.9684 51.0672 75.3195 50.6949 75.5535C50.3252 75.7876 49.9143 75.9046 49.4621 75.9046C49.1536 75.9046 48.8863 75.8541 48.6603 75.753C48.4342 75.6519 48.2441 75.5189 48.0898 75.3541C47.9382 75.1892 47.8212 75.0123 47.7387 74.8235H47.6988V78.1147H45.748ZM47.659 72.753C47.659 73.0828 47.7028 73.37 47.7906 73.6147C47.881 73.8594 48.01 74.0495 48.1776 74.1852C48.3478 74.3182 48.5512 74.3846 48.7879 74.3846C49.0273 74.3846 49.2308 74.3182 49.3983 74.1852C49.5659 74.0495 49.6922 73.8594 49.7773 73.6147C49.8651 73.37 49.909 73.0828 49.909 72.753C49.909 72.4232 49.8651 72.1373 49.7773 71.8953C49.6922 71.6533 49.5659 71.4658 49.3983 71.3328C49.2334 71.1998 49.03 71.1333 48.7879 71.1333C48.5486 71.1333 48.3451 71.1985 48.1776 71.3288C48.01 71.4591 47.881 71.6453 47.7906 71.8873C47.7028 72.1293 47.659 72.4179 47.659 72.753Z" fill="white"/>
<path d="M41.6543 75.9325C41.0107 75.9325 40.4575 75.8009 39.9948 75.5376C39.5347 75.2716 39.1796 74.9019 38.9296 74.4285C38.6823 73.9525 38.5586 73.4006 38.5586 72.7729C38.5586 72.1426 38.6823 71.5908 38.9296 71.1174C39.1796 70.6413 39.5347 70.2716 39.9948 70.0083C40.4575 69.7424 41.0107 69.6094 41.6543 69.6094C42.298 69.6094 42.8498 69.7424 43.3099 70.0083C43.7727 70.2716 44.1277 70.6413 44.3751 71.1174C44.6251 71.5908 44.7501 72.1426 44.7501 72.7729C44.7501 73.4006 44.6251 73.9525 44.3751 74.4285C44.1277 74.9019 43.7727 75.2716 43.3099 75.5376C42.8498 75.8009 42.298 75.9325 41.6543 75.9325ZM41.6663 74.4604C41.9003 74.4604 42.0985 74.3886 42.2607 74.245C42.423 74.1014 42.5466 73.9019 42.6317 73.6466C42.7195 73.3913 42.7634 73.0961 42.7634 72.761C42.7634 72.4205 42.7195 72.1227 42.6317 71.8674C42.5466 71.612 42.423 71.4126 42.2607 71.2689C42.0985 71.1253 41.9003 71.0535 41.6663 71.0535C41.4243 71.0535 41.2195 71.1253 41.0519 71.2689C40.8871 71.4126 40.7607 71.612 40.673 71.8674C40.5878 72.1227 40.5453 72.4205 40.5453 72.761C40.5453 73.0961 40.5878 73.3913 40.673 73.6466C40.7607 73.9019 40.8871 74.1014 41.0519 74.245C41.2195 74.3886 41.4243 74.4604 41.6663 74.4604Z" fill="white"/>
<path d="M33.6012 72.3318V75.8265H31.6504V67.6562H33.5374V70.8238H33.6052C33.7435 70.4461 33.9695 70.1509 34.2834 69.9382C34.5999 69.7254 34.9868 69.619 35.4443 69.619C35.8751 69.619 36.2501 69.7148 36.5693 69.9063C36.8884 70.0951 37.1358 70.3624 37.3113 70.7081C37.4895 71.0539 37.5773 71.4581 37.5746 71.9209V75.8265H35.6238V72.3039C35.6265 71.9634 35.5413 71.6975 35.3685 71.506C35.1956 71.3145 34.9523 71.2187 34.6384 71.2187C34.4336 71.2187 34.2528 71.264 34.0959 71.3544C33.9416 71.4422 33.8206 71.5685 33.7328 71.7334C33.6477 71.8983 33.6038 72.0977 33.6012 72.3318Z" fill="white"/>
<path d="M28.6516 70.1002C28.625 69.8077 28.5066 69.5803 28.2965 69.4181C28.0891 69.2532 27.7926 69.1707 27.4069 69.1707C27.1516 69.1707 26.9388 69.204 26.7686 69.2704C26.5984 69.3369 26.4707 69.4287 26.3856 69.5457C26.3005 69.6601 26.2566 69.7917 26.254 69.9407C26.2487 70.063 26.2726 70.1707 26.3258 70.2638C26.3816 70.3569 26.4614 70.4393 26.5652 70.5111C26.6715 70.5803 26.7992 70.6415 26.9481 70.6946C27.0971 70.7478 27.2646 70.7944 27.4508 70.8343L28.1529 70.9938C28.5572 71.0816 28.9136 71.1986 29.2221 71.3449C29.5332 71.4912 29.7939 71.6654 30.004 71.8675C30.2168 72.0696 30.3777 72.3024 30.4867 72.5657C30.5957 72.829 30.6516 73.1242 30.6543 73.4513C30.6516 73.9673 30.5213 74.4101 30.2633 74.7798C30.0053 75.1494 29.6343 75.4327 29.1503 75.6295C28.6689 75.8263 28.0878 75.9247 27.4069 75.9247C26.7234 75.9247 26.1277 75.8223 25.6197 75.6175C25.1117 75.4127 24.7168 75.1016 24.4348 74.684C24.1529 74.2665 24.008 73.7385 24 73.1002H25.891C25.9069 73.3635 25.9774 73.5829 26.1024 73.7585C26.2274 73.934 26.3989 74.067 26.617 74.1574C26.8378 74.2478 27.0931 74.2931 27.383 74.2931C27.6489 74.2931 27.875 74.2571 28.0612 74.1853C28.25 74.1135 28.3949 74.0138 28.496 73.8861C28.5971 73.7585 28.6489 73.6122 28.6516 73.4473C28.6489 73.2931 28.6011 73.1614 28.508 73.0524C28.4149 72.9407 28.2713 72.8449 28.0771 72.7651C27.8856 72.6827 27.641 72.6069 27.3431 72.5377L26.4894 72.3383C25.7819 72.176 25.2247 71.9141 24.8178 71.5524C24.4109 71.188 24.2088 70.696 24.2114 70.0763C24.2088 69.571 24.3444 69.1282 24.6184 68.7478C24.8923 68.3675 25.2713 68.071 25.7553 67.8582C26.2394 67.6454 26.7912 67.5391 27.4109 67.5391C28.0439 67.5391 28.5931 67.6468 29.0585 67.8622C29.5266 68.075 29.8896 68.3742 30.1476 68.7598C30.4056 69.1454 30.5372 69.5923 30.5426 70.1002H28.6516Z" fill="white"/>
<path d="M58.6527 24.9088C58.6251 24.7087 58.4498 24.5979 58.3049 24.5857C58.1603 24.5736 55.0999 24.3468 55.0999 24.3468C55.0999 24.3468 52.9745 22.2367 52.7412 22.0031C52.5078 21.7697 52.0519 21.8407 51.8749 21.8928C51.8489 21.9005 51.4106 22.0358 50.6855 22.2601C49.9755 20.217 48.7225 18.3395 46.518 18.3395C46.4572 18.3395 46.3945 18.342 46.3319 18.3456C45.705 17.5165 44.9284 17.1562 44.2576 17.1562C39.1224 17.1562 36.6691 23.5757 35.8999 26.8378C33.9045 27.4561 32.487 27.8957 32.3059 27.9526C31.1921 28.3019 31.1569 28.337 31.0107 29.3865C30.9006 30.1811 27.9863 52.7185 27.9863 52.7185L50.695 56.9733L62.9993 54.3115C62.9993 54.3115 58.6798 25.1089 58.6527 24.9088ZM49.4304 22.6483L47.5089 23.243C47.5096 23.1076 47.5103 22.9744 47.5103 22.8287C47.5103 21.5589 47.334 20.5365 47.0512 19.7261C48.1871 19.8686 48.9435 21.161 49.4304 22.6483ZM45.6422 19.9779C45.958 20.7691 46.1633 21.9047 46.1633 23.4371C46.1633 23.5155 46.1626 23.5872 46.1619 23.6597C44.9123 24.0468 43.5544 24.467 42.1935 24.8886C42.9576 21.9395 44.39 20.5152 45.6422 19.9779ZM44.1165 18.5336C44.3382 18.5336 44.5614 18.6089 44.7751 18.7559C43.1294 19.5303 41.3654 21.4808 40.6204 25.3758L37.4836 26.3473C38.3561 23.3764 40.4281 18.5336 44.1165 18.5336Z" fill="#95BF46"/>
<path d="M58.3061 24.5926C58.1615 24.5805 55.1012 24.3537 55.1012 24.3537C55.1012 24.3537 52.9757 22.2436 52.7424 22.01C52.6551 21.9231 52.5374 21.8786 52.4143 21.8594L50.6973 56.9799L63.0005 54.3184C63.0005 54.3184 58.681 25.1158 58.6539 24.9156C58.6263 24.7155 58.451 24.6048 58.3061 24.5926Z" fill="#5E8E3E"/>
<path d="M46.5205 31.3758L45.0033 35.8888C45.0033 35.8888 43.6741 35.1794 42.0446 35.1794C39.6559 35.1794 39.5357 36.6785 39.5357 37.0562C39.5357 39.1174 44.9086 39.9072 44.9086 44.7351C44.9086 48.5336 42.4994 50.9795 39.251 50.9795C35.3528 50.9795 33.3594 48.5535 33.3594 48.5535L34.4031 45.1049C34.4031 45.1049 36.4522 46.8642 38.1813 46.8642C39.3111 46.8642 39.7707 45.9746 39.7707 45.3246C39.7707 42.636 35.3627 42.5161 35.3627 38.098C35.3627 34.3796 38.0316 30.7812 43.4191 30.7812C45.495 30.7812 46.5205 31.3758 46.5205 31.3758Z" fill="white"/>
<defs>
<filter id="filter0_d_1420_38" x="0" y="0" width="91" height="101" filterUnits="userSpaceOnUse" color-interpolation-filters="sRGB">
<feFlood flood-opacity="0" result="BackgroundImageFix"/>
<feColorMatrix in="SourceAlpha" type="matrix" values="0 0 0 0 0 0 0 0 0 0 0 0 0 0 0 0 0 0 127 0" result="hardAlpha"/>
<feOffset dy="2"/>
<feGaussianBlur stdDeviation="4"/>
<feColorMatrix type="matrix" values="0 0 0 0 0 0 0 0 0 0 0 0 0 0 0 0 0 0 0.75 0"/>
<feBlend mode="normal" in2="BackgroundImageFix" result="effect1_dropShadow_1420_38"/>
<feBlend mode="normal" in="SourceGraphic" in2="effect1_dropShadow_1420_38" result="shape"/>
</filter>
</defs>
</svg>
