<svg width="91" height="101" fill="none" xmlns="http://www.w3.org/2000/svg"><g filter="url(#a)"><rect x="8" y="6" width="75" height="85" rx="5" fill="#212529"/><g clip-path="url(#b)"><path d="M25.5 39V19h40v40h-40" fill="#007ACC"/><path d="M34.27 39.07v1.63h5.2v14.8h3.69V40.7h5.2v-1.6c0-.9 0-1.63-.04-1.65 0-.03-3.17-.04-7.02-.04l-7 .03v1.64l-.03-.01Zm23.37-1.67c1.02.24 1.8.7 2.5 1.43.37.4.92 1.1.96 1.28 0 .06-1.73 1.23-2.78 1.88-.04.03-.2-.14-.36-.4-.52-.74-1.05-1.06-1.88-1.12-1.2-.08-2 .55-2 1.6 0 .32.06.5.18.76.27.55.77.88 2.32 1.56 2.86 1.23 4.1 2.04 4.85 3.2.85 1.3 1.04 3.34.47 4.87-.64 1.67-2.2 2.8-4.43 3.17-.7.12-2.3.1-3.05-.03-1.6-.3-3.13-1.1-4.07-2.13-.37-.4-1.08-1.47-1.04-1.54l.38-.24 1.5-.87 1.13-.66.26.35c.33.52 1.07 1.22 1.5 1.46 1.3.67 3.04.58 3.9-.2.37-.34.53-.7.53-1.2 0-.46-.07-.67-.3-1.02-.32-.44-.96-.8-2.76-1.6-2.07-.88-2.95-1.44-3.77-2.3-.47-.52-.9-1.33-1.1-2-.15-.58-.2-2-.06-2.57.43-2 1.94-3.4 4.1-3.8.7-.14 2.35-.08 3.04.1l-.02.02Z" fill="#fff"/></g><path d="M15.986 76a.292.292 0 0 1-.216-.084.292.292 0 0 1-.084-.216v-6.216H13.55a.292.292 0 0 1-.216-.084.32.32 0 0 1-.084-.216V67.9c0-.088.028-.16.084-.216a.292.292 0 0 1 .216-.084h6.456c.088 0 .16.028.216.084a.292.292 0 0 1 .084.216v1.284a.32.32 0 0 1-.084.216.292.292 0 0 1-.216.084H17.87V75.7c0 .088-.028.16-.084.216a.292.292 0 0 1-.216.084h-1.584Zm5.939 2.28a.244.244 0 0 1-.252-.252v-.072a.658.658 0 0 1 .036-.084l.936-2.256-2.304-5.448a.378.378 0 0 1-.036-.144.358.358 0 0 1 .096-.18.227.227 0 0 1 .18-.084h1.368c.104 0 .18.028.228.084a.322.322 0 0 1 .108.168l1.38 3.492 1.404-3.492a.64.64 0 0 1 .12-.168c.056-.056.136-.084.24-.084h1.344c.072 0 .132.028.18.084a.216.216 0 0 1 .084.168.47.47 0 0 1-.036.156l-3.396 7.86a.409.409 0 0 1-.12.168c-.056.056-.136.084-.24.084h-1.32Zm6.296 0a.292.292 0 0 1-.216-.084.292.292 0 0 1-.084-.216v-7.92c0-.088.028-.16.084-.216a.292.292 0 0 1 .216-.084h1.356c.08 0 .148.028.204.084a.274.274 0 0 1 .096.216v.444c.184-.248.428-.452.732-.612.304-.168.68-.252 1.128-.252.4 0 .752.064 1.056.192.304.12.564.3.78.54.216.24.384.532.504.876.128.344.2.74.216 1.188a8.935 8.935 0 0 1 0 .888c-.016.432-.084.82-.204 1.164-.12.344-.288.636-.504.876a2.27 2.27 0 0 1-.792.564 2.704 2.704 0 0 1-1.056.192 2.45 2.45 0 0 1-1.032-.204 2.013 2.013 0 0 1-.72-.6v2.664c0 .088-.028.16-.084.216a.292.292 0 0 1-.216.084H28.22Zm2.868-3.768c.272 0 .484-.056.636-.168a.905.905 0 0 0 .324-.456c.072-.192.116-.404.132-.636a5.772 5.772 0 0 0 0-.744 2.243 2.243 0 0 0-.132-.636.905.905 0 0 0-.324-.456c-.152-.112-.364-.168-.636-.168-.264 0-.476.06-.636.18a.954.954 0 0 0-.348.444 1.82 1.82 0 0 0-.12.6 8.451 8.451 0 0 0 0 .9c.008.2.052.388.132.564.08.168.2.308.36.42.16.104.364.156.612.156Zm7.282 1.608c-.944 0-1.696-.256-2.256-.768-.56-.512-.852-1.272-.876-2.28v-.42c.024-.632.164-1.172.42-1.62A2.58 2.58 0 0 1 36.74 70c.464-.24 1.004-.36 1.62-.36.704 0 1.284.14 1.74.42.464.28.812.66 1.044 1.14.232.48.348 1.028.348 1.644v.288c0 .088-.032.16-.096.216a.278.278 0 0 1-.204.084h-3.84V73.516c.008.232.048.444.12.636a.977.977 0 0 0 .336.456.905.905 0 0 0 .552.168c.16 0 .292-.024.396-.072.112-.056.204-.116.276-.18a2.84 2.84 0 0 0 .168-.18.564.564 0 0 1 .168-.144.501.501 0 0 1 .216-.036h1.488a.26.26 0 0 1 .192.072c.056.04.08.1.072.18-.008.136-.076.3-.204.492a2.527 2.527 0 0 1-.564.576c-.24.184-.544.336-.912.456s-.796.18-1.284.18Zm-1.02-3.876h2.028v-.024c0-.256-.04-.48-.12-.672a.881.881 0 0 0-.348-.444.954.954 0 0 0-.552-.156c-.216 0-.4.052-.552.156a1.01 1.01 0 0 0-.336.444c-.08.192-.12.416-.12.672v.024Zm7.833 3.876c-.52 0-.964-.056-1.332-.168a3.28 3.28 0 0 1-.888-.432 2.028 2.028 0 0 1-.504-.516c-.112-.184-.172-.34-.18-.468a.242.242 0 0 1 .084-.216.287.287 0 0 1 .204-.096h1.368c.024 0 .044.004.06.012s.04.024.072.048c.104.056.208.128.312.216.104.08.224.152.36.216.136.064.3.096.492.096.224 0 .412-.044.564-.132a.43.43 0 0 0 .228-.396.449.449 0 0 0-.108-.312c-.072-.088-.22-.172-.444-.252-.216-.08-.544-.16-.984-.24a5.128 5.128 0 0 1-1.092-.372 1.884 1.884 0 0 1-.72-.612c-.168-.256-.252-.564-.252-.924 0-.32.104-.628.312-.924.208-.296.512-.536.912-.72.4-.192.892-.288 1.476-.288.464 0 .864.056 1.2.168.344.104.632.24.864.408.24.168.42.34.54.516.12.176.184.336.192.48a.275.275 0 0 1-.072.216.264.264 0 0 1-.192.084h-1.248a.395.395 0 0 1-.096-.012.785.785 0 0 1-.084-.048 1.503 1.503 0 0 1-.288-.192 1.733 1.733 0 0 0-.336-.216 1.069 1.069 0 0 0-.48-.096c-.216 0-.384.048-.504.144a.48.48 0 0 0-.084.66c.072.088.212.168.42.24.216.072.548.152.996.24.552.088.992.232 1.32.432.328.192.56.42.696.684.136.256.204.528.204.816 0 .384-.116.724-.348 1.02-.224.296-.56.528-1.008.696-.448.16-.992.24-1.632.24Zm6.933 0c-.592 0-1.116-.108-1.572-.324a2.646 2.646 0 0 1-1.092-.936c-.264-.416-.408-.912-.432-1.488a7.93 7.93 0 0 1-.012-.48c0-.2.004-.364.012-.492.024-.584.168-1.08.432-1.488a2.537 2.537 0 0 1 1.08-.948c.464-.216.992-.324 1.584-.324.552 0 1.024.08 1.416.24.392.152.712.344.96.576.248.232.432.472.552.72.128.24.196.452.204.636a.259.259 0 0 1-.084.216.32.32 0 0 1-.216.084h-1.524a.31.31 0 0 1-.204-.06.553.553 0 0 1-.132-.18c-.096-.248-.22-.424-.372-.528-.144-.104-.332-.156-.564-.156-.32 0-.568.104-.744.312-.168.208-.26.528-.276.96-.008.32-.008.604 0 .852.016.44.108.76.276.96.176.2.424.3.744.3.248 0 .444-.052.588-.156.144-.104.26-.28.348-.528.04-.08.084-.14.132-.18a.31.31 0 0 1 .204-.06h1.524c.08 0 .152.032.216.096a.228.228 0 0 1 .084.204 1.613 1.613 0 0 1-.12.48 2.543 2.543 0 0 1-.336.564c-.152.2-.352.388-.6.564-.24.168-.532.304-.876.408a4.159 4.159 0 0 1-1.2.156Zm4.51-.12a.292.292 0 0 1-.216-.084.292.292 0 0 1-.084-.216v-5.64c0-.08.028-.148.084-.204a.274.274 0 0 1 .216-.096h1.38c.088 0 .16.032.216.096a.278.278 0 0 1 .084.204v.48c.216-.248.472-.44.768-.576a2.47 2.47 0 0 1 1.02-.204h.528c.08 0 .148.028.204.084a.274.274 0 0 1 .096.216v1.236c0 .08-.032.152-.096.216a.278.278 0 0 1-.204.084H59.46c-.328 0-.584.092-.768.276-.176.176-.264.428-.264.756V75.7c0 .088-.032.16-.096.216a.292.292 0 0 1-.216.084h-1.488Zm5.45 0a.292.292 0 0 1-.217-.084.292.292 0 0 1-.084-.216v-5.64c0-.088.028-.16.084-.216a.292.292 0 0 1 .216-.084h1.416c.08 0 .148.028.204.084a.274.274 0 0 1 .096.216v5.64c0 .088-.032.16-.096.216a.278.278 0 0 1-.204.084h-1.416Zm-.013-7.14a.292.292 0 0 1-.216-.084.292.292 0 0 1-.084-.216v-1.068c0-.088.028-.16.084-.216a.274.274 0 0 1 .216-.096h1.428c.088 0 .16.032.216.096a.274.274 0 0 1 .096.216v1.068c0 .088-.032.16-.096.216a.292.292 0 0 1-.216.084h-1.428Zm3.81 9.42a.292.292 0 0 1-.217-.084.292.292 0 0 1-.084-.216v-7.92c0-.088.028-.16.084-.216a.292.292 0 0 1 .216-.084h1.356c.08 0 .148.028.204.084a.274.274 0 0 1 .096.216v.444c.184-.248.428-.452.732-.612.304-.168.68-.252 1.128-.252.4 0 .752.064 1.056.192.304.12.564.3.78.54.216.24.384.532.504.876.128.344.2.74.216 1.188a8.935 8.935 0 0 1 0 .888c-.016.432-.084.82-.204 1.164-.12.344-.288.636-.504.876a2.27 2.27 0 0 1-.792.564 2.704 2.704 0 0 1-1.056.192 2.45 2.45 0 0 1-1.032-.204 2.013 2.013 0 0 1-.72-.6v2.664c0 .088-.028.16-.084.216a.292.292 0 0 1-.216.084h-1.464Zm2.867-3.768c.272 0 .484-.056.636-.168a.905.905 0 0 0 .324-.456c.072-.192.116-.404.132-.636a5.772 5.772 0 0 0 0-.744 2.243 2.243 0 0 0-.132-.636.905.905 0 0 0-.324-.456c-.152-.112-.364-.168-.636-.168-.264 0-.476.06-.636.18a.954.954 0 0 0-.348.444 1.82 1.82 0 0 0-.12.6 8.451 8.451 0 0 0 0 .9c.008.2.052.388.132.564.08.168.2.308.36.42.16.104.364.156.612.156ZM76.301 76c-.513 0-.957-.08-1.333-.24a1.849 1.849 0 0 1-.852-.768c-.2-.352-.3-.804-.3-1.356v-2.304h-.936a.335.335 0 0 1-.228-.084.292.292 0 0 1-.084-.216v-.972c0-.088.028-.16.084-.216a.335.335 0 0 1 .228-.084h.936v-1.98c0-.088.028-.16.084-.216a.32.32 0 0 1 .216-.084h1.392c.088 0 .16.028.216.084a.292.292 0 0 1 .084.216v1.98h1.5c.088 0 .16.028.216.084a.292.292 0 0 1 .084.216v.972c0 .088-.028.16-.084.216a.292.292 0 0 1-.216.084h-1.5v2.136c0 .272.052.488.156.648.104.16.28.24.528.24h.924c.088 0 .16.028.216.084a.292.292 0 0 1 .084.216V75.7c0 .088-.028.16-.084.216a.292.292 0 0 1-.216.084H76.3Z" fill="#fff"/></g><defs><clipPath id="b"><path fill="#fff" transform="translate(25.5 19)" d="M0 0h40v40H0z"/></clipPath><filter id="a" x="0" y="0" width="91" height="101" filterUnits="userSpaceOnUse" color-interpolation-filters="sRGB"><feFlood flood-opacity="0" result="BackgroundImageFix"/><feColorMatrix in="SourceAlpha" values="0 0 0 0 0 0 0 0 0 0 0 0 0 0 0 0 0 0 127 0" result="hardAlpha"/><feOffset dy="2"/><feGaussianBlur stdDeviation="4"/><feColorMatrix values="0 0 0 0 0 0 0 0 0 0 0 0 0 0 0 0 0 0 0.75 0"/><feBlend in2="BackgroundImageFix" result="effect1_dropShadow_505_437"/><feBlend in="SourceGraphic" in2="effect1_dropShadow_505_437" result="shape"/></filter></defs></svg>