<svg width="2024" height="350" viewBox="0 0 2024 350" fill="none" xmlns="http://www.w3.org/2000/svg">
<path d="M1828.68 4.58765C1862.16 6.26131 1895.8 7.09814 1929.61 7.09814C1954.04 7.09814 1985.51 6.26131 2024 4.58765C2017.97 19.3159 2014.96 31.5336 2014.96 41.2409V45.7598C1982.83 41.743 1944.84 39.7346 1900.99 39.7346C1892.28 70.53 1883.41 107.016 1874.37 149.192C1881.74 150.196 1898.64 150.698 1925.09 150.698C1945.17 150.698 1965.92 150.029 1987.35 148.69C1981.66 163.084 1978.64 176.473 1978.31 188.858C1948.52 184.841 1911.53 182.833 1867.35 182.833C1854.63 235.051 1843.58 290.449 1834.21 349.028C1819.14 347.354 1805.08 346.517 1792.03 346.517C1776.63 346.517 1763.08 347.354 1751.36 349.028C1763.08 313.881 1777.3 258.482 1794.04 182.833C1810.78 107.183 1822.32 47.7682 1828.68 4.58765Z" fill="white"/>
<path d="M1659.47 4.58765C1684.58 6.26131 1698.97 7.09814 1702.65 7.09814C1708.68 7.09814 1721.9 6.26131 1742.32 4.58765C1727.26 51.4502 1711.86 110.028 1696.13 180.322C1680.39 250.281 1669.85 306.517 1664.49 349.028C1647.42 347.354 1633.2 346.517 1621.81 346.517C1606.08 346.517 1592.69 347.354 1581.65 349.028C1594.7 306.182 1609.43 248.44 1625.83 175.803C1642.23 102.832 1653.45 45.7598 1659.47 4.58765Z" fill="white"/>
<path d="M1351.52 4.58765C1359.22 6.26131 1373.11 7.09814 1393.19 7.09814C1399.55 7.09814 1410.27 6.76341 1425.33 6.09395C1440.39 5.08975 1452.44 4.58765 1461.48 4.58765C1492.95 4.58765 1516.88 11.617 1533.28 25.6758C1549.68 39.7346 1557.88 60.3207 1557.88 87.434C1557.88 112.539 1549.68 133.627 1533.28 150.698C1517.21 167.435 1494.62 177.979 1465.5 182.331C1473.53 203.754 1486.25 235.721 1503.66 278.232C1521.4 320.743 1531.61 344.341 1534.28 349.028C1517.55 347.354 1503.66 346.517 1492.61 346.517C1477.88 346.517 1464.66 347.354 1452.94 349.028C1433.86 288.106 1414.95 234.716 1396.21 188.858H1386.67C1371.27 259.821 1360.56 313.211 1354.53 349.028C1341.81 347.354 1328.42 346.517 1314.37 346.517C1302.65 346.517 1290.26 347.354 1277.21 349.028C1284.57 325.596 1297.46 270.867 1315.87 184.841C1334.62 98.4802 1346.5 38.3956 1351.52 4.58765ZM1419.3 32.7052C1407.25 80.2372 1397.88 124.757 1391.19 166.264C1399.89 166.933 1406.58 167.268 1411.27 167.268C1434.03 167.268 1451.61 159.904 1463.99 145.175C1476.71 130.112 1483.07 109.861 1483.07 84.4214C1483.07 49.6092 1465.33 32.2031 1429.85 32.2031C1425.16 32.2031 1421.65 32.3705 1419.3 32.7052Z" fill="white"/>
<path d="M1117.04 0.571777C1125.41 2.24544 1131.77 3.08227 1136.12 3.08227C1141.48 3.08227 1147.84 2.24544 1155.2 0.571777C1163.24 44.7565 1175.79 104.506 1192.86 179.821C1210.27 254.801 1224.16 311.204 1234.54 349.028C1218.47 347.355 1204.24 346.518 1191.86 346.518C1178.13 346.518 1164.74 347.355 1151.69 349.028C1145.33 300.827 1140.14 265.847 1136.12 244.09C1132.11 244.09 1123.07 243.922 1109.01 243.588C1094.95 243.253 1087.59 243.086 1086.92 243.086C1069.18 243.086 1045.91 243.42 1017.13 244.09C998.047 276.894 979.469 311.873 961.394 349.028C953.36 347.355 946.163 346.518 939.803 346.518C932.105 346.518 923.736 347.355 914.699 349.028C945.494 300.492 984.156 235.554 1030.68 154.214C1077.55 72.874 1106.33 21.6599 1117.04 0.571777ZM1104.49 96.4727C1079.72 135.636 1056.12 174.8 1033.7 213.964C1034.37 213.964 1037.71 214.131 1043.74 214.466C1049.76 214.466 1056.63 214.633 1064.32 214.968C1072.36 214.968 1079.05 214.968 1084.41 214.968C1087.09 214.968 1093.45 214.968 1103.49 214.968C1113.86 214.633 1122.73 214.466 1130.1 214.466C1123.07 173.294 1114.53 133.963 1104.49 96.4727Z" fill="white"/>
<path d="M688.738 4.58765C697.441 6.26131 711.835 7.09814 731.919 7.09814C740.622 7.09814 754.848 6.26131 774.597 4.58765C781.961 86.2624 793.844 172.289 810.246 262.667C829.326 233.21 855.603 188.858 889.076 129.61C922.884 70.3626 944.976 28.6884 955.353 4.58765C967.069 6.26131 975.939 7.09814 981.964 7.09814C990.667 7.09814 999.035 6.26131 1007.07 4.58765C986.985 32.0357 916.859 146.849 796.69 349.028C786.648 347.354 779.116 346.517 774.095 346.517C768.07 346.517 760.371 347.354 750.999 349.028C747.986 322.249 744.639 297.813 740.957 275.721C723.216 169.276 705.81 78.8983 688.738 4.58765Z" fill="white"/>
<path d="M462.515 4.58765C482.599 6.26131 507.202 7.09814 536.324 7.09814C591.22 7.09814 632.057 6.26131 658.836 4.58765C652.811 16.3033 649.798 26.1779 649.798 34.2115C649.798 35.5504 649.798 37.0567 649.798 38.7304C650.133 40.404 650.3 41.9103 650.3 43.2493C629.882 40.2367 591.722 38.7304 535.822 38.7304C528.123 67.1827 519.42 104.003 509.713 149.192C568.96 149.192 607.455 148.355 625.195 146.682C619.84 158.732 617.162 169.443 617.162 178.816C617.162 182.498 617.329 184.841 617.664 185.845C585.864 182.833 547.537 181.326 502.683 181.326C491.637 232.541 483.771 277.06 479.085 314.885H515.738C547.203 314.885 573.814 313.713 595.572 311.37C589.881 325.429 587.036 335.136 587.036 340.492C587.036 341.831 587.036 343.337 587.036 345.011C587.371 346.35 587.538 347.689 587.538 349.028C545.027 347.354 510.047 346.517 482.599 346.517C452.139 346.517 421.343 347.354 390.213 349.028C400.255 318.902 413.812 261.328 430.883 176.306C448.289 91.2834 458.833 34.0441 462.515 4.58765Z" fill="white"/>
<path d="M75.2362 4.58765C92.6423 6.26131 109.881 7.09814 126.952 7.09814C134.651 7.09814 148.543 6.76341 168.627 6.09395C188.711 5.08975 203.941 4.58765 214.318 4.58765C259.172 4.58765 295.658 18.6464 323.775 46.764C351.893 74.5468 365.952 110.196 365.952 153.711C365.952 180.155 360.094 206.431 348.378 232.541C336.662 258.65 320.763 280.742 300.679 298.818C280.595 316.893 257.666 329.78 231.891 337.479C206.451 345.178 173.648 349.028 133.48 349.028C129.798 349.028 114.567 348.525 87.7887 347.521C61.0101 346.852 45.9471 346.517 42.5998 346.517C28.8757 346.517 14.817 347.354 0.423462 349.028C10.1307 317.897 23.6874 262.834 41.0935 183.837C58.4996 104.84 69.8805 45.0903 75.2362 4.58765ZM147.036 35.2157C137.999 67.6848 126.45 117.225 112.392 183.837C98.6675 250.114 89.9645 295.303 86.2824 319.404C87.9561 319.404 92.977 319.738 101.345 320.408C110.048 320.743 116.074 320.91 119.421 320.91C152.559 320.91 181.849 314.717 207.288 302.332C231.724 290.617 251.138 269.696 265.532 239.57C279.925 209.444 287.122 176.473 287.122 140.656C287.122 104.84 277.917 78.2288 259.507 60.8227C241.431 43.0819 213.313 34.2115 175.154 34.2115C169.129 34.2115 159.756 34.5462 147.036 35.2157Z" fill="white"/>
</svg>
