<svg width="91" height="101" viewBox="0 0 91 101" fill="none" xmlns="http://www.w3.org/2000/svg">
<g filter="url(#filter0_d_17_376)">
<path d="M78 6H13C10.2386 6 8 8.23858 8 11V86C8 88.7614 10.2386 91 13 91H78C80.7614 91 83 88.7614 83 86V11C83 8.23858 80.7614 6 78 6Z" fill="#212529"/>
</g>
<path fill-rule="evenodd" clip-rule="evenodd" d="M52.1389 25.76C48.7295 23.849 42.2149 23.849 38.8056 25.76C38.6468 25.9034 38.4077 25.9666 38.2189 26.08C37.8444 26.2567 37.5363 26.4997 37.1523 26.6667C37.0009 26.8531 36.7531 26.9431 36.5656 27.0934C35.9335 27.5102 35.4047 28.0304 34.8056 28.4801C34.4249 28.8638 34.1 29.3034 33.6856 29.6534C33.4571 30.0471 33.1302 30.3425 32.8856 30.7201C32.6646 31.0147 32.5023 31.3679 32.2456 31.6268C32.146 31.9361 31.9512 32.1502 31.8189 32.4268C31.6703 32.6871 31.5707 32.9963 31.3923 33.2268C30.717 34.8093 30.1649 36.5149 30.0056 38.6135C29.9722 38.7756 30.0739 39.0728 29.9523 39.1468C29.9523 39.5557 29.9523 39.9646 29.9523 40.3735C30.0739 40.4474 29.9722 40.7447 30.0056 40.9068C30.1649 43.0053 30.717 44.7109 31.3923 46.2935C31.5707 46.524 31.6703 46.8332 31.8189 47.0935C31.9512 47.3701 32.1461 47.5841 32.2456 47.8935C32.5023 48.1523 32.6646 48.5055 32.8856 48.8001C33.1302 49.1777 33.4571 49.4731 33.6856 49.8668C34.1 50.2168 34.4249 50.6564 34.8056 51.0401C35.4047 51.4898 35.9335 52.01 36.5656 52.4268C36.7531 52.5772 37.0009 52.6671 37.1523 52.8535C37.5363 53.0205 37.8444 53.2635 38.2189 53.4401C38.4077 53.5536 38.6468 53.6168 38.8056 53.7601C42.2149 55.6711 48.7295 55.6711 52.1389 53.7601C52.2977 53.6168 52.5368 53.5536 52.7256 53.4401C53.1 53.2635 53.4082 53.0205 53.7923 52.8535C53.9436 52.6671 54.1914 52.5772 54.3789 52.4268C55.011 52.01 55.5398 51.4898 56.1389 51.0401C56.5197 50.6564 56.8445 50.2168 57.2589 49.8668C57.4874 49.4731 57.8143 49.1777 58.0589 48.8001C58.2799 48.5055 58.4422 48.1523 58.6989 47.8935C58.7985 47.5841 58.9933 47.3701 59.1256 47.0935C59.2742 46.8332 59.3739 46.524 59.5523 46.2935C60.2276 44.7109 60.7797 43.0053 60.939 40.9068C60.9723 40.7446 60.8706 40.4472 60.9922 40.3733C60.9922 39.9644 60.9922 39.5556 60.9922 39.1466C60.8706 39.0727 60.9723 38.7754 60.9389 38.6133C60.7796 36.5148 60.2275 34.8092 59.5522 33.2266C59.3738 32.9962 59.2741 32.6869 59.1255 32.4266C58.9932 32.15 58.7983 31.936 58.6988 31.6266C58.4421 31.3678 58.2797 31.0146 58.0588 30.72C57.8141 30.3424 57.4873 30.047 57.2588 29.6533C56.8443 29.3032 56.5195 28.8636 56.1388 28.48C55.5396 28.0303 55.0109 27.5101 54.3788 27.0933C54.1914 26.9429 53.9435 26.853 53.7921 26.6666C53.4081 26.4995 53.1 26.2565 52.7254 26.0799C52.5367 25.9666 52.2977 25.9034 52.1389 25.76ZM46.3789 24.7467C49.3864 24.9214 51.6106 25.8795 53.5789 27.0934C53.7869 27.2231 54.0278 27.32 54.1656 27.5201C54.5285 27.6727 54.7709 27.9458 55.0723 28.1601C55.3483 28.3996 55.6565 28.6069 55.8723 28.9068C56.5741 29.4671 57.1294 30.1741 57.6323 30.9335C57.9049 31.1763 58.0704 31.5264 58.2723 31.8401C58.4212 32.1001 58.6116 32.3186 58.6989 32.6401C58.9046 32.8434 59.0087 33.1482 59.1256 33.4401C59.8388 34.9847 60.3974 36.6839 60.5123 38.8268C60.6339 38.9008 60.5322 39.1981 60.5656 39.3601C60.5656 39.6268 60.5656 39.8935 60.5656 40.1601C60.5322 40.3223 60.6339 40.6195 60.5123 40.6935C60.3975 42.8364 59.8389 44.5356 59.1256 46.0801C59.0087 46.3721 58.9046 46.6769 58.6989 46.8801C58.6116 47.2017 58.4212 47.4202 58.2723 47.6801C58.0704 47.9938 57.9049 48.3439 57.6323 48.5868C57.1294 49.3461 56.5741 50.0531 55.8723 50.6135C55.6565 50.9134 55.3483 51.1207 55.0723 51.3601C54.7709 51.5744 54.5286 51.8476 54.1656 52.0001C54.0278 52.2002 53.7869 52.297 53.5789 52.4268C51.6106 53.6407 49.3864 54.5988 46.3789 54.7735C45.8984 54.8623 45.046 54.8623 44.5656 54.7735C41.5581 54.5988 39.3339 53.6407 37.3656 52.4268C37.1576 52.297 36.9166 52.2002 36.7789 52.0001C36.4159 51.8476 36.1736 51.5744 35.8723 51.3601C35.5962 51.1207 35.2879 50.9134 35.0723 50.6135C34.3704 50.0531 33.8151 49.3461 33.3123 48.5868C33.0396 48.3439 32.8741 47.9938 32.6723 47.6801C32.5234 47.4202 32.3329 47.2017 32.2456 46.8801C32.0399 46.6769 31.9358 46.3721 31.8189 46.0801C31.1057 44.5356 30.5471 42.8364 30.4323 40.6935C30.3107 40.6195 30.4123 40.3223 30.3789 40.1601C30.3789 39.8935 30.3789 39.6268 30.3789 39.3601C30.4123 39.198 30.3107 38.9008 30.4323 38.8268C30.5471 36.6839 31.1057 34.9847 31.8189 33.4401C31.9358 33.1482 32.0399 32.8434 32.2456 32.6401C32.3329 32.3186 32.5234 32.1001 32.6723 31.8401C32.8741 31.5265 33.0396 31.1764 33.3123 30.9335C33.8151 30.1741 34.3704 29.4671 35.0723 28.9068C35.2879 28.6069 35.5962 28.3996 35.8723 28.1601C36.1736 27.9458 36.4159 27.6727 36.7789 27.5201C36.9166 27.32 37.1576 27.2232 37.3656 27.0934C39.3339 25.8796 41.5581 24.9214 44.5656 24.7467C45.046 24.6579 45.8984 24.6579 46.3789 24.7467Z" fill="#577FA2"/>
<path fill-rule="evenodd" clip-rule="evenodd" d="M48.8322 36.6933C49.584 35.5627 50.3736 34.5703 50.3789 32.7466C50.389 29.199 48.7438 25.6168 45.3122 25.12C45.2383 25.2416 44.9409 25.1399 44.7789 25.1733C41.8187 25.3953 39.5924 26.3513 37.5789 27.52C37.4274 27.7064 37.1796 27.7963 36.9922 27.9467C36.8413 28.0269 36.765 28.1817 36.5655 28.2134C35.8727 28.8183 35.1777 29.4212 34.5389 30.0801C34.3104 30.4738 33.9835 30.7692 33.7389 31.1467C33.5179 31.4414 33.3556 31.7946 33.0989 32.0534C32.9993 32.3628 32.8044 32.5768 32.6722 32.8534C32.5236 33.1137 32.4239 33.423 32.2455 33.6534C30.4596 36.8762 30.4596 42.644 32.2455 45.8667C32.4239 46.0972 32.5236 46.4065 32.6722 46.6667C32.8044 46.9433 32.9993 47.1573 33.0989 47.4667C33.3556 47.7256 33.5179 48.0787 33.7389 48.3734C33.9835 48.7509 34.3104 49.0463 34.5389 49.4401C35.1777 50.0989 35.8727 50.7018 36.5655 51.3067C36.765 51.3384 36.8413 51.4932 36.9922 51.5734C37.1796 51.7237 37.4274 51.8137 37.5789 52.0001C39.4427 53.0873 41.5038 53.9773 44.1389 54.2934C41.6478 53.1933 40.3158 50.9344 39.8189 47.8401C39.6964 47.7313 39.7995 47.3971 39.7655 47.2001C39.698 44.8571 40.2722 43.1556 41.3655 41.9734C41.5743 41.72 41.8054 41.4889 42.0589 41.2801C43.8743 39.7355 46.279 38.7802 48.1922 37.3334C48.3832 37.0977 48.5965 36.8843 48.8322 36.6933ZM39.8189 31.0933C40.863 30.2531 41.8073 29.3129 43.6589 29.28C44.1897 28.6328 46.3343 27.7879 46.4322 29.12C46.4906 29.9153 45.6024 30.4257 45.3122 31.04C44.8167 32.0888 44.7268 33.2308 44.0855 33.7067C44.7903 34.7672 44.5488 38.3226 43.1789 38.1867C42.5396 38.1233 42.7582 37.2723 42.4855 36.7467C42.1942 37.5931 41.6574 38.1941 40.9922 38.6667C40.8039 38.8881 40.4944 39.2702 40.2455 39.2534C40.4729 39.1074 40.6048 38.866 40.8322 38.7201C41.5377 37.79 42.0695 36.6863 42.5922 35.5734C43.0836 36.0241 43.1787 36.8713 43.3389 37.6534C43.8023 37.3524 43.9427 36.7283 44.0322 36.0534C44.0322 35.7689 44.0322 35.4845 44.0322 35.2001C44.1051 34.5941 43.5322 34.1527 43.6589 33.5467C43.7041 33.33 44.0282 33.0852 44.1389 32.9067C44.49 32.3402 44.6022 31.5578 44.9389 30.8801C45.2882 30.1766 45.9423 29.7252 45.9522 29.0133C45.1614 28.7636 44.4221 29.4202 43.9255 29.8133C42.3908 29.7851 41.5305 30.4087 40.7255 31.04C39.3572 32.113 38.7828 33.2653 38.0055 34.9333C37.6905 35.6093 37.3501 36.7549 36.8322 37.12C36.3338 37.4713 35.69 37.5062 35.1789 37.8133C34.6789 38.1137 34.2043 38.3287 33.7922 38.8266C34.711 38.7789 35.4308 38.9302 35.9789 39.2533C35.7499 39.9743 35.1371 40.3948 34.4855 40.7466C33.8377 41.0963 33.183 41.4732 32.6722 41.8132C33.195 40.7361 34.4041 40.3452 35.1255 39.4666C34.4614 39.3485 33.7954 39.2323 33.1522 39.0932C33.8524 37.8913 35.0793 37.2159 36.4589 36.6932C37.4452 35.0484 37.9417 32.9139 39.2855 31.6266C39.4409 31.4266 39.6187 31.2488 39.8189 31.0933ZM43.6589 30.72C43.5439 31.0494 43.2495 31.1995 43.1789 31.5733C42.6439 31.3882 43.0099 30.5221 43.6589 30.72Z" fill="#FFA230"/>
<path fill-rule="evenodd" clip-rule="evenodd" d="M45.3125 25.12C45.1504 25.1534 44.8531 25.0517 44.7792 25.1733C44.9412 25.1399 45.2386 25.2416 45.3125 25.12Z" fill="#FFCE92"/>
<path fill-rule="evenodd" clip-rule="evenodd" d="M51.7119 26.6133C50.4239 26.0703 49.0941 25.5688 47.4986 25.3333C47.4544 25.4881 47.8367 25.5885 48.0853 25.76C49.7105 26.8805 50.8271 28.9496 51.072 31.52C51.1954 31.7166 51.0906 32.1414 51.1253 32.4267C51.0937 38.1728 46.0941 38.9512 42.8586 41.4934C42.6676 41.729 42.4543 41.9424 42.2186 42.1334C41.4908 43.1416 40.6328 44.3363 40.5652 46.1334C40.4841 48.2927 41.1184 50.8147 42.2186 52.0001C42.4187 52.1555 42.5965 52.3333 42.7519 52.5334C43.5799 53.4085 44.5471 54.1236 45.9519 54.2934C47.9485 54.5347 50.1814 53.4345 51.7119 52.9068C51.8708 52.7634 52.1098 52.7001 52.2986 52.5868C52.6731 52.4101 52.9812 52.1671 53.3653 52.0001C53.5167 51.8137 53.7645 51.7237 53.952 51.5734C54.584 51.1565 55.1128 50.6364 55.712 50.1868C55.9252 49.9199 56.1261 49.6408 56.4053 49.4401C56.6338 49.0463 56.9606 48.7509 57.2053 48.3734C57.4262 48.0787 57.5886 47.7256 57.8453 47.4668C57.9448 47.1573 58.1397 46.9433 58.272 46.6668C58.4206 46.4065 58.5202 46.0972 58.6987 45.8668C59.3739 44.2842 59.9261 42.5786 60.0854 40.4801C60.1188 40.318 60.0171 40.0207 60.1387 39.9468C60.1387 39.8223 60.1387 39.6979 60.1387 39.5734C60.0171 39.4995 60.1188 39.2022 60.0854 39.0401C59.9261 36.9416 59.3739 35.236 58.6987 33.6534C58.5202 33.423 58.4207 33.1137 58.272 32.8534C58.1397 32.5768 57.9448 32.3628 57.8453 32.0534C57.5886 31.7946 57.4262 31.4414 57.2053 31.1468C56.9606 30.7692 56.6338 30.4738 56.4053 30.0801C56.1261 29.8793 55.9252 29.6001 55.712 29.3334C55.1128 28.8836 54.584 28.3635 53.952 27.9467C53.7645 27.7964 53.5167 27.7064 53.3653 27.52C52.9812 27.353 52.6731 27.11 52.2986 26.9333C52.1098 26.8199 51.8708 26.7567 51.7119 26.6133ZM46.6986 44.2133C46.6256 44.8193 47.1986 45.2607 47.0719 45.8667C47.0261 46.086 46.7034 46.3268 46.5919 46.5067C46.2407 47.0732 46.1286 47.8556 45.7919 48.5333C45.4424 49.2369 44.7826 49.6856 44.7786 50.4C45.5694 50.6497 46.3087 49.9932 46.8053 49.6C48.3399 49.6318 49.2073 48.999 50.0053 48.3733C51.3715 47.3021 51.9695 46.1402 52.7253 44.48C53.0343 43.8013 53.3874 42.6537 53.8986 42.2933C54.4102 41.9327 55.1019 41.9637 55.6053 41.6533C56.1216 41.335 56.4927 41.0278 56.9386 40.5867C56.0168 40.6374 55.3111 40.472 54.7519 40.16C55.0479 39.039 56.2735 38.7754 57.1519 38.24C57.5 38.0279 57.6985 37.6644 58.0586 37.6C57.5293 38.6707 56.3252 39.0665 55.6053 39.9467C56.2591 40.075 56.9414 40.1749 57.5786 40.32C56.875 41.5186 55.6481 42.1939 54.2719 42.72C53.2835 44.3627 52.7894 46.4998 51.4452 47.7867C51.2898 47.9868 51.112 48.1645 50.9119 48.32C49.8677 49.1603 48.9234 50.1004 47.0719 50.1333C46.5359 50.7798 44.4002 51.6214 44.2986 50.2933C44.2384 49.5064 45.1309 48.9824 45.4186 48.3733C45.9137 47.3253 46.0078 46.183 46.6453 45.7067C45.9433 44.6569 46.1864 41.0791 47.552 41.2267C48.1886 41.2954 47.9668 42.1449 48.2453 42.6667C48.531 41.8502 49.0315 41.2485 49.6853 40.8C49.8947 40.5644 50.2118 40.154 50.4853 40.16C50.2402 40.3239 50.0904 40.5828 49.8453 40.7467C49.2456 41.6937 48.5961 42.5908 48.2453 43.7867C47.5579 43.514 47.6073 42.5047 47.392 41.76C46.923 42.0377 46.812 42.6733 46.6987 43.3067C46.6986 43.6089 46.6986 43.9111 46.6986 44.2133ZM47.0719 48.6933C47.1792 48.3562 47.4921 48.2246 47.5519 47.84C48.0741 48.038 47.7279 48.8842 47.0719 48.6933Z" fill="#577FA2"/>
<path fill-rule="evenodd" clip-rule="evenodd" d="M51.0707 31.52C51.1055 31.8053 51.0007 32.23 51.124 32.4267C51.0894 32.1414 51.1941 31.7166 51.0707 31.52Z" fill="#ADC0D1"/>
<path fill-rule="evenodd" clip-rule="evenodd" d="M44.0312 35.2C44.0312 35.4844 44.0312 35.7689 44.0312 36.0533C44.1198 35.8915 44.1198 35.3619 44.0312 35.2Z" fill="#FFCE92"/>
<path fill-rule="evenodd" clip-rule="evenodd" d="M60.9916 39.1467C60.9582 38.9846 61.0599 38.6873 60.9383 38.6134C60.9717 38.7755 60.87 39.0727 60.9916 39.1467Z" fill="#ADC0D1"/>
<path fill-rule="evenodd" clip-rule="evenodd" d="M30.0053 38.6133C29.8838 38.6873 29.9854 38.9845 29.952 39.1467C30.0736 39.0727 29.9719 38.7755 30.0053 38.6133Z" fill="#ADC0D1"/>
<path fill-rule="evenodd" clip-rule="evenodd" d="M60.5125 38.8267C60.5125 39.0045 60.5125 39.1823 60.5125 39.36C60.5303 39.36 60.5481 39.36 60.5659 39.36C60.5324 39.1979 60.6341 38.9006 60.5125 38.8267Z" fill="#ADC0D1"/>
<path fill-rule="evenodd" clip-rule="evenodd" d="M30.4316 38.8267C30.31 38.9007 30.4117 39.198 30.3783 39.36C30.3961 39.36 30.4139 39.36 30.4316 39.36C30.4316 39.1822 30.4316 39.0044 30.4316 38.8267Z" fill="#ADC0D1"/>
<path fill-rule="evenodd" clip-rule="evenodd" d="M60.1381 39.5734C60.1047 39.4112 60.2064 39.114 60.0848 39.04C60.1182 39.2022 60.0165 39.4994 60.1381 39.5734Z" fill="#ADC0D1"/>
<path fill-rule="evenodd" clip-rule="evenodd" d="M60.5645 39.36C60.5467 39.36 60.5289 39.36 60.5111 39.36C60.5111 39.6267 60.5111 39.8933 60.5111 40.16C60.5289 40.16 60.5467 40.16 60.5645 40.16C60.5645 39.8933 60.5645 39.6267 60.5645 39.36Z" fill="#FEFEFE"/>
<path fill-rule="evenodd" clip-rule="evenodd" d="M30.4316 39.36C30.4139 39.36 30.3961 39.36 30.3783 39.36C30.3783 39.6267 30.3783 39.8933 30.3783 40.16C30.3961 40.16 30.4139 40.16 30.4316 40.16C30.4316 39.8933 30.4316 39.6267 30.4316 39.36Z" fill="#FEFEFE"/>
<path fill-rule="evenodd" clip-rule="evenodd" d="M60.1382 39.9467C60.0166 40.0207 60.1183 40.3179 60.0849 40.48C60.2064 40.4061 60.1047 40.1088 60.1382 39.9467Z" fill="#ADC0D1"/>
<path fill-rule="evenodd" clip-rule="evenodd" d="M60.5659 40.16C60.5481 40.16 60.5303 40.16 60.5125 40.16C60.5125 40.3378 60.5125 40.5156 60.5125 40.6933C60.6341 40.6194 60.5324 40.3221 60.5659 40.16Z" fill="#ADC0D1"/>
<path fill-rule="evenodd" clip-rule="evenodd" d="M30.4316 40.16C30.4139 40.16 30.3961 40.16 30.3783 40.16C30.4117 40.3221 30.31 40.6194 30.4316 40.6933C30.4316 40.5156 30.4316 40.3378 30.4316 40.16Z" fill="#ADC0D1"/>
<path fill-rule="evenodd" clip-rule="evenodd" d="M60.9916 40.3734C60.87 40.4473 60.9717 40.7446 60.9383 40.9067C61.0599 40.8328 60.9582 40.5355 60.9916 40.3734Z" fill="#ADC0D1"/>
<path fill-rule="evenodd" clip-rule="evenodd" d="M29.952 40.3734C29.9854 40.5355 29.8838 40.8328 30.0053 40.9067C29.9719 40.7446 30.0736 40.4473 29.952 40.3734Z" fill="#ADC0D1"/>
<path fill-rule="evenodd" clip-rule="evenodd" d="M46.6992 43.3067C46.6106 43.4862 46.6106 44.0339 46.6992 44.2133C46.6992 43.9111 46.6992 43.6089 46.6992 43.3067Z" fill="#ADC0D1"/>
<path fill-rule="evenodd" clip-rule="evenodd" d="M39.8177 47.84C39.7836 47.643 39.8867 47.3087 39.7643 47.2C39.7983 47.3971 39.6952 47.7313 39.8177 47.84Z" fill="#FFCE92"/>
<path fill-rule="evenodd" clip-rule="evenodd" d="M52.7246 26.08C52.591 25.9114 52.3601 25.8401 52.1379 25.76C52.2968 25.9034 52.5358 25.9666 52.7246 26.08Z" fill="#ADC0D1"/>
<path fill-rule="evenodd" clip-rule="evenodd" d="M54.3789 27.0933C54.2412 26.8932 54.0002 26.7964 53.7922 26.6666C53.9436 26.8531 54.1914 26.943 54.3789 27.0933Z" fill="#ADC0D1"/>
<path fill-rule="evenodd" clip-rule="evenodd" d="M57.2578 29.6534C56.8913 29.2555 56.5626 28.8198 56.1378 28.48C56.5185 28.8638 56.8433 29.3034 57.2578 29.6534Z" fill="#ADC0D1"/>
<path fill-rule="evenodd" clip-rule="evenodd" d="M58.6992 31.6267C58.4974 31.3131 58.3319 30.963 58.0592 30.72C58.2801 31.0147 58.4425 31.3678 58.6992 31.6267Z" fill="#ADC0D1"/>
<path fill-rule="evenodd" clip-rule="evenodd" d="M59.5508 33.2267C59.4339 32.9347 59.3297 32.63 59.1241 32.4267C59.2727 32.6869 59.3723 32.9962 59.5508 33.2267Z" fill="#ADC0D1"/>
<path fill-rule="evenodd" clip-rule="evenodd" d="M59.5508 46.2933C59.3723 46.5239 59.2727 46.8331 59.1241 47.0933C59.3297 46.8901 59.4339 46.5854 59.5508 46.2933Z" fill="#ADC0D1"/>
<path fill-rule="evenodd" clip-rule="evenodd" d="M58.0592 48.8C58.3319 48.5571 58.4974 48.207 58.6992 47.8933C58.4425 48.1522 58.2801 48.5053 58.0592 48.8Z" fill="#ADC0D1"/>
<path fill-rule="evenodd" clip-rule="evenodd" d="M56.1378 51.04C56.5626 50.7003 56.8913 50.2647 57.2578 49.8667C56.8433 50.2167 56.5185 50.6563 56.1378 51.04Z" fill="#ADC0D1"/>
<path fill-rule="evenodd" clip-rule="evenodd" d="M53.7922 52.8533C54.0002 52.7236 54.2412 52.6268 54.3789 52.4267C54.1914 52.577 53.9436 52.667 53.7922 52.8533Z" fill="#ADC0D1"/>
<path fill-rule="evenodd" clip-rule="evenodd" d="M52.1379 53.76C52.3601 53.6799 52.591 53.6087 52.7246 53.44C52.5357 53.5534 52.2967 53.6166 52.1379 53.76Z" fill="#ADC0D1"/>
<path fill-rule="evenodd" clip-rule="evenodd" d="M38.8047 53.76C38.6459 53.6166 38.4069 53.5534 38.2181 53.44C38.3516 53.6087 38.5825 53.6799 38.8047 53.76Z" fill="#ADC0D1"/>
<path fill-rule="evenodd" clip-rule="evenodd" d="M37.1523 52.8533C37.001 52.667 36.7532 52.577 36.5657 52.4267C36.7034 52.6268 36.9443 52.7236 37.1523 52.8533Z" fill="#ADC0D1"/>
<path fill-rule="evenodd" clip-rule="evenodd" d="M34.8047 51.04C34.424 50.6563 34.0992 50.2167 33.6847 49.8667C34.0512 50.2647 34.3799 50.7003 34.8047 51.04Z" fill="#ADC0D1"/>
<path fill-rule="evenodd" clip-rule="evenodd" d="M32.2448 47.8933C32.4466 48.207 32.6121 48.5571 32.8848 48.8C32.6638 48.5053 32.5015 48.1522 32.2448 47.8933Z" fill="#ADC0D1"/>
<path fill-rule="evenodd" clip-rule="evenodd" d="M31.3917 46.2933C31.5086 46.5853 31.6127 46.8901 31.8184 47.0933C31.6698 46.8331 31.5701 46.5239 31.3917 46.2933Z" fill="#ADC0D1"/>
<path fill-rule="evenodd" clip-rule="evenodd" d="M31.8184 32.4267C31.6127 32.63 31.5086 32.9347 31.3917 33.2267C31.5701 32.9962 31.6698 32.6869 31.8184 32.4267Z" fill="#ADC0D1"/>
<path fill-rule="evenodd" clip-rule="evenodd" d="M32.8848 30.72C32.6121 30.963 32.4466 31.313 32.2448 31.6267C32.5015 31.3678 32.6638 31.0147 32.8848 30.72Z" fill="#ADC0D1"/>
<path fill-rule="evenodd" clip-rule="evenodd" d="M34.8047 28.48C34.3799 28.8198 34.0512 29.2554 33.6847 29.6534C34.0992 29.3034 34.424 28.8638 34.8047 28.48Z" fill="#ADC0D1"/>
<path fill-rule="evenodd" clip-rule="evenodd" d="M37.1523 26.6667C36.9443 26.7965 36.7034 26.8933 36.5657 27.0934C36.7532 26.943 37.001 26.8531 37.1523 26.6667Z" fill="#ADC0D1"/>
<path fill-rule="evenodd" clip-rule="evenodd" d="M38.8047 25.76C38.5825 25.8401 38.3516 25.9114 38.2181 26.08C38.4069 25.9666 38.6459 25.9034 38.8047 25.76Z" fill="#ADC0D1"/>
<path fill-rule="evenodd" clip-rule="evenodd" d="M54.1641 27.52C54.0263 27.3199 53.7854 27.2231 53.5774 27.0933C53.7288 27.2798 53.9766 27.3697 54.1641 27.52Z" fill="#ADC0D1"/>
<path fill-rule="evenodd" clip-rule="evenodd" d="M55.8711 28.9067C55.6553 28.6069 55.3471 28.3996 55.0711 28.16C55.2972 28.4494 55.6118 28.6504 55.8711 28.9067Z" fill="#ADC0D1"/>
<path fill-rule="evenodd" clip-rule="evenodd" d="M58.2715 31.84C58.0696 31.5264 57.9041 31.1763 57.6315 30.9333C57.8524 31.228 58.0148 31.5812 58.2715 31.84Z" fill="#ADC0D1"/>
<path fill-rule="evenodd" clip-rule="evenodd" d="M59.125 33.44C59.0081 33.148 58.9039 32.8433 58.6983 32.64C58.847 32.9003 58.9466 33.2096 59.125 33.44Z" fill="#ADC0D1"/>
<path fill-rule="evenodd" clip-rule="evenodd" d="M59.125 46.08C58.9466 46.3105 58.8469 46.6198 58.6983 46.88C58.904 46.6768 59.0081 46.372 59.125 46.08Z" fill="#ADC0D1"/>
<path fill-rule="evenodd" clip-rule="evenodd" d="M58.2715 47.68C58.0148 47.9388 57.8524 48.292 57.6315 48.5867C57.9041 48.3437 58.0696 47.9937 58.2715 47.68Z" fill="#ADC0D1"/>
<path fill-rule="evenodd" clip-rule="evenodd" d="M55.8711 50.6133C55.6118 50.8697 55.2972 51.0706 55.0711 51.36C55.3471 51.1205 55.6553 50.9132 55.8711 50.6133Z" fill="#ADC0D1"/>
<path fill-rule="evenodd" clip-rule="evenodd" d="M54.1641 52C53.9766 52.1503 53.7288 52.2403 53.5774 52.4267C53.7854 52.2969 54.0264 52.2001 54.1641 52Z" fill="#ADC0D1"/>
<path fill-rule="evenodd" clip-rule="evenodd" d="M37.3652 52.4267C37.2139 52.2403 36.9661 52.1503 36.7786 52C36.9163 52.2001 37.1572 52.2969 37.3652 52.4267Z" fill="#ADC0D1"/>
<path fill-rule="evenodd" clip-rule="evenodd" d="M35.8711 51.36C35.645 51.0706 35.3304 50.8697 35.0711 50.6133C35.2868 50.9132 35.5951 51.1205 35.8711 51.36Z" fill="#ADC0D1"/>
<path fill-rule="evenodd" clip-rule="evenodd" d="M33.3125 48.5867C33.0916 48.292 32.9292 47.9388 32.6725 47.68C32.8744 47.9937 33.0399 48.3437 33.3125 48.5867Z" fill="#ADC0D1"/>
<path fill-rule="evenodd" clip-rule="evenodd" d="M32.2441 46.88C32.0956 46.6198 31.9959 46.3105 31.8175 46.08C31.9344 46.372 32.0385 46.6768 32.2441 46.88Z" fill="#ADC0D1"/>
<path fill-rule="evenodd" clip-rule="evenodd" d="M31.8175 33.44C31.9959 33.2096 32.0956 32.9003 32.2441 32.64C32.0385 32.8433 31.9344 33.148 31.8175 33.44Z" fill="#ADC0D1"/>
<path fill-rule="evenodd" clip-rule="evenodd" d="M32.6725 31.84C32.9292 31.5812 33.0916 31.228 33.3125 30.9333C33.0399 31.1763 32.8744 31.5264 32.6725 31.84Z" fill="#ADC0D1"/>
<path fill-rule="evenodd" clip-rule="evenodd" d="M35.8711 28.16C35.5951 28.3995 35.2868 28.6068 35.0711 28.9067C35.3304 28.6504 35.645 28.4494 35.8711 28.16Z" fill="#ADC0D1"/>
<path fill-rule="evenodd" clip-rule="evenodd" d="M36.7786 27.52C36.9661 27.3697 37.2139 27.2798 37.3652 27.0933C37.1572 27.2231 36.9163 27.3199 36.7786 27.52Z" fill="#ADC0D1"/>
<path fill-rule="evenodd" clip-rule="evenodd" d="M48.832 36.6933C48.5964 36.8843 48.3831 37.0977 48.192 37.3333C48.4277 37.1423 48.641 36.9289 48.832 36.6933Z" fill="#FFCE92"/>
<path fill-rule="evenodd" clip-rule="evenodd" d="M42.0586 41.28C41.8052 41.4889 41.5741 41.72 41.3652 41.9733C41.6187 41.7645 41.8498 41.5334 42.0586 41.28Z" fill="#FFCE92"/>
<path fill-rule="evenodd" clip-rule="evenodd" d="M37.5781 52C37.4267 51.8136 37.1789 51.7236 36.9914 51.5733C37.1291 51.7734 37.3701 51.8703 37.5781 52Z" fill="#FFCE92"/>
<path fill-rule="evenodd" clip-rule="evenodd" d="M36.5645 51.3067C35.8717 50.7018 35.1767 50.0989 34.5378 49.44C35.1307 50.1449 35.8219 50.7514 36.5645 51.3067Z" fill="#FFCE92"/>
<path fill-rule="evenodd" clip-rule="evenodd" d="M33.0983 47.4667C33.3001 47.7803 33.4656 48.1304 33.7383 48.3733C33.5174 48.0786 33.355 47.7255 33.0983 47.4667Z" fill="#FFCE92"/>
<path fill-rule="evenodd" clip-rule="evenodd" d="M32.2452 45.8667C32.3621 46.1587 32.4662 46.4634 32.6719 46.6667C32.5233 46.4064 32.4236 46.0972 32.2452 45.8667Z" fill="#FFCE92"/>
<path fill-rule="evenodd" clip-rule="evenodd" d="M32.6719 32.8533C32.4662 33.0566 32.3621 33.3614 32.2452 33.6533C32.4236 33.4229 32.5233 33.1136 32.6719 32.8533Z" fill="#FFCE92"/>
<path fill-rule="evenodd" clip-rule="evenodd" d="M33.7383 31.1467C33.4656 31.3897 33.3001 31.7397 33.0983 32.0534C33.355 31.7945 33.5174 31.4413 33.7383 31.1467Z" fill="#FFCE92"/>
<path fill-rule="evenodd" clip-rule="evenodd" d="M36.5645 28.2133C35.8219 28.7686 35.1307 29.3751 34.5378 30.08C35.1767 29.4211 35.8717 28.8182 36.5645 28.2133Z" fill="#FFCE92"/>
<path fill-rule="evenodd" clip-rule="evenodd" d="M37.5781 27.52C37.3701 27.6498 37.1291 27.7466 36.9914 27.9467C37.1789 27.7964 37.4267 27.7065 37.5781 27.52Z" fill="#FFCE92"/>
<path fill-rule="evenodd" clip-rule="evenodd" d="M52.2988 26.9333C52.1653 26.7646 51.9343 26.6934 51.7121 26.6133C51.871 26.7568 52.11 26.8199 52.2988 26.9333Z" fill="#ADC0D1"/>
<path fill-rule="evenodd" clip-rule="evenodd" d="M53.9512 27.9467C53.8134 27.7466 53.5725 27.6498 53.3645 27.52C53.5159 27.7065 53.7637 27.7964 53.9512 27.9467Z" fill="#ADC0D1"/>
<path fill-rule="evenodd" clip-rule="evenodd" d="M56.4043 30.08C56.1672 29.8371 55.9757 29.5486 55.711 29.3333C55.9242 29.6001 56.1251 29.8792 56.4043 30.08Z" fill="#ADC0D1"/>
<path fill-rule="evenodd" clip-rule="evenodd" d="M57.8457 32.0534C57.6438 31.7396 57.4783 31.3896 57.2057 31.1467C57.4267 31.4413 57.589 31.7945 57.8457 32.0534Z" fill="#ADC0D1"/>
<path fill-rule="evenodd" clip-rule="evenodd" d="M58.6992 33.6533C58.5823 33.3614 58.4782 33.0566 58.2725 32.8533C58.4211 33.1136 58.5208 33.4229 58.6992 33.6533Z" fill="#ADC0D1"/>
<path fill-rule="evenodd" clip-rule="evenodd" d="M58.6992 45.8667C58.5208 46.0972 58.4212 46.4064 58.2725 46.6667C58.4782 46.4634 58.5823 46.1587 58.6992 45.8667Z" fill="#ADC0D1"/>
<path fill-rule="evenodd" clip-rule="evenodd" d="M57.2057 48.3733C57.4783 48.1304 57.6438 47.7803 57.8457 47.4667C57.589 47.7255 57.4267 48.0786 57.2057 48.3733Z" fill="#ADC0D1"/>
<path fill-rule="evenodd" clip-rule="evenodd" d="M55.711 50.1867C55.9758 49.9715 56.1672 49.6829 56.4043 49.44C56.1251 49.6408 55.9242 49.9199 55.711 50.1867Z" fill="#ADC0D1"/>
<path fill-rule="evenodd" clip-rule="evenodd" d="M53.3645 52C53.5725 51.8703 53.8134 51.7734 53.9512 51.5733C53.7637 51.7236 53.5159 51.8136 53.3645 52Z" fill="#ADC0D1"/>
<path fill-rule="evenodd" clip-rule="evenodd" d="M51.7121 52.9067C51.9343 52.8266 52.1653 52.7554 52.2988 52.5867C52.11 52.7001 51.871 52.7634 51.7121 52.9067Z" fill="#ADC0D1"/>
<path fill-rule="evenodd" clip-rule="evenodd" d="M42.752 52.5333C42.5965 52.3332 42.4187 52.1555 42.2186 52C42.3741 52.2001 42.5518 52.3779 42.752 52.5333Z" fill="#ADC0D1"/>
<path fill-rule="evenodd" clip-rule="evenodd" d="M42.8574 41.4933C42.6218 41.6844 42.4084 41.8977 42.2174 42.1333C42.4531 41.9424 42.6664 41.729 42.8574 41.4933Z" fill="#ADC0D1"/>
<path fill-rule="evenodd" clip-rule="evenodd" d="M40.8322 38.72C40.6048 38.866 40.4729 39.1074 40.2455 39.2533C40.4945 39.2702 40.804 38.888 40.9922 38.6666C40.9154 38.6382 40.8621 38.8745 40.8322 38.72Z" fill="#FFCE92"/>
<path fill-rule="evenodd" clip-rule="evenodd" d="M39.2842 31.6267C37.9403 32.914 37.4438 35.0486 36.4575 36.6934C35.0779 37.2161 33.8511 37.8914 33.1508 39.0934C33.794 39.2324 34.46 39.3486 35.1242 39.4667C34.4028 40.3453 33.1937 40.7361 32.6708 41.8134C33.1816 41.4733 33.8364 41.0964 34.4842 40.7467C35.1357 40.3949 35.7486 39.9744 35.9775 39.2534C35.4296 38.9303 34.7097 38.779 33.7908 38.8267C34.203 38.3288 34.6775 38.1138 35.1775 37.8134C35.6886 37.5063 36.3325 37.4714 36.8308 37.1201C37.3488 36.755 37.6892 35.6095 38.0042 34.9334C38.7814 33.2653 39.3558 32.1131 40.7242 31.0401C41.5292 30.4088 42.3894 29.7853 43.9242 29.8134C44.4207 29.4203 45.1601 28.7637 45.9508 29.0134C45.941 29.7252 45.2869 30.1768 44.9375 30.8801C44.6008 31.5578 44.4887 32.3402 44.1375 32.9068C44.0269 33.0852 43.7028 33.33 43.6575 33.5468C43.5309 34.1528 44.1038 34.5942 44.0308 35.2001C44.1195 35.362 44.1195 35.8916 44.0308 36.0534C43.9414 36.7284 43.801 37.3525 43.3375 37.6534C43.1773 36.8714 43.0823 36.0242 42.5908 35.5734C42.0682 36.6863 41.5364 37.7901 40.8308 38.7201C40.8607 38.8746 40.914 38.6383 40.9908 38.6668C41.6561 38.1942 42.1928 37.5933 42.4842 36.7468C42.7569 37.2724 42.5382 38.1234 43.1775 38.1868C44.5474 38.3227 44.789 34.7673 44.0842 33.7068C44.7254 33.2309 44.8154 32.0889 45.3108 31.0401C45.6011 30.4258 46.4893 29.9154 46.4308 29.1201C46.3329 27.788 44.1884 28.633 43.6575 29.2801C41.8059 29.3131 40.8617 30.2532 39.8175 31.0934C39.6621 31.2934 39.4843 31.4712 39.2842 31.6267Z" fill="#FEFEFE"/>
<path fill-rule="evenodd" clip-rule="evenodd" d="M39.8184 31.0933C39.6182 31.2488 39.4404 31.4266 39.285 31.6266C39.4851 31.4712 39.6629 31.2935 39.8184 31.0933Z" fill="#FFCE92"/>
<path fill-rule="evenodd" clip-rule="evenodd" d="M43.1782 31.5733C43.2489 31.1995 43.5432 31.0494 43.6582 30.72C43.0092 30.5221 42.6432 31.3882 43.1782 31.5733Z" fill="#FEFEFE"/>
<path fill-rule="evenodd" clip-rule="evenodd" d="M51.4453 47.7867C51.2452 47.9421 51.0674 48.1199 50.912 48.32C51.1121 48.1645 51.2899 47.9867 51.4453 47.7867Z" fill="#ADC0D1"/>
<path fill-rule="evenodd" clip-rule="evenodd" d="M49.8444 40.7467C50.0894 40.5828 50.2393 40.3239 50.4844 40.16C50.2109 40.1541 49.8938 40.5644 49.6844 40.8C49.7612 40.8285 49.8146 40.5922 49.8444 40.7467Z" fill="#ADC0D1"/>
<path fill-rule="evenodd" clip-rule="evenodd" d="M51.4452 47.7867C52.7894 46.4998 53.2835 44.3627 54.2719 42.72C55.6481 42.194 56.8749 41.5186 57.5786 40.32C56.9414 40.1749 56.2591 40.075 55.6053 39.9467C56.3252 39.0666 57.5292 38.6708 58.0586 37.6C57.6986 37.6645 57.4999 38.0279 57.1519 38.24C56.2735 38.7754 55.0479 39.039 54.7519 40.16C55.311 40.472 56.0167 40.6375 56.9386 40.5867C56.4926 41.0278 56.1216 41.335 55.6053 41.6533C55.1019 41.9637 54.4101 41.9328 53.8986 42.2933C53.3874 42.6537 53.0343 43.8013 52.7253 44.48C51.9694 46.1402 51.3715 47.3021 50.0053 48.3733C49.2073 48.999 48.3399 49.6318 46.8053 49.6C46.3088 49.9933 45.5694 50.6498 44.7786 50.4C44.7826 49.6857 45.4424 49.237 45.7919 48.5333C46.1285 47.8557 46.2407 47.0733 46.5919 46.5067C46.7034 46.3268 47.0261 46.0861 47.0719 45.8667C47.1985 45.2607 46.6256 44.8193 46.6986 44.2133C46.61 44.0339 46.61 43.4862 46.6986 43.3067C46.8119 42.6733 46.9229 42.0377 47.3919 41.76C47.6072 42.5047 47.5579 43.5141 48.2452 43.7867C48.5961 42.5909 49.2455 41.6937 49.8452 40.7467C49.8153 40.5922 49.762 40.8285 49.6852 40.8C49.0315 41.2485 48.5309 41.8502 48.2452 42.6667C47.9667 42.1449 48.1885 41.2955 47.5519 41.2267C46.1863 41.0791 45.9432 44.6569 46.6452 45.7067C46.0077 46.183 45.9136 47.3253 45.4185 48.3733C45.1308 48.9824 44.2383 49.5064 44.2985 50.2933C44.4001 51.6215 46.5358 50.7799 47.0718 50.1333C48.9234 50.1005 49.8676 49.1603 50.9118 48.32C51.0674 48.1199 51.2452 47.9422 51.4452 47.7867Z" fill="#FEFEFE"/>
<path fill-rule="evenodd" clip-rule="evenodd" d="M47.5513 47.84C47.4914 48.2247 47.1786 48.3563 47.0713 48.6933C47.7272 48.8843 48.0734 48.038 47.5513 47.84Z" fill="#FEFEFE"/>
<path fill-rule="evenodd" clip-rule="evenodd" d="M46.3789 24.7467C45.8985 24.6578 45.046 24.6578 44.5656 24.7467C45.1699 24.7467 45.7744 24.7467 46.3789 24.7467Z" fill="#ADC0D1"/>
<path fill-rule="evenodd" clip-rule="evenodd" d="M46.3789 54.7733C45.7745 54.7733 45.17 54.7733 44.5656 54.7733C45.046 54.8621 45.8984 54.8621 46.3789 54.7733Z" fill="#ADC0D1"/>
<path d="M35.745 63.278V71H33.864V66.369L32.137 71H30.619L28.881 66.358V71H27V63.278H29.222L31.389 68.624L33.534 63.278H35.745Z" fill="white"/>
<path d="M43.3677 64.862L39.5177 73.915H37.4937L38.9017 70.791L36.4047 64.862H38.5057L39.9247 68.701L41.3327 64.862H43.3677Z" fill="white"/>
<path d="M46.8419 71.077C46.2772 71.077 45.7712 70.9854 45.3239 70.802C44.8765 70.6187 44.5172 70.3474 44.2459 69.988C43.9819 69.6287 43.8425 69.196 43.8279 68.69H45.8299C45.8592 68.976 45.9582 69.196 46.1269 69.35C46.2955 69.4967 46.5155 69.57 46.7869 69.57C47.0655 69.57 47.2855 69.5077 47.4469 69.383C47.6082 69.251 47.6889 69.0714 47.6889 68.844C47.6889 68.6534 47.6229 68.4957 47.4909 68.371C47.3662 68.2464 47.2085 68.1437 47.0179 68.063C46.8345 67.9824 46.5705 67.8907 46.2259 67.788C45.7272 67.634 45.3202 67.48 45.0049 67.326C44.6895 67.172 44.4182 66.9447 44.1909 66.644C43.9635 66.3434 43.8499 65.951 43.8499 65.467C43.8499 64.7484 44.1102 64.1874 44.6309 63.784C45.1515 63.3734 45.8299 63.168 46.6659 63.168C47.5165 63.168 48.2022 63.3734 48.7229 63.784C49.2435 64.1874 49.5222 64.752 49.5589 65.478H47.5239C47.5092 65.2287 47.4175 65.0344 47.2489 64.895C47.0802 64.7484 46.8639 64.675 46.5999 64.675C46.3725 64.675 46.1892 64.7374 46.0499 64.862C45.9105 64.9794 45.8409 65.1517 45.8409 65.379C45.8409 65.6284 45.9582 65.8227 46.1929 65.962C46.4275 66.1014 46.7942 66.2517 47.2929 66.413C47.7915 66.5817 48.1949 66.743 48.5029 66.897C48.8182 67.051 49.0895 67.2747 49.3169 67.568C49.5442 67.8614 49.6579 68.239 49.6579 68.701C49.6579 69.141 49.5442 69.5407 49.3169 69.9C49.0969 70.2594 48.7742 70.5454 48.3489 70.758C47.9235 70.9707 47.4212 71.077 46.8419 71.077Z" fill="white"/>
<path d="M56.3154 72.32L55.3254 70.989C55.0321 71.0477 54.7461 71.077 54.4674 71.077C53.7414 71.077 53.0741 70.9084 52.4654 70.571C51.8641 70.2337 51.3838 69.7644 51.0244 69.163C50.6724 68.5544 50.4964 67.8724 50.4964 67.117C50.4964 66.3617 50.6724 65.6834 51.0244 65.082C51.3838 64.4807 51.8641 64.0114 52.4654 63.674C53.0741 63.3367 53.7414 63.168 54.4674 63.168C55.1934 63.168 55.8571 63.3367 56.4584 63.674C57.0671 64.0114 57.5438 64.4807 57.8884 65.082C58.2404 65.6834 58.4164 66.3617 58.4164 67.117C58.4164 67.777 58.2808 68.382 58.0094 68.932C57.7454 69.4747 57.3751 69.9257 56.8984 70.285L58.5924 72.32H56.3154ZM52.4214 67.117C52.4214 67.799 52.6048 68.3454 52.9714 68.756C53.3454 69.1594 53.8441 69.361 54.4674 69.361C55.0834 69.361 55.5748 69.1557 55.9414 68.745C56.3154 68.3344 56.5024 67.7917 56.5024 67.117C56.5024 66.435 56.3154 65.8924 55.9414 65.489C55.5748 65.0784 55.0834 64.873 54.4674 64.873C53.8441 64.873 53.3454 65.0747 52.9714 65.478C52.6048 65.8814 52.4214 66.4277 52.4214 67.117Z" fill="white"/>
<path d="M61.3654 69.548H63.8294V71H59.4844V63.278H61.3654V69.548Z" fill="white"/>
<defs>
<filter id="filter0_d_17_376" x="0" y="0" width="91" height="101" filterUnits="userSpaceOnUse" color-interpolation-filters="sRGB">
<feFlood flood-opacity="0" result="BackgroundImageFix"/>
<feColorMatrix in="SourceAlpha" type="matrix" values="0 0 0 0 0 0 0 0 0 0 0 0 0 0 0 0 0 0 127 0" result="hardAlpha"/>
<feOffset dy="2"/>
<feGaussianBlur stdDeviation="4"/>
<feColorMatrix type="matrix" values="0 0 0 0 0 0 0 0 0 0 0 0 0 0 0 0 0 0 0.75 0"/>
<feBlend mode="normal" in2="BackgroundImageFix" result="effect1_dropShadow_17_376"/>
<feBlend mode="normal" in="SourceGraphic" in2="effect1_dropShadow_17_376" result="shape"/>
</filter>
</defs>
</svg>
