<svg width="91" height="101" fill="none" xmlns="http://www.w3.org/2000/svg"><g filter="url(#a)"><rect x="8" y="6" width="75" height="85" rx="5" fill="#212529"/><g clip-path="url(#b)"><path d="M56.622 20.279H31.575a3.054 3.054 0 0 0-3.045 3.045v27.623a3.054 3.054 0 0 0 3.045 3.044h16.503c-.182-8.209 2.619-24.14 8.55-33.737l-.006.025Z" fill="#0F80CC"/><path d="M55.709 21.174H31.575a2.168 2.168 0 0 0-2.161 2.162v25.607c5.468-2.1 13.671-3.91 19.347-3.824a176.183 176.183 0 0 1 6.954-23.945h-.006Z" fill="url(#c)"/><path d="M62.468 19.378c-1.717-1.523-3.794-.914-5.846.9l-.913.89c-3.508 3.715-6.699 10.608-7.77 15.876.381.834.683 1.703.9 2.594l.135.609.134.621s-.031-.122-.159-.487l-.085-.244a2.783 2.783 0 0 0-.055-.134c-.35-.73-.73-1.445-1.139-2.143-.221.647-.43 1.299-.627 1.955.804 1.473 1.291 3.994 1.291 3.994s-.043-.164-.244-.73c-.182-.506-1.071-2.07-1.278-2.436-.366 1.34-.506 2.24-.378 2.46.244.426.487 1.218.7 1.973.33 1.34.597 2.693.804 4.056l.03.377a37.226 37.226 0 0 0 .092 4.568c.158 1.906.457 3.544.834 4.42l.256-.14c-.548-1.729-.78-3.988-.682-6.6.152-3.99 1.066-8.8 2.765-13.812 2.88-7.63 6.85-13.708 10.492-16.607-3.319 2.996-7.807 12.691-9.146 16.278-1.505 4.02-2.57 7.795-3.216 11.406 1.108-3.386 4.69-4.847 4.69-4.847s1.765-2.168 3.812-5.268l-3.928 1.048-1.267.56s3.227-1.967 6.01-2.862c3.819-6.01 7.978-14.555 3.788-18.282" fill="#003B57"/></g><path d="M29.574 74.62c-.8 0-1.464-.112-1.992-.336-.528-.232-.928-.532-1.2-.9a2.084 2.084 0 0 1-.432-1.176.23.23 0 0 1 .072-.168.264.264 0 0 1 .192-.084h1.512c.112 0 .196.02.252.06a.62.62 0 0 1 .168.156c.064.12.152.236.264.348.12.112.272.204.456.276.192.064.428.096.708.096.464 0 .812-.072 1.044-.216.24-.144.36-.34.36-.588a.548.548 0 0 0-.192-.432c-.128-.12-.336-.224-.624-.312a9.384 9.384 0 0 0-1.128-.288 7.324 7.324 0 0 1-1.56-.492c-.424-.208-.748-.476-.972-.804-.224-.336-.336-.752-.336-1.248 0-.488.136-.924.408-1.308.28-.384.668-.684 1.164-.9.496-.216 1.084-.324 1.764-.324.552 0 1.036.072 1.452.216.424.144.78.336 1.068.576.288.24.504.496.648.768.152.264.232.524.24.78a.272.272 0 0 1-.072.18.244.244 0 0 1-.18.072h-1.584a.504.504 0 0 1-.228-.048.442.442 0 0 1-.168-.156c-.048-.176-.176-.328-.384-.456-.2-.136-.464-.204-.792-.204-.352 0-.628.064-.828.192-.192.12-.288.308-.288.564 0 .16.052.3.156.42.112.12.292.224.54.312.256.088.604.18 1.044.276.728.136 1.316.308 1.764.516.448.2.776.464.984.792.208.32.312.724.312 1.212 0 .544-.156 1.016-.468 1.416-.304.392-.728.692-1.272.9-.544.208-1.168.312-1.872.312Zm10.165.66a.405.405 0 0 1-.3-.108 2.594 2.594 0 0 1-.156-.168l-.408-.54a3.372 3.372 0 0 1-1.068.156c-.736 0-1.376-.12-1.92-.36-.536-.24-.96-.6-1.272-1.08-.304-.488-.468-1.096-.492-1.824a44.387 44.387 0 0 1 0-2.076c.024-.72.192-1.324.504-1.812.312-.496.74-.868 1.284-1.116.544-.248 1.176-.372 1.896-.372.728 0 1.364.124 1.908.372.544.248.972.62 1.284 1.116.312.488.48 1.092.504 1.812a22.991 22.991 0 0 1 0 2.076c-.048.992-.336 1.76-.864 2.304l.876 1.248a.227.227 0 0 1 .036.12.193.193 0 0 1-.06.168.227.227 0 0 1-.18.084h-1.572Zm-1.932-2.388c.424 0 .768-.128 1.032-.384.272-.256.416-.664.432-1.224a20.454 20.454 0 0 0 0-1.968c-.008-.376-.076-.68-.204-.912a1.22 1.22 0 0 0-.516-.528 1.593 1.593 0 0 0-.744-.168c-.272 0-.516.056-.732.168a1.22 1.22 0 0 0-.516.528c-.128.232-.196.536-.204.912a40.877 40.877 0 0 0 0 1.968c.016.56.156.968.42 1.224.272.256.616.384 1.032.384ZM43.23 74.5a.292.292 0 0 1-.216-.084.292.292 0 0 1-.084-.216v-7.8c0-.088.028-.16.084-.216a.292.292 0 0 1 .216-.084h1.584c.08 0 .148.028.204.084a.274.274 0 0 1 .096.216v6.288h3.624c.088 0 .16.032.216.096a.274.274 0 0 1 .096.216v1.2c0 .088-.032.16-.096.216a.292.292 0 0 1-.216.084H43.23Zm7.028 0a.292.292 0 0 1-.216-.084.292.292 0 0 1-.084-.216v-5.64c0-.088.028-.16.084-.216a.292.292 0 0 1 .216-.084h1.416c.08 0 .148.028.204.084a.274.274 0 0 1 .096.216v5.64c0 .088-.032.16-.096.216a.278.278 0 0 1-.204.084h-1.416Zm-.012-7.14a.292.292 0 0 1-.216-.084.292.292 0 0 1-.084-.216v-1.068c0-.088.028-.16.084-.216a.274.274 0 0 1 .216-.096h1.428c.088 0 .16.032.216.096a.274.274 0 0 1 .096.216v1.068c0 .088-.032.16-.096.216a.292.292 0 0 1-.216.084h-1.428Zm6.326 7.14c-.512 0-.956-.08-1.332-.24a1.849 1.849 0 0 1-.852-.768c-.2-.352-.3-.804-.3-1.356v-2.304h-.936a.335.335 0 0 1-.228-.084.292.292 0 0 1-.084-.216v-.972c0-.088.028-.16.084-.216a.335.335 0 0 1 .228-.084h.936v-1.98c0-.088.028-.16.084-.216a.32.32 0 0 1 .216-.084h1.392c.088 0 .16.028.216.084a.292.292 0 0 1 .084.216v1.98h1.5c.088 0 .16.028.216.084a.292.292 0 0 1 .084.216v.972c0 .088-.028.16-.084.216a.292.292 0 0 1-.216.084h-1.5v2.136c0 .272.052.488.156.648.104.16.28.24.528.24h.924c.088 0 .16.028.216.084a.292.292 0 0 1 .084.216V74.2c0 .088-.028.16-.084.216a.292.292 0 0 1-.216.084h-1.116Zm5.29.12c-.945 0-1.697-.256-2.257-.768s-.852-1.272-.876-2.28v-.42c.024-.632.164-1.172.42-1.62a2.58 2.58 0 0 1 1.08-1.032c.464-.24 1.004-.36 1.62-.36.704 0 1.284.14 1.74.42.464.28.812.66 1.044 1.14.232.48.348 1.028.348 1.644v.288c0 .088-.032.16-.096.216a.278.278 0 0 1-.204.084h-3.84V72.016c.008.232.048.444.12.636a.977.977 0 0 0 .336.456.905.905 0 0 0 .552.168c.16 0 .292-.024.396-.072.112-.056.204-.116.276-.18a2.84 2.84 0 0 0 .168-.18.564.564 0 0 1 .168-.144.501.501 0 0 1 .216-.036h1.488a.26.26 0 0 1 .192.072c.056.04.08.1.072.18-.008.136-.076.3-.204.492a2.527 2.527 0 0 1-.564.576c-.24.184-.544.336-.912.456s-.796.18-1.284.18Zm-1.02-3.876h2.027v-.024c0-.256-.04-.48-.12-.672a.881.881 0 0 0-.348-.444.954.954 0 0 0-.552-.156c-.216 0-.4.052-.552.156a1.01 1.01 0 0 0-.336.444c-.08.192-.12.416-.12.672v.024Z" fill="#fff"/></g><defs><linearGradient id="c" x1="44.583" y1="21.74" x2="44.583" y2="47.403" gradientUnits="userSpaceOnUse"><stop stop-color="#97D9F6"/><stop offset=".92" stop-color="#0F80CC"/><stop offset="1" stop-color="#0F80CC"/></linearGradient><clipPath id="b"><path fill="#fff" transform="translate(25.5 18.5)" d="M0 0h40v40H0z"/></clipPath><filter id="a" x="0" y="0" width="91" height="101" filterUnits="userSpaceOnUse" color-interpolation-filters="sRGB"><feFlood flood-opacity="0" result="BackgroundImageFix"/><feColorMatrix in="SourceAlpha" values="0 0 0 0 0 0 0 0 0 0 0 0 0 0 0 0 0 0 127 0" result="hardAlpha"/><feOffset dy="2"/><feGaussianBlur stdDeviation="4"/><feColorMatrix values="0 0 0 0 0 0 0 0 0 0 0 0 0 0 0 0 0 0 0.75 0"/><feBlend in2="BackgroundImageFix" result="effect1_dropShadow_505_492"/><feBlend in="SourceGraphic" in2="effect1_dropShadow_505_492" result="shape"/></filter></defs></svg>