<svg width="91" height="101" viewBox="0 0 91 101" fill="none" xmlns="http://www.w3.org/2000/svg">
<g filter="url(#filter0_d_17_376)">
<path d="M78 6H13C10.2386 6 8 8.23858 8 11V86C8 88.7614 10.2386 91 13 91H78C80.7614 91 83 88.7614 83 86V11C83 8.23858 80.7614 6 78 6Z" fill="#212529"/>
</g>
<g clip-path="url(#clip0_17_376)">
<mask id="mask0_17_376" style="mask-type:luminance" maskUnits="userSpaceOnUse" x="30" y="24" width="31" height="31">
<path d="M30 24H60.9997V55H30V24Z" fill="white"/>
</mask>
<g mask="url(#mask0_17_376)">
<path d="M32.2031 39.4996C32.2031 44.7631 35.2618 49.3112 39.6971 51.4669L33.3543 34.0882C32.594 35.7908 32.2017 37.6349 32.2031 39.4996ZM54.4764 38.8286C54.4764 37.1853 53.8862 36.0473 53.3799 35.1615C52.7058 34.0662 52.0743 33.1386 52.0743 32.0433C52.0743 30.821 53.0011 29.6832 54.3069 29.6832C54.3659 29.6832 54.4218 29.6905 54.4795 29.6938C52.1135 27.5265 48.9617 26.2032 45.5 26.2032C40.8547 26.2032 36.7677 28.5866 34.3902 32.1966C34.7021 32.206 34.9964 32.2123 35.2459 32.2123C36.6367 32.2123 38.7896 32.0436 38.7896 32.0436C39.5064 32.0013 39.5909 33.0541 38.8751 33.1389C38.8751 33.1389 38.1545 33.2236 37.353 33.2656L42.1951 47.6684L45.1053 38.9412L43.0334 33.2654C42.3174 33.2234 41.639 33.1386 41.639 33.1386C40.9225 33.0966 41.0065 32.0011 41.723 32.0433C41.723 32.0433 43.9189 32.2121 45.2255 32.2121C46.6161 32.2121 48.7692 32.0433 48.7692 32.0433C49.4865 32.0011 49.5707 33.0538 48.8545 33.1386C48.8545 33.1386 48.1326 33.2234 47.3326 33.2654L52.1378 47.5591L53.4639 43.1271C54.039 41.2879 54.4764 39.9669 54.4764 38.8286Z" fill="#00749A"/>
<path d="M45.7337 40.6627L41.7441 52.2553C42.9638 52.6147 44.2288 52.7973 45.5004 52.7972C47.0488 52.7972 48.5338 52.5293 49.916 52.0435C49.8789 51.9855 49.8472 51.9242 49.8213 51.8603L45.7337 40.6627ZM57.1679 33.1201C57.225 33.5437 57.2574 33.9986 57.2574 34.4874C57.2574 35.8367 57.0054 37.3535 56.2464 39.2501L52.1848 50.9933C56.1378 48.6881 58.7968 44.4053 58.7968 39.4996C58.8003 37.2698 58.24 35.0753 57.1679 33.1201Z" fill="#00749A"/>
<path d="M45.5001 24C36.9536 24 30 30.9531 30 39.4996C30 48.0472 36.9533 55.0003 45.5001 55.0003C54.0464 55.0003 61.001 48.0474 61.001 39.4996C61.0008 30.9531 54.0464 24 45.5001 24ZM45.5001 54.2895C37.3455 54.2895 30.7107 47.6548 30.7107 39.4996C30.7107 31.3452 37.3452 24.711 45.5001 24.711C53.6545 24.711 60.2888 31.3452 60.2888 39.4996C60.2888 47.6548 53.6543 54.2895 45.5001 54.2895Z" fill="#00749A"/>
</g>
</g>
<path d="M26.033 63.418L24.02 71.14H21.743L20.511 66.058L19.235 71.14H16.958L15 63.418H17.013L18.124 69.039L19.499 63.418H21.567L22.887 69.039L24.009 63.418H26.033Z" fill="white"/>
<path d="M29.7703 71.228C29.169 71.228 28.6263 71.0997 28.1423 70.843C27.6657 70.5863 27.288 70.2197 27.0093 69.743C26.738 69.2663 26.6023 68.709 26.6023 68.071C26.6023 67.4403 26.7417 66.8867 27.0203 66.41C27.299 65.926 27.6803 65.5557 28.1643 65.299C28.6483 65.0423 29.191 64.914 29.7923 64.914C30.3937 64.914 30.9363 65.0423 31.4203 65.299C31.9043 65.5557 32.2857 65.926 32.5643 66.41C32.843 66.8867 32.9823 67.4403 32.9823 68.071C32.9823 68.7017 32.8393 69.259 32.5533 69.743C32.2747 70.2197 31.8897 70.5863 31.3983 70.843C30.9143 71.0997 30.3717 71.228 29.7703 71.228ZM29.7703 69.6C30.1297 69.6 30.434 69.468 30.6833 69.204C30.94 68.94 31.0683 68.5623 31.0683 68.071C31.0683 67.5797 30.9437 67.202 30.6943 66.938C30.4523 66.674 30.1517 66.542 29.7923 66.542C29.4257 66.542 29.1213 66.674 28.8793 66.938C28.6373 67.1947 28.5163 67.5723 28.5163 68.071C28.5163 68.5623 28.6337 68.94 28.8683 69.204C29.1103 69.468 29.411 69.6 29.7703 69.6Z" fill="white"/>
<path d="M35.8612 66.025C36.0812 65.6877 36.3562 65.4237 36.6862 65.233C37.0162 65.035 37.3829 64.936 37.7862 64.936V66.927H37.2692C36.7999 66.927 36.4479 67.0297 36.2132 67.235C35.9786 67.433 35.8612 67.785 35.8612 68.291V71.14H33.9802V65.002H35.8612V66.025Z" fill="white"/>
<path d="M38.3113 68.06C38.3113 67.4293 38.4287 66.8757 38.6633 66.399C38.9053 65.9223 39.2317 65.5557 39.6423 65.299C40.053 65.0423 40.5113 64.914 41.0173 64.914C41.4207 64.914 41.7873 64.9983 42.1173 65.167C42.4547 65.3357 42.7187 65.563 42.9093 65.849V63H44.7903V71.14H42.9093V70.26C42.7333 70.5533 42.4803 70.788 42.1503 70.964C41.8277 71.14 41.45 71.228 41.0173 71.228C40.5113 71.228 40.053 71.0997 39.6423 70.843C39.2317 70.579 38.9053 70.2087 38.6633 69.732C38.4287 69.248 38.3113 68.6907 38.3113 68.06ZM42.9093 68.071C42.9093 67.6017 42.7773 67.2313 42.5133 66.96C42.2567 66.6887 41.9413 66.553 41.5673 66.553C41.1933 66.553 40.8743 66.6887 40.6103 66.96C40.3537 67.224 40.2253 67.5907 40.2253 68.06C40.2253 68.5293 40.3537 68.9033 40.6103 69.182C40.8743 69.4533 41.1933 69.589 41.5673 69.589C41.9413 69.589 42.2567 69.4533 42.5133 69.182C42.7773 68.9107 42.9093 68.5403 42.9093 68.071Z" fill="white"/>
<path d="M52.0361 65.904C52.0361 66.3513 51.9335 66.762 51.7281 67.136C51.5228 67.5027 51.2075 67.7997 50.7821 68.027C50.3568 68.2543 49.8288 68.368 49.1981 68.368H48.0321V71.14H46.1511V63.418H49.1981C49.8141 63.418 50.3348 63.5243 50.7601 63.737C51.1855 63.9497 51.5045 64.243 51.7171 64.617C51.9298 64.991 52.0361 65.42 52.0361 65.904ZM49.0551 66.872C49.4145 66.872 49.6821 66.7877 49.8581 66.619C50.0341 66.4503 50.1221 66.212 50.1221 65.904C50.1221 65.596 50.0341 65.3577 49.8581 65.189C49.6821 65.0203 49.4145 64.936 49.0551 64.936H48.0321V66.872H49.0551Z" fill="white"/>
<path d="M54.8964 66.025C55.1164 65.6877 55.3914 65.4237 55.7214 65.233C56.0514 65.035 56.4181 64.936 56.8214 64.936V66.927H56.3044C55.8351 66.927 55.4831 67.0297 55.2484 67.235C55.0137 67.433 54.8964 67.785 54.8964 68.291V71.14H53.0154V65.002H54.8964V66.025Z" fill="white"/>
<path d="M63.5065 67.972C63.5065 68.148 63.4955 68.3313 63.4735 68.522H59.2165C59.2458 68.9033 59.3668 69.1967 59.5795 69.402C59.7995 69.6 60.0671 69.699 60.3825 69.699C60.8518 69.699 61.1781 69.501 61.3615 69.105H63.3635C63.2608 69.5083 63.0738 69.8713 62.8025 70.194C62.5385 70.5167 62.2048 70.7697 61.8015 70.953C61.3981 71.1363 60.9471 71.228 60.4485 71.228C59.8471 71.228 59.3118 71.0997 58.8425 70.843C58.3731 70.5863 58.0065 70.2197 57.7425 69.743C57.4785 69.2663 57.3465 68.709 57.3465 68.071C57.3465 67.433 57.4748 66.8757 57.7315 66.399C57.9955 65.9223 58.3621 65.5557 58.8315 65.299C59.3008 65.0423 59.8398 64.914 60.4485 64.914C61.0425 64.914 61.5705 65.0387 62.0325 65.288C62.4945 65.5373 62.8538 65.893 63.1105 66.355C63.3745 66.817 63.5065 67.356 63.5065 67.972ZM61.5815 67.477C61.5815 67.1543 61.4715 66.8977 61.2515 66.707C61.0315 66.5163 60.7565 66.421 60.4265 66.421C60.1111 66.421 59.8435 66.5127 59.6235 66.696C59.4108 66.8793 59.2788 67.1397 59.2275 67.477H61.5815Z" fill="white"/>
<path d="M66.9958 71.228C66.4605 71.228 65.9838 71.1363 65.5658 70.953C65.1478 70.7697 64.8178 70.5203 64.5758 70.205C64.3338 69.8823 64.1981 69.523 64.1688 69.127H66.0278C66.0498 69.3397 66.1488 69.512 66.3248 69.644C66.5008 69.776 66.7171 69.842 66.9738 69.842C67.2085 69.842 67.3881 69.798 67.5128 69.71C67.6448 69.6147 67.7108 69.4937 67.7108 69.347C67.7108 69.171 67.6191 69.0427 67.4358 68.962C67.2525 68.874 66.9555 68.7787 66.5448 68.676C66.1048 68.5733 65.7381 68.467 65.4448 68.357C65.1515 68.2397 64.8985 68.06 64.6858 67.818C64.4731 67.5687 64.3668 67.235 64.3668 66.817C64.3668 66.465 64.4621 66.146 64.6528 65.86C64.8508 65.5667 65.1368 65.3357 65.5108 65.167C65.8921 64.9983 66.3431 64.914 66.8638 64.914C67.6338 64.914 68.2388 65.1047 68.6788 65.486C69.1261 65.8673 69.3828 66.3733 69.4488 67.004H67.7108C67.6815 66.7913 67.5861 66.6227 67.4248 66.498C67.2708 66.3733 67.0655 66.311 66.8088 66.311C66.5888 66.311 66.4201 66.355 66.3028 66.443C66.1855 66.5237 66.1268 66.6373 66.1268 66.784C66.1268 66.96 66.2185 67.092 66.4018 67.18C66.5925 67.268 66.8858 67.356 67.2818 67.444C67.7365 67.5613 68.1068 67.6787 68.3928 67.796C68.6788 67.906 68.9281 68.0893 69.1408 68.346C69.3608 68.5953 69.4745 68.9327 69.4818 69.358C69.4818 69.7173 69.3791 70.04 69.1738 70.326C68.9758 70.6047 68.6861 70.8247 68.3048 70.986C67.9308 71.1473 67.4945 71.228 66.9958 71.228Z" fill="white"/>
<path d="M73.1296 71.228C72.5943 71.228 72.1176 71.1363 71.6996 70.953C71.2816 70.7697 70.9516 70.5203 70.7096 70.205C70.4676 69.8823 70.3319 69.523 70.3026 69.127H72.1616C72.1836 69.3397 72.2826 69.512 72.4586 69.644C72.6346 69.776 72.8509 69.842 73.1076 69.842C73.3423 69.842 73.5219 69.798 73.6466 69.71C73.7786 69.6147 73.8446 69.4937 73.8446 69.347C73.8446 69.171 73.7529 69.0427 73.5696 68.962C73.3863 68.874 73.0893 68.7787 72.6786 68.676C72.2386 68.5733 71.8719 68.467 71.5786 68.357C71.2852 68.2397 71.0323 68.06 70.8196 67.818C70.6069 67.5687 70.5006 67.235 70.5006 66.817C70.5006 66.465 70.5959 66.146 70.7866 65.86C70.9846 65.5667 71.2706 65.3357 71.6446 65.167C72.0259 64.9983 72.4769 64.914 72.9976 64.914C73.7676 64.914 74.3726 65.1047 74.8126 65.486C75.2599 65.8673 75.5166 66.3733 75.5826 67.004H73.8446C73.8153 66.7913 73.7199 66.6227 73.5586 66.498C73.4046 66.3733 73.1993 66.311 72.9426 66.311C72.7226 66.311 72.5539 66.355 72.4366 66.443C72.3193 66.5237 72.2606 66.6373 72.2606 66.784C72.2606 66.96 72.3523 67.092 72.5356 67.18C72.7263 67.268 73.0196 67.356 73.4156 67.444C73.8703 67.5613 74.2406 67.6787 74.5266 67.796C74.8126 67.906 75.0619 68.0893 75.2746 68.346C75.4946 68.5953 75.6083 68.9327 75.6156 69.358C75.6156 69.7173 75.5129 70.04 75.3076 70.326C75.1096 70.6047 74.8199 70.8247 74.4386 70.986C74.0646 71.1473 73.6283 71.228 73.1296 71.228Z" fill="white"/>
<defs>
<filter id="filter0_d_17_376" x="0" y="0" width="91" height="101" filterUnits="userSpaceOnUse" color-interpolation-filters="sRGB">
<feFlood flood-opacity="0" result="BackgroundImageFix"/>
<feColorMatrix in="SourceAlpha" type="matrix" values="0 0 0 0 0 0 0 0 0 0 0 0 0 0 0 0 0 0 127 0" result="hardAlpha"/>
<feOffset dy="2"/>
<feGaussianBlur stdDeviation="4"/>
<feColorMatrix type="matrix" values="0 0 0 0 0 0 0 0 0 0 0 0 0 0 0 0 0 0 0.75 0"/>
<feBlend mode="normal" in2="BackgroundImageFix" result="effect1_dropShadow_17_376"/>
<feBlend mode="normal" in="SourceGraphic" in2="effect1_dropShadow_17_376" result="shape"/>
</filter>
<clipPath id="clip0_17_376">
<rect width="31" height="31" fill="white" transform="translate(30 24)"/>
</clipPath>
</defs>
</svg>
